<svg width="19" height="19" viewBox="0 0 19 19" fill="none" xmlns="http://www.w3.org/2000/svg">
<path d="M3.94784 5.96942C4.26219 3.14032 6.65349 1 9.5 1V1C12.3465 1 14.7378 3.14032 15.0522 5.96942L15.304 8.23563C15.3072 8.26452 15.3088 8.27897 15.3104 8.29326C15.4394 9.41695 15.8051 10.5005 16.3836 11.4725C16.3909 11.4849 16.3984 11.4973 16.4133 11.5222L16.9914 12.4856C17.5159 13.3599 17.7782 13.797 17.7216 14.1559C17.6839 14.3946 17.561 14.6117 17.3757 14.7668C17.0971 15 16.5873 15 15.5678 15H3.43223C2.41268 15 1.90291 15 1.62434 14.7668C1.43897 14.6117 1.31609 14.3946 1.27841 14.1559C1.22179 13.797 1.48407 13.3599 2.00862 12.4856L2.58665 11.5222C2.60161 11.4973 2.60909 11.4849 2.61644 11.4725C3.19488 10.5005 3.56064 9.41695 3.68959 8.29326C3.69123 8.27897 3.69283 8.26452 3.69604 8.23563L3.94784 5.96942Z" stroke="#4D5EA5"/>
<path d="M6.60222 15.4059C6.77315 16.1501 7.14978 16.8077 7.67372 17.2767C8.19765 17.7458 8.8396 18 9.5 18C10.1604 18 10.8024 17.7458 11.3263 17.2767C11.8502 16.8077 12.2269 16.1501 12.3978 15.4059" stroke="#4D5EA5" stroke-linecap="round"/>
</svg>
