<svg width="18" height="19" viewBox="0 0 18 19" fill="none" xmlns="http://www.w3.org/2000/svg">
<path fill-rule="evenodd" clip-rule="evenodd" d="M11.3753 0.981561C10.6434 0.670987 9.83995 0.5 9.00016 0.5C5.89888 0.5 3.29354 2.83189 2.95106 5.9142L2.69926 8.18042L2.69301 8.23626C2.57212 9.28972 2.22922 10.3056 1.68694 11.2168L1.65807 11.265L1.08003 12.2284L1.06611 12.2516C0.815679 12.669 0.608229 13.0147 0.473392 13.301C0.337303 13.5899 0.23241 13.9025 0.284681 14.2338C0.341193 14.5919 0.525526 14.9175 0.80357 15.1502C1.06075 15.3655 1.38273 15.4364 1.70053 15.4683C2.0154 15.5 2.41859 15.5 2.90532 15.5H2.93239H15.0679H15.095C15.5817 15.5 15.9849 15.5 16.2998 15.4683C16.6176 15.4364 16.9396 15.3655 17.1968 15.1502C17.4748 14.9175 17.6591 14.5919 17.7156 14.2338C17.7679 13.9025 17.663 13.5899 17.5269 13.301C17.3921 13.0147 17.1847 12.669 16.9343 12.2517L16.9342 12.2516L16.9203 12.2284L16.3423 11.265L16.3134 11.2168C15.7711 10.3056 15.4282 9.28972 15.3073 8.23626L15.3011 8.18042L15.2586 7.79802C14.9457 7.90165 14.6156 7.96768 14.2738 7.99078L14.3072 8.29085L14.3138 8.35026C14.4508 9.54418 14.8395 10.6955 15.454 11.7282L15.4848 11.7795L16.0628 12.7429C16.3307 13.1894 16.5114 13.4918 16.6222 13.7271C16.7343 13.9649 16.7322 14.0504 16.7279 14.0779C16.709 14.1973 16.6476 14.3058 16.5549 14.3834C16.5335 14.4013 16.4613 14.447 16.1997 14.4734C15.941 14.4994 15.5886 14.5 15.0679 14.5H2.93239C2.41171 14.5 2.05936 14.4994 1.80063 14.4734C1.53901 14.447 1.46682 14.4013 1.44542 14.3834C1.35274 14.3058 1.2913 14.1973 1.27246 14.0779C1.26811 14.0504 1.26605 13.9649 1.37808 13.7271C1.48887 13.4918 1.66964 13.1894 1.93753 12.7429L2.51556 11.7795L2.54627 11.7282C3.16086 10.6955 3.54948 9.54418 3.68649 8.35026L3.69314 8.29085L3.94494 6.02463C4.23115 3.44875 6.40843 1.5 9.00016 1.5C9.58384 1.5 10.1465 1.59884 10.6713 1.78142C10.8697 1.48435 11.1067 1.21532 11.3753 0.981561ZM13.1894 2.17115C12.8746 2.31089 12.6026 2.52951 12.3985 2.80192C13.2933 3.6054 13.9045 4.72482 14.0525 5.99933C14.4071 5.99021 14.7387 5.8888 15.0243 5.71822C14.8235 4.32034 14.1551 3.08721 13.1894 2.17115Z" fill="#4D5EA5"/>
<path d="M6.10222 15.4059C6.27315 16.1501 6.64978 16.8077 7.17372 17.2767C7.69765 17.7458 8.3396 18 9 18C9.6604 18 10.3024 17.7458 10.8263 17.2767C11.3502 16.8077 11.7269 16.1501 11.8978 15.4059" stroke="#4D5EA5" stroke-linecap="round"/>
<circle cx="14" cy="4" r="2" fill="#4D5EA5"/>
</svg>
