<svg width="15" height="18" viewBox="0 0 15 18" fill="none" xmlns="http://www.w3.org/2000/svg">
<path d="M2.77825 13.8H12.0217C13.4845 13.8 14.3194 12.3287 13.4418 11.2977C13.0532 10.8413 12.8138 10.2999 12.7494 9.73221L12.3916 6.58015C12.1987 4.88051 10.9299 3.48575 9.21596 2.89893V2.81596C9.21596 1.81303 8.40293 1 7.4 1C6.39708 1 5.58404 1.81303 5.58404 2.81596V2.89893C3.87013 3.48575 2.60128 4.88051 2.40837 6.58015L2.05062 9.73221C1.98619 10.2999 1.74675 10.8413 1.35823 11.2977C0.480606 12.3287 1.31555 13.8 2.77825 13.8Z" fill="#FEE40B"/>
<path d="M13.7775 4.05352L13.0859 4.34363V4.34363L13.7775 4.05352ZM13.1473 4.49011C13.3075 4.87208 13.7471 5.05184 14.129 4.89162C14.511 4.7314 14.6908 4.29186 14.5305 3.90989L13.1473 4.49011ZM11.2785 0.703642C10.894 0.549807 10.4575 0.73687 10.3036 1.12146C10.1498 1.50605 10.3369 1.94252 10.7215 2.09636L11.2785 0.703642ZM11.1338 1.45351L11.4123 0.757154L11.4123 0.757154L11.1338 1.45351ZM1.06144 4.05352L1.75306 4.34363L1.75306 4.34363L1.06144 4.05352ZM0.30838 3.90989C0.148159 4.29187 0.327923 4.7314 0.709894 4.89162C1.09187 5.05184 1.5314 4.87208 1.69162 4.49011L0.30838 3.90989ZM4.11746 2.09636C4.50205 1.94252 4.68911 1.50604 4.53527 1.12146C4.38144 0.73687 3.94496 0.549807 3.56037 0.703642L4.11746 2.09636ZM3.70514 1.45351L3.42659 0.757154L3.42659 0.757154L3.70514 1.45351ZM12.3916 6.58015L11.6464 6.66473L12.3916 6.58015ZM12.7494 9.73221L13.4946 9.64763L12.7494 9.73221ZM2.05062 9.73221L1.30541 9.64763H1.30541L2.05062 9.73221ZM2.40837 6.58015L3.15359 6.66473L2.40837 6.58015ZM1.35823 11.2977L0.787121 10.8116H0.787121L1.35823 11.2977ZM13.4418 11.2977L12.8707 11.7838L13.4418 11.2977ZM9.21596 2.89893H8.46596C8.46596 3.21951 8.66972 3.50465 8.97301 3.60849L9.21596 2.89893ZM5.58404 2.89893L5.82699 3.60849C6.13028 3.50465 6.33404 3.21951 6.33404 2.89893H5.58404ZM10.5023 15.6632C10.6477 15.2753 10.4511 14.8431 10.0632 14.6977C9.67534 14.5523 9.24307 14.7489 9.0977 15.1368L10.5023 15.6632ZM5.7023 15.1368C5.55694 14.7489 5.12467 14.5523 4.7368 14.6977C4.34893 14.8431 4.15234 15.2753 4.2977 15.6632L5.7023 15.1368ZM13.0859 4.34363L13.1473 4.49011L14.5305 3.90989L14.4691 3.76342L13.0859 4.34363ZM10.7215 2.09636L10.8552 2.14987L11.4123 0.757154L11.2785 0.703642L10.7215 2.09636ZM14.4691 3.76342C13.894 2.39234 12.7928 1.30934 11.4123 0.757154L10.8552 2.14987C11.8626 2.55282 12.6662 3.34311 13.0859 4.34363L14.4691 3.76342ZM0.36982 3.76342L0.30838 3.90989L1.69162 4.49011L1.75306 4.34363L0.36982 3.76342ZM3.56037 0.703642L3.42659 0.757154L3.98368 2.14987L4.11746 2.09636L3.56037 0.703642ZM1.75306 4.34363C2.17274 3.34311 2.97631 2.55282 3.98368 2.14987L3.42659 0.757154C2.04612 1.30934 0.94493 2.39234 0.36982 3.76342L1.75306 4.34363ZM12.0217 13.05H2.77825V14.55H12.0217V13.05ZM11.6464 6.66473L12.0042 9.81679L13.4946 9.64763L13.1368 6.49557L11.6464 6.66473ZM2.79584 9.81679L3.15359 6.66473L1.66316 6.49557L1.30541 9.64763L2.79584 9.81679ZM1.92934 11.7838C2.40952 11.2197 2.71373 10.5402 2.79584 9.81679L1.30541 9.64763C1.25864 10.0596 1.08399 10.4628 0.787121 10.8116L1.92934 11.7838ZM12.0042 9.81679C12.0863 10.5402 12.3905 11.2197 12.8707 11.7838L14.0129 10.8116C13.716 10.4628 13.5414 10.0596 13.4946 9.64763L12.0042 9.81679ZM2.77825 13.05C2.30605 13.05 1.9863 12.818 1.8429 12.5653C1.70691 12.3257 1.70728 12.0447 1.92934 11.7838L0.787121 10.8116C0.131552 11.5817 0.110586 12.5519 0.53833 13.3056C0.958672 14.0463 1.78775 14.55 2.77825 14.55V13.05ZM12.0217 14.55C13.0123 14.55 13.8413 14.0463 14.2617 13.3056C14.6894 12.5519 14.6684 11.5817 14.0129 10.8116L12.8707 11.7838C13.0927 12.0447 13.0931 12.3257 12.9571 12.5653C12.8137 12.818 12.4939 13.05 12.0217 13.05V14.55ZM9.96596 2.89893V2.81596H8.46596V2.89893H9.96596ZM13.1368 6.49557C12.9058 4.46013 11.3981 2.85332 9.4589 2.18937L8.97301 3.60849C10.4617 4.11819 11.4916 5.30088 11.6464 6.66473L13.1368 6.49557ZM6.33404 2.89893V2.81596H4.83404V2.89893H6.33404ZM3.15359 6.66473C3.30838 5.30088 4.33834 4.11819 5.82699 3.60849L5.3411 2.18937C3.40191 2.85332 1.89417 4.46013 1.66316 6.49557L3.15359 6.66473ZM7.4 1.75C7.98871 1.75 8.46596 2.22725 8.46596 2.81596H9.96596C9.96596 1.39882 8.81714 0.25 7.4 0.25V1.75ZM7.4 0.25C5.98286 0.25 4.83404 1.39882 4.83404 2.81596H6.33404C6.33404 2.22725 6.81129 1.75 7.4 1.75V0.25ZM9.0977 15.1368C8.86232 15.7649 8.20758 16.25 7.4 16.25V17.75C8.80847 17.75 10.039 16.8995 10.5023 15.6632L9.0977 15.1368ZM7.4 16.25C6.59242 16.25 5.93768 15.7649 5.7023 15.1368L4.2977 15.6632C4.76102 16.8995 5.99153 17.75 7.4 17.75V16.25Z" fill="#2F2F2F"/>
</svg>
