<svg width="19" height="22" viewBox="0 0 19 22" fill="none" xmlns="http://www.w3.org/2000/svg">
<path d="M3.30841 17H15.3077C17.2065 17 18.2904 15.1609 17.1511 13.8721C16.6468 13.3016 16.3359 12.6249 16.2523 11.9153L15.7879 7.97518C15.5375 5.85063 13.8903 4.10719 11.6654 3.37366V3.26995C11.6654 2.01629 10.61 1 9.30808 1C8.00614 1 6.95071 2.01629 6.95071 3.26995V3.37366C4.72582 4.10719 3.07868 5.85063 2.82826 7.97519L2.36385 11.9153C2.28021 12.6249 1.96939 13.3016 1.46503 13.8721C0.325756 15.1609 1.40962 17 3.30841 17Z" fill="white"/>
<path d="M17.5869 4.81691L18.137 4.57729V4.57729L17.5869 4.81691ZM17.1166 5.23962C17.2489 5.54342 17.6025 5.68241 17.9063 5.55008C18.2101 5.41774 18.3491 5.06418 18.2167 4.76038L17.1166 5.23962ZM14.197 0.940096C13.8878 0.820992 13.5406 0.975118 13.4215 1.28434C13.3024 1.59357 13.4565 1.9408 13.7657 2.0599L14.197 0.940096ZM14.155 1.56689L14.3707 1.00699L14.3707 1.00699L14.155 1.56689ZM1.07976 4.81691L1.62983 5.05652L1.62983 5.05652L1.07976 4.81691ZM0.449925 4.76038C0.317587 5.06418 0.456583 5.41774 0.760381 5.55007C1.06418 5.68241 1.41774 5.54342 1.55008 5.23962L0.449925 4.76038ZM4.90096 2.0599C5.21018 1.9408 5.36431 1.59357 5.2452 1.28434C5.1261 0.975117 4.77887 0.820992 4.46964 0.940096L4.90096 2.0599ZM4.51164 1.56689L4.29598 1.00699L4.29598 1.00699L4.51164 1.56689ZM15.7879 7.97518L15.192 8.04542L15.7879 7.97518ZM16.2523 11.9153L16.8482 11.845L16.2523 11.9153ZM2.36385 11.9153L1.76798 11.845L2.36385 11.9153ZM2.82826 7.97519L3.42413 8.04542L2.82826 7.97519ZM1.46503 13.8721L1.0155 13.4747H1.0155L1.46503 13.8721ZM17.1511 13.8721L16.7016 14.2695H16.7016L17.1511 13.8721ZM11.6654 3.37366H11.0654C11.0654 3.63264 11.2316 3.8624 11.4776 3.94349L11.6654 3.37366ZM6.95071 3.37366L7.13858 3.94349C7.38454 3.8624 7.55071 3.63264 7.55071 3.37366H6.95071ZM12.9827 19.2176C13.1029 18.9088 12.95 18.561 12.6412 18.4409C12.3324 18.3207 11.9847 18.4736 11.8645 18.7824L12.9827 19.2176ZM6.75169 18.7824C6.6315 18.4736 6.28373 18.3207 5.97492 18.4409C5.66612 18.561 5.51321 18.9088 5.6334 19.2176L6.75169 18.7824ZM17.0368 5.05652L17.1166 5.23962L18.2167 4.76038L18.137 4.57729L17.0368 5.05652ZM13.7657 2.0599L13.9394 2.12679L14.3707 1.00699L14.197 0.940096L13.7657 2.0599ZM18.137 4.57729C17.4252 2.94339 16.0658 1.65989 14.3707 1.00699L13.9394 2.12679C15.344 2.66781 16.4572 3.72593 17.0368 5.05652L18.137 4.57729ZM0.529683 4.57729L0.449925 4.76038L1.55008 5.23962L1.62983 5.05652L0.529683 4.57729ZM4.46964 0.940096L4.29598 1.00699L4.72729 2.12679L4.90096 2.0599L4.46964 0.940096ZM1.62983 5.05652C2.20946 3.72593 3.32268 2.66781 4.72729 2.12679L4.29598 1.00699C2.60085 1.65989 1.24143 2.94339 0.529683 4.57729L1.62983 5.05652ZM15.3077 16.4H3.30841V17.6H15.3077V16.4ZM15.192 8.04542L15.6564 11.9855L16.8482 11.845L16.3838 7.90495L15.192 8.04542ZM2.95973 11.9855L3.42413 8.04542L2.23238 7.90495L1.76798 11.845L2.95973 11.9855ZM1.91456 14.2695C2.49428 13.6137 2.86081 12.8247 2.95973 11.9855L1.76798 11.845C1.69961 12.4251 1.4445 12.9894 1.0155 13.4747L1.91456 14.2695ZM15.6564 11.9855C15.7553 12.8247 16.1219 13.6137 16.7016 14.2695L17.6007 13.4747C17.1717 12.9894 16.9165 12.4251 16.8482 11.845L15.6564 11.9855ZM3.30841 16.4C2.55541 16.4 2.01449 16.0391 1.76436 15.6147C1.52328 15.2056 1.52618 14.7089 1.91456 14.2695L1.0155 13.4747C0.264606 14.3241 0.239802 15.3913 0.730537 16.224C1.21221 17.0413 2.16262 17.6 3.30841 17.6V16.4ZM15.3077 17.6C16.4535 17.6 17.4039 17.0413 17.8856 16.224C18.3763 15.3913 18.3515 14.3241 17.6007 13.4747L16.7016 14.2695C17.09 14.7089 17.0929 15.2056 16.8518 15.6147C16.6017 16.0391 16.0607 16.4 15.3077 16.4V17.6ZM12.2654 3.37366V3.26995H11.0654V3.37366H12.2654ZM16.3838 7.90495C16.1004 5.50077 14.2499 3.59398 11.8533 2.80383L11.4776 3.94349C13.5307 4.6204 14.9746 6.20049 15.192 8.04542L16.3838 7.90495ZM7.55071 3.37366V3.26995H6.35071V3.37366H7.55071ZM3.42413 8.04542C3.64159 6.20049 5.08542 4.6204 7.13858 3.94349L6.76285 2.80383C4.36621 3.59398 2.51576 5.50077 2.23238 7.90495L3.42413 8.04542ZM9.30808 1.6C10.3002 1.6 11.0654 2.36883 11.0654 3.26995H12.2654C12.2654 1.66375 10.9198 0.4 9.30808 0.4V1.6ZM9.30808 0.4C7.69634 0.4 6.35071 1.66375 6.35071 3.26995H7.55071C7.55071 2.36883 8.31594 1.6 9.30808 1.6V0.4ZM11.8645 18.7824C11.508 19.6982 10.5198 20.4 9.30807 20.4V21.6C10.973 21.6 12.4322 20.6321 12.9827 19.2176L11.8645 18.7824ZM9.30807 20.4C8.09631 20.4 7.10815 19.6982 6.75169 18.7824L5.6334 19.2176C6.18394 20.6321 7.6431 21.6 9.30807 21.6V20.4Z" fill="#4F4F4F"/>
</svg>
