<svg width="15" height="15" viewBox="0 0 15 15" fill="none" xmlns="http://www.w3.org/2000/svg">
<g clip-path="url(#clip0_1_2024)">
<path d="M14.1767 1.61949C14.1267 1.46381 13.9929 1.33477 13.7998 1.25613C13.3973 1.09214 12.8408 1.17549 12.4767 1.45437L12.3289 1.56764C10.8804 2.67673 9.62233 3.89152 8.58974 5.1783C8.33052 5.50137 8.08302 5.83269 7.85286 6.16412C7.83225 6.16763 7.81162 6.17138 7.79095 6.17554C7.43159 6.24782 7.1124 6.40853 6.89217 6.6281C6.50118 7.01788 6.54256 7.31918 6.58256 7.61054C6.61939 7.87871 6.65416 8.132 6.36723 8.48013L6.18316 8.70348L6.53162 8.63339C7.35162 8.46845 8.6022 7.95152 9.04852 7.50658C9.26875 7.28702 9.36365 7.03493 9.31573 6.79672C9.31296 6.78296 9.30964 6.76937 9.30596 6.75591C9.68214 6.48322 10.0501 6.20103 10.4005 5.91603C11.7992 4.77915 13.0012 3.5415 13.9733 2.23747L14.0724 2.10458C14.1897 1.94745 14.2267 1.77516 14.1767 1.61949ZM8.78315 7.39846C8.47064 7.71001 7.57927 8.12614 6.81059 8.33655C6.98049 8.02815 6.94619 7.77844 6.91522 7.55301C6.87793 7.2815 6.84574 7.04702 7.15752 6.73619C7.32355 6.57067 7.56419 6.44951 7.8351 6.39502C8.10601 6.34052 8.37479 6.35922 8.5919 6.44767C8.80902 6.53613 8.94847 6.68373 8.98459 6.8633C9.02072 7.04291 8.94918 7.23295 8.78315 7.39846ZM8.79484 6.24538C8.62284 6.1753 8.42629 6.1385 8.21938 6.13542C8.41241 5.86169 8.61718 5.58867 8.83016 5.32096C9.11756 5.28929 9.3977 5.32201 9.62714 5.41547C9.85667 5.50897 10.0209 5.65731 10.0965 5.8368C9.80519 6.07203 9.50232 6.30505 9.19292 6.53193C9.10164 6.41361 8.96677 6.31544 8.79484 6.24538ZM13.7798 2.02775L13.6807 2.16068C12.7688 3.384 11.6511 4.5478 10.3568 5.62331C10.2469 5.45135 10.0659 5.30923 9.83006 5.21318C9.59436 5.11715 9.31602 5.07214 9.02495 5.08077C10.0138 3.88017 11.2021 2.74515 12.5611 1.70466L12.7089 1.59138C12.9532 1.40427 13.3267 1.34835 13.5969 1.45845C13.7264 1.51121 13.8162 1.59779 13.8497 1.70226C13.8833 1.80674 13.8585 1.92233 13.7798 2.02775Z" stroke="white" stroke-width="2"/>
<path d="M14.1767 1.61949C14.1267 1.46381 13.9929 1.33477 13.7998 1.25613C13.3973 1.09214 12.8408 1.17549 12.4767 1.45437L12.3289 1.56764C10.8804 2.67673 9.62233 3.89152 8.58974 5.1783C8.33052 5.50137 8.08302 5.83269 7.85286 6.16412C7.83225 6.16763 7.81162 6.17138 7.79095 6.17554C7.43159 6.24782 7.1124 6.40853 6.89217 6.6281C6.50118 7.01788 6.54256 7.31918 6.58256 7.61054C6.61939 7.87871 6.65416 8.132 6.36723 8.48013L6.18316 8.70348L6.53162 8.63339C7.35162 8.46845 8.6022 7.95152 9.04852 7.50658C9.26875 7.28702 9.36365 7.03493 9.31573 6.79672C9.31296 6.78296 9.30964 6.76937 9.30596 6.75591C9.68214 6.48322 10.0501 6.20103 10.4005 5.91603C11.7992 4.77915 13.0012 3.5415 13.9733 2.23747L14.0724 2.10458C14.1897 1.94745 14.2267 1.77516 14.1767 1.61949ZM8.78315 7.39846C8.47064 7.71001 7.57927 8.12614 6.81059 8.33655C6.98049 8.02815 6.94619 7.77844 6.91522 7.55301C6.87793 7.2815 6.84574 7.04702 7.15752 6.73619C7.32355 6.57067 7.56419 6.44951 7.8351 6.39502C8.10601 6.34052 8.37479 6.35922 8.5919 6.44767C8.80902 6.53613 8.94847 6.68373 8.98459 6.8633C9.02072 7.04291 8.94918 7.23295 8.78315 7.39846ZM8.79484 6.24538C8.62284 6.1753 8.42629 6.1385 8.21938 6.13542C8.41241 5.86169 8.61718 5.58867 8.83016 5.32096C9.11756 5.28929 9.3977 5.32201 9.62714 5.41547C9.85667 5.50897 10.0209 5.65731 10.0965 5.8368C9.80519 6.07203 9.50232 6.30505 9.19292 6.53193C9.10164 6.41361 8.96677 6.31544 8.79484 6.24538ZM13.7798 2.02775L13.6807 2.16068C12.7688 3.384 11.6511 4.5478 10.3568 5.62331C10.2469 5.45135 10.0659 5.30923 9.83006 5.21318C9.59436 5.11715 9.31602 5.07214 9.02495 5.08077C10.0138 3.88017 11.2021 2.74515 12.5611 1.70466L12.7089 1.59138C12.9532 1.40427 13.3267 1.34835 13.5969 1.45845C13.7264 1.51121 13.8162 1.59779 13.8497 1.70226C13.8833 1.80674 13.8585 1.92233 13.7798 2.02775Z" stroke="white" stroke-opacity="0.2" stroke-width="2"/>
<path d="M8.92298 6.32403C8.86787 6.19931 8.74079 6.10492 8.56516 6.05825C8.19899 5.96094 7.71496 6.08453 7.41422 6.35215L7.29215 6.46084C6.09578 7.5252 5.07472 8.659 4.25731 9.83078C4.05211 10.125 3.85782 10.4249 3.67881 10.7232C3.66091 10.7281 3.64302 10.7333 3.62512 10.7387C3.31382 10.8339 3.04422 10.9988 2.86597 11.203C2.5495 11.5656 2.60745 11.8124 2.66348 12.051C2.71506 12.2707 2.76377 12.4782 2.53596 12.7959L2.38981 12.9998L2.69166 12.9075C3.40197 12.6903 4.46631 12.1382 4.82756 11.7243C5.00582 11.5201 5.07138 11.301 5.01218 11.1074C5.00876 11.0962 5.00486 11.0852 5.00066 11.0743C5.31245 10.8107 5.61634 10.5399 5.90456 10.2686C7.05501 9.18591 8.02516 8.03853 8.78804 6.8583L8.86583 6.73802C8.95787 6.59578 8.97815 6.44876 8.92298 6.32403ZM4.58616 11.6602C4.33321 11.9499 3.57799 12.3832 2.91612 12.6332C3.04372 12.3599 2.99568 12.1554 2.95231 11.9707C2.90008 11.7484 2.855 11.5563 3.10735 11.2672C3.24174 11.1132 3.44499 10.9889 3.67966 10.9172C3.91434 10.8454 4.15235 10.8348 4.34986 10.8873C4.54736 10.9398 4.6807 11.0491 4.72533 11.195C4.76997 11.341 4.72054 11.5062 4.58616 11.6602ZM4.51412 10.6991C4.35765 10.6575 4.18194 10.646 3.99952 10.6636C4.14995 10.4169 4.31078 10.1697 4.47921 9.92612C4.73003 9.87177 4.97905 9.87172 5.18778 9.92718C5.39657 9.98266 5.55182 10.0901 5.63118 10.2322C5.39144 10.4564 5.14137 10.6799 4.88512 10.8989C4.79629 10.8093 4.67052 10.7407 4.51412 10.6991ZM8.60269 6.70255L8.52487 6.82287C7.8092 7.93006 6.90807 9.00775 5.84512 10.0291C5.73606 9.89669 5.56652 9.79601 5.35202 9.73901C5.1376 9.68203 4.88929 9.67166 4.63359 9.7072C5.41867 8.61142 6.38403 7.55082 7.50644 6.55228L7.6285 6.44358C7.83027 6.26403 8.15512 6.18111 8.40093 6.24644C8.51875 6.27776 8.60402 6.34108 8.64101 6.42479C8.67804 6.50849 8.66443 6.60713 8.60269 6.70255Z" stroke="white" stroke-width="2"/>
<path d="M8.92298 6.32403C8.86787 6.19931 8.74079 6.10492 8.56516 6.05825C8.19899 5.96094 7.71496 6.08453 7.41422 6.35215L7.29215 6.46084C6.09578 7.5252 5.07472 8.659 4.25731 9.83078C4.05211 10.125 3.85782 10.4249 3.67881 10.7232C3.66091 10.7281 3.64302 10.7333 3.62512 10.7387C3.31382 10.8339 3.04422 10.9988 2.86597 11.203C2.5495 11.5656 2.60745 11.8124 2.66348 12.051C2.71506 12.2707 2.76377 12.4782 2.53596 12.7959L2.38981 12.9998L2.69166 12.9075C3.40197 12.6903 4.46631 12.1382 4.82756 11.7243C5.00582 11.5201 5.07138 11.301 5.01218 11.1074C5.00876 11.0962 5.00486 11.0852 5.00066 11.0743C5.31245 10.8107 5.61634 10.5399 5.90456 10.2686C7.05501 9.18591 8.02516 8.03853 8.78804 6.8583L8.86583 6.73802C8.95787 6.59578 8.97815 6.44876 8.92298 6.32403ZM4.58616 11.6602C4.33321 11.9499 3.57799 12.3832 2.91612 12.6332C3.04372 12.3599 2.99568 12.1554 2.95231 11.9707C2.90008 11.7484 2.855 11.5563 3.10735 11.2672C3.24174 11.1132 3.44499 10.9889 3.67966 10.9172C3.91434 10.8454 4.15235 10.8348 4.34986 10.8873C4.54736 10.9398 4.6807 11.0491 4.72533 11.195C4.76997 11.341 4.72054 11.5062 4.58616 11.6602ZM4.51412 10.6991C4.35765 10.6575 4.18194 10.646 3.99952 10.6636C4.14995 10.4169 4.31078 10.1697 4.47921 9.92612C4.73003 9.87177 4.97905 9.87172 5.18778 9.92718C5.39657 9.98266 5.55182 10.0901 5.63118 10.2322C5.39144 10.4564 5.14137 10.6799 4.88512 10.8989C4.79629 10.8093 4.67052 10.7407 4.51412 10.6991ZM8.60269 6.70255L8.52487 6.82287C7.8092 7.93006 6.90807 9.00775 5.84512 10.0291C5.73606 9.89669 5.56652 9.79601 5.35202 9.73901C5.1376 9.68203 4.88929 9.67166 4.63359 9.7072C5.41867 8.61142 6.38403 7.55082 7.50644 6.55228L7.6285 6.44358C7.83027 6.26403 8.15512 6.18111 8.40093 6.24644C8.51875 6.27776 8.60402 6.34108 8.64101 6.42479C8.67804 6.50849 8.66443 6.60713 8.60269 6.70255Z" stroke="white" stroke-opacity="0.2" stroke-width="2"/>
<path d="M14.9954 1.69677C14.9657 1.29871 14.7939 0.924098 14.5117 0.641928C13.9233 0.053563 13.0107 -0.0150412 12.3417 0.478865L12.0701 0.679521C9.40861 2.64366 7.01664 4.95372 4.96053 7.54561C4.44435 8.19636 3.94419 8.8726 3.47161 9.55748C3.43767 9.55594 3.40362 9.55499 3.3694 9.55499C2.77408 9.55499 2.21442 9.7868 1.79347 10.2078C1.04614 10.9551 1.01553 11.6988 0.985911 12.418C0.958667 13.0799 0.932922 13.7051 0.364597 14.4026L0 14.8502H0.577248C1.93562 14.8502 4.09226 14.2127 4.94535 13.3596C5.3663 12.9387 5.59812 12.379 5.59812 11.7837C5.59812 11.7493 5.59717 11.7151 5.59563 11.681C6.28189 11.2077 6.95813 10.7077 7.60731 10.1924C10.1982 8.13745 12.5084 5.74544 14.4737 3.0829L14.6741 2.81159C14.9111 2.4908 15.0252 2.09487 14.9954 1.69677ZM4.55746 12.9717C3.96014 13.5691 2.40769 14.1379 1.11646 14.272C1.48574 13.6133 1.51108 12.9969 1.53398 12.4405C1.56155 11.7703 1.58539 11.1916 2.18133 10.5956C2.49868 10.2783 2.92062 10.1035 3.3694 10.1035C3.81817 10.1035 4.24011 10.2783 4.55746 10.5956C4.87481 10.913 5.04958 11.3349 5.04958 11.7836C5.04958 12.2325 4.87481 12.6544 4.55746 12.9717ZM4.94535 10.2078C4.69394 9.95634 4.39279 9.77298 4.06436 9.66561C4.45935 9.10138 4.8728 8.54454 5.29763 8.00441C5.76535 8.0672 6.20089 8.28113 6.53627 8.61647C6.87176 8.95196 7.0858 9.38761 7.14862 9.85526C6.60948 10.2795 6.05264 10.6929 5.48738 11.0883C5.37994 10.7601 5.19666 10.4591 4.94535 10.2078ZM14.2328 2.48568L14.0324 2.75707C12.1887 5.25483 10.0365 7.51021 7.63138 9.46821C7.51147 9.00206 7.26879 8.57325 6.92412 8.22862C6.5796 7.8841 6.15086 7.64149 5.68468 7.52162C7.64363 5.11561 9.89904 2.96346 12.3959 1.12084L12.6675 0.920148C13.1164 0.588756 13.7289 0.63487 14.1238 1.02986C14.3132 1.21918 14.4284 1.47052 14.4484 1.73766C14.4684 2.00483 14.3918 2.27047 14.2328 2.48568Z" fill="#4F4F4F" stroke="#4F4F4F" stroke-width="0.4"/>
</g>
<defs>
<clipPath id="clip0_1_2024">
<rect width="15" height="15" fill="white"/>
</clipPath>
</defs>
</svg>
