<svg width="20" height="16" viewBox="0 0 20 16" fill="none" xmlns="http://www.w3.org/2000/svg">
<path d="M16.6635 4.83222C16.6635 4.83229 16.6635 4.83235 16.6636 4.83241L16.6937 4.89446L16.5683 5.22028L16.2033 4.5091C15.8285 3.77861 15.3979 3.0262 14.9936 2.4037C14.7916 2.09268 14.5923 1.80801 14.4064 1.57224C14.2278 1.34566 14.0358 1.13063 13.8466 0.988022L13.6863 0.867153H13.4855H5.92215H5.72066L5.56001 0.988769C5.37171 1.13132 5.1803 1.3462 5.0021 1.57269C4.81667 1.80839 4.61765 2.09299 4.41595 2.40401C4.01224 3.02651 3.58215 3.77899 3.20828 4.50973L2.85485 5.20054L2.72032 4.88357L2.74491 4.83292C2.74496 4.83283 2.74501 4.83273 2.74505 4.83263C2.96393 4.38325 3.44948 3.42145 4.02664 2.50807C4.31558 2.0508 4.61981 1.61799 4.91766 1.27145C5.22606 0.91264 5.48388 0.698637 5.67041 0.613045L5.67041 0.613057L5.6739 0.611428L5.69839 0.6H13.7113L13.7357 0.611393L13.7357 0.611402L13.739 0.612879C13.9251 0.698429 14.1827 0.912455 14.4911 1.27138C14.7889 1.61797 15.0932 2.05085 15.3822 2.50813C15.9596 3.42161 16.4455 4.38352 16.6635 4.83222ZM15.6695 5.38302H16.5056L16.4626 5.4948H17.3365H18.6757C18.7387 5.4948 18.7808 5.517 18.8005 5.53412C18.8044 5.5375 18.807 5.5402 18.8087 5.54217V6.19803C18.807 6.20003 18.8044 6.20272 18.8005 6.20605C18.7804 6.22354 18.7381 6.24563 18.6757 6.24563H18.249H17.5099L17.6618 6.96894C17.7005 7.15327 17.7232 7.33248 17.7232 7.51418V10.5495C17.7232 11.3072 17.4216 11.9401 17.0066 12.3109L16.8063 12.4898V12.7583V15.267C16.8063 15.3414 16.7488 15.4 16.6723 15.4H15.0225C14.9469 15.4 14.8884 15.3402 14.8884 15.267V13.2796V12.6796H14.2884H5.12036H4.52036V13.2796V15.267C4.52036 15.3407 4.46123 15.4 4.38731 15.4H2.73533C2.66146 15.4 2.60234 15.3408 2.60234 15.267V12.7583V12.4905L2.40296 12.3116C1.98897 11.9403 1.68661 11.3067 1.68661 10.5495V7.51418C1.68661 7.3324 1.70928 7.1525 1.74749 6.96612L1.89519 6.24563H1.15971H0.734096C0.672441 6.24563 0.629577 6.22365 0.608728 6.20556C0.604604 6.20198 0.601822 6.19911 0.6 6.197V5.54297C0.601771 5.54093 0.604469 5.53816 0.60846 5.5347C0.628988 5.51691 0.671835 5.4948 0.734096 5.4948H2.07329H2.97973L2.93229 5.38302H3.74243H15.6695ZM18.8115 5.5461C18.8115 5.5461 18.8112 5.54572 18.8109 5.54494L18.8115 5.5461ZM18.8118 6.19376C18.8119 6.19378 18.8117 6.19417 18.8112 6.19491L18.8118 6.19376ZM0.596938 6.19269C0.596985 6.19269 0.597268 6.19311 0.597645 6.19397L0.596938 6.19269ZM0.597004 5.54715C0.596957 5.54714 0.597142 5.54672 0.597697 5.5459L0.597004 5.54715Z" fill="white" stroke="#4F4F4F" stroke-width="1.2"/>
</svg>
