<svg width="258" height="211" viewBox="0 0 258 211" fill="none" xmlns="http://www.w3.org/2000/svg">
<g filter="url(#filter0_f_1_2035)">
<path d="M72.8678 175.279C64.446 172.607 49.147 165.415 43.6837 160.174C37.3787 154.679 50.698 148.815 52.2809 147.926C53.864 147.036 131.566 109.83 145.109 104.093C158.651 98.3559 201.099 111.446 211.34 117.32C219.687 122.108 213.697 125.329 212.562 126.225C211.428 127.121 146.646 162.061 123.388 172.677C105.775 180.716 89.3985 180.522 72.8678 175.279Z" fill="black" fill-opacity="0.2"/>
</g>
<path d="M114.087 135.84C114.221 135.519 123.299 134.114 127.822 133.451C129.467 134.872 132.821 137.858 133.071 138.442C133.383 139.172 132.982 144.889 129.378 149.031C125.774 153.172 117.965 146.776 115.481 145.775C112.996 144.773 113.921 136.241 114.087 135.84Z" fill="#2C2C2C"/>
<path d="M179.966 104.346C180.099 104.025 189.178 102.62 193.7 101.957C195.346 103.377 198.7 106.363 198.95 106.947C199.262 107.677 198.86 113.395 195.257 117.536C191.653 121.678 183.844 115.282 181.359 114.28C178.875 113.278 179.799 104.746 179.966 104.346Z" fill="#131313"/>
<path fill-rule="evenodd" clip-rule="evenodd" d="M126.501 138.913L118.019 134.835L118.017 134.839C117.965 134.812 117.912 134.787 117.859 134.762C112.805 132.409 105.479 137.479 101.495 146.087C97.5104 154.695 98.3773 163.581 103.431 165.934C103.493 165.963 103.556 165.991 103.619 166.018L111.813 169.964L116.51 160.036C117.74 158.456 118.86 156.63 119.795 154.609C120.658 152.745 121.293 150.868 121.708 149.047L126.501 138.913Z" fill="black"/>
<path d="M111.838 169.975C116.892 172.328 124.216 167.263 128.197 158.662C132.178 150.061 131.308 141.181 126.255 138.827C121.201 136.474 113.877 141.539 109.896 150.14C105.915 158.742 106.784 167.622 111.838 169.975Z" fill="black"/>
<g filter="url(#filter1_d_1_2035)">
<path d="M113.929 166.095C117.719 167.86 123.213 164.062 126.199 157.61C129.185 151.159 128.533 144.498 124.742 142.733C120.952 140.968 115.459 144.767 112.473 151.219C109.487 157.67 110.139 164.33 113.929 166.095Z" fill="url(#paint0_linear_1_2035)"/>
</g>
<g filter="url(#filter2_dd_1_2035)">
<path fill-rule="evenodd" clip-rule="evenodd" d="M119.126 145.267C118.038 145.896 116.962 146.83 115.985 148.007L118.139 151.872C118.426 151.545 118.733 151.271 119.045 151.061L119.126 145.267ZM118.945 158.254C118.494 158.417 118.052 158.434 117.662 158.276L114.354 163.844C114.511 163.948 114.676 164.041 114.849 164.122C116.048 164.68 117.451 164.569 118.866 163.922L118.945 158.254ZM119.349 163.681L119.427 158.027C119.801 157.81 120.17 157.501 120.513 157.116L122.626 160.91C121.606 162.121 120.48 163.067 119.349 163.681ZM119.528 150.788L119.608 145.008C121.095 144.273 122.578 144.122 123.835 144.707C124.186 144.871 124.505 145.085 124.79 145.343L121.453 150.959C121.342 150.859 121.218 150.776 121.082 150.712C120.618 150.497 120.076 150.539 119.528 150.788ZM125.046 157.071C124.452 158.355 123.737 159.512 122.952 160.51L120.838 156.716C121.104 156.359 121.346 155.954 121.552 155.51C121.572 155.467 121.591 155.424 121.61 155.381L125.325 156.436C125.237 156.647 125.144 156.859 125.046 157.071ZM117.815 152.275L115.662 148.41C114.904 149.387 114.216 150.514 113.639 151.759C113.521 152.014 113.409 152.27 113.305 152.526L117.061 153.592C117.082 153.545 117.103 153.497 117.125 153.449C117.325 153.018 117.559 152.624 117.815 152.275ZM125.505 155.988C126.195 154.207 126.554 152.438 126.599 150.836L122.142 153.336C122.103 153.842 121.986 154.385 121.789 154.934L125.505 155.988ZM116.883 154.04C116.648 154.699 116.529 155.349 116.521 155.938L112.082 158.427C112.068 156.753 112.411 154.873 113.128 152.975L116.883 154.04ZM112.099 158.967L116.547 156.473C116.622 157.138 116.861 157.688 117.254 158.026L113.97 163.553C112.845 162.584 112.21 160.943 112.099 158.967ZM126.601 150.285L122.153 152.78C122.13 152.223 122.003 151.732 121.775 151.355L125.137 145.697C126.07 146.767 126.567 148.389 126.601 150.285Z" fill="#4C4C4C"/>
</g>
<path fill-rule="evenodd" clip-rule="evenodd" d="M126.498 138.733L118.016 134.655L118.015 134.657C117.963 134.63 117.909 134.604 117.855 134.579C112.802 132.226 105.475 137.296 101.491 145.904C97.5069 154.512 98.374 163.398 103.427 165.752C103.474 165.773 103.521 165.795 103.569 165.815L111.811 169.784L116.511 159.847C117.74 158.268 118.858 156.444 119.791 154.426C120.653 152.565 121.288 150.691 121.702 148.873L126.498 138.733Z" fill="black"/>
<path d="M128.211 158.831C124.276 167.332 117.052 172.345 112.075 170.027C107.097 167.71 106.252 158.939 110.187 150.438C114.122 141.937 121.569 136.466 126.546 138.784C131.523 141.102 132.146 150.33 128.211 158.831Z" fill="#222222"/>
<g filter="url(#filter3_d_1_2035)">
<path d="M114.198 165.744C117.734 167.438 122.862 163.738 125.653 157.48C128.443 151.221 127.839 144.775 124.303 143.081C120.767 141.387 115.638 145.088 112.848 151.346C110.057 157.604 110.662 164.051 114.198 165.744Z" fill="url(#paint1_linear_1_2035)"/>
</g>
<g filter="url(#filter4_dd_1_2035)">
<path fill-rule="evenodd" clip-rule="evenodd" d="M123.671 157.35C121.754 161.168 118.662 163.509 116.249 163.037L118.232 158.673C119.232 158.592 120.371 157.686 121.191 156.286L123.671 157.35ZM124.26 156.036C125.817 152.103 125.577 148.19 123.75 146.529L121.768 150.892C122.351 151.793 122.382 153.368 121.8 154.981L124.26 156.036ZM117.079 152.954C117.972 151.177 119.382 150.052 120.537 150.134L122.493 145.829C119.958 145.122 116.576 147.692 114.62 151.898L117.079 152.954ZM116.552 154.294L114.071 153.23C112.66 157.139 113.019 160.943 114.944 162.442L116.901 158.136C116.228 157.365 116.093 155.878 116.552 154.294Z" fill="#A9A8A8"/>
</g>
<path fill-rule="evenodd" clip-rule="evenodd" d="M191.033 107.884L183.27 105.761L183.269 105.764C183.219 105.749 183.168 105.736 183.118 105.722C178.504 104.522 173.12 109.918 171.092 117.774C169.064 125.631 171.16 132.974 175.774 134.174C175.832 134.189 175.889 134.203 175.947 134.216L183.453 136.273L185.884 127.168C186.67 125.655 187.326 123.956 187.8 122.122C188.236 120.431 188.481 118.764 188.552 117.177L191.033 107.884Z" fill="black"/>
<path d="M183.481 136.278C188.094 137.479 193.477 132.088 195.503 124.237C197.53 116.387 195.432 109.049 190.819 107.849C186.205 106.648 180.822 112.039 178.796 119.89C176.769 127.74 178.867 135.078 183.481 136.278Z" fill="black"/>
<g filter="url(#filter5_d_1_2035)">
<path d="M184.643 132.691C188.103 133.591 192.14 129.548 193.66 123.66C195.18 117.772 193.607 112.268 190.146 111.368C186.686 110.467 182.649 114.511 181.129 120.399C179.609 126.287 181.182 131.79 184.643 132.691Z" fill="url(#paint2_linear_1_2035)"/>
</g>
<g filter="url(#filter6_dd_1_2035)">
<path fill-rule="evenodd" clip-rule="evenodd" d="M185.816 114.363C184.996 115.061 184.234 116.013 183.592 117.155L186 120.077C186.192 119.756 186.408 119.478 186.639 119.252L185.816 114.363ZM187.662 125.321C187.306 125.528 186.936 125.61 186.582 125.536L184.655 130.732C184.803 130.795 184.957 130.848 185.115 130.889C186.21 131.174 187.375 130.863 188.467 130.099L187.662 125.321ZM188.836 129.821L188.032 125.055C188.313 124.816 188.576 124.499 188.804 124.124L191.164 126.987C190.493 128.162 189.692 129.131 188.836 129.821ZM187.004 118.949L186.182 114.071C187.318 113.226 188.541 112.871 189.689 113.169C190.009 113.252 190.309 113.383 190.589 113.556L188.646 118.793C188.538 118.727 188.423 118.677 188.3 118.645C187.876 118.535 187.426 118.654 187.004 118.949ZM192.608 123.384C192.306 124.556 191.884 125.64 191.377 126.6L189.017 123.737C189.186 123.395 189.328 123.016 189.433 122.61C189.443 122.571 189.453 122.532 189.462 122.493L192.746 122.806C192.704 122.998 192.658 123.191 192.608 123.384ZM185.79 120.466L183.382 117.544C182.895 118.483 182.488 119.537 182.195 120.674C182.135 120.907 182.08 121.14 182.032 121.371L185.359 121.689C185.369 121.645 185.38 121.602 185.391 121.558C185.493 121.166 185.629 120.799 185.79 120.466ZM192.829 122.402C193.135 120.798 193.165 119.255 192.956 117.902L189.595 120.688C189.64 121.121 189.625 121.596 189.544 122.088L192.829 122.402ZM185.279 122.093C185.182 122.683 185.182 123.248 185.266 123.744L181.911 126.526C181.641 125.12 181.64 123.484 181.952 121.775L185.279 122.093ZM182.008 126.978L185.37 124.191C185.535 124.738 185.819 125.163 186.2 125.387L184.286 130.546C183.192 129.905 182.406 128.622 182.008 126.978ZM192.874 117.437L189.519 120.219C189.413 119.753 189.23 119.358 188.978 119.076L190.935 113.8C191.885 114.557 192.553 115.846 192.874 117.437Z" fill="#4C4C4C"/>
</g>
<path fill-rule="evenodd" clip-rule="evenodd" d="M185.736 128.006C186.946 126.126 187.946 123.852 188.598 121.324C189.214 118.94 189.449 116.603 189.35 114.471L191.055 108.088L186.94 106.962C186.116 105.943 185.099 105.232 183.916 104.924C179.303 103.723 173.919 109.119 171.891 116.976C169.954 124.481 171.78 131.517 175.969 133.178L175.83 133.694L183.474 136.477L185.736 128.006Z" fill="black"/>
<path d="M183.587 136.499C188.186 137.696 193.551 132.322 195.571 124.497C197.591 116.671 195.5 109.357 190.901 108.16C186.302 106.964 180.937 112.337 178.917 120.163C176.897 127.988 178.988 135.302 183.587 136.499Z" fill="#222222"/>
<g filter="url(#filter7_d_1_2035)">
<g filter="url(#filter8_d_1_2035)">
<path d="M184.81 132.624C188.074 133.4 191.882 129.414 193.316 123.721C194.751 118.027 193.268 112.781 190.005 112.005C186.742 111.228 182.934 115.214 181.499 120.908C180.065 126.602 181.547 131.847 184.81 132.624Z" fill="url(#paint3_linear_1_2035)"/>
</g>
<g filter="url(#filter9_dd_1_2035)">
<path fill-rule="evenodd" clip-rule="evenodd" d="M191.764 124.02C190.759 127.351 188.655 129.758 186.626 129.995L187.518 125.978C188.28 125.676 189.017 124.799 189.473 123.621L191.764 124.02ZM192.077 122.785C192.832 119.094 191.941 115.769 189.992 114.84L189.1 118.856C189.798 119.481 190.096 120.862 189.818 122.392L192.077 122.785ZM185.467 121.633C185.917 119.983 186.914 118.754 187.902 118.538L188.78 114.586C186.545 114.65 184.161 117.43 183.212 121.24L185.467 121.633ZM185.25 122.885L182.962 122.486C182.419 126.038 183.41 129.123 185.389 129.852L186.266 125.901C185.536 125.452 185.147 124.276 185.25 122.885Z" fill="#A9A8A8"/>
</g>
</g>
<g filter="url(#filter10_dd_1_2035)">
<path d="M45.2444 147.079C44.1085 144.794 44.4222 142.773 44.3911 140.944L44.4553 136.28C44.5079 132.575 44.5157 129.401 44.5684 128.185C44.621 126.969 43.3292 123.433 49.8661 117.006C55.737 111.234 68.5539 104.624 71.7354 103.819C74.917 103.015 88.6048 83.9231 93.6478 80.2217C108.71 69.1668 146.653 58.8716 156 59.0015C161.417 58.8472 183.9 70.4268 186.402 72.0206C199.344 80.2616 190.567 76.894 200.041 89.2826C200.642 89.921 201.022 93.0915 200.914 94.9037C200.904 95.0835 200.925 95.2634 200.988 95.4323C201.24 96.1156 201.641 97.1641 201.683 97.3694C201.979 98.8222 200.928 106.003 200.909 107.402C200.886 109.037 201.169 112.007 200.822 113.654C200.475 115.301 196.264 119.189 196.231 118.69C196.256 116.855 196.139 116.525 195.697 113.583C194.495 108.989 192.323 106.932 190.577 106.539C186.924 105.718 183.555 107.18 180.845 111.77C175.892 120.165 177.499 125.65 177.034 129.395C176.988 129.767 176.744 130.079 176.408 130.248L132.291 152.378C131.394 152.828 130.467 152.076 130.541 151.074C130.552 150.915 130.567 150.694 130.59 150.353C130.733 148.31 130.841 138.688 124.914 136.549C119.693 134.665 112.928 141.183 109.719 146.5C107.146 150.761 105.054 159.338 104.498 164.345C104.45 164.768 104.2 165.14 103.819 165.329C100.666 166.893 91.9087 170.924 79.0659 166.692C51.8878 157.738 46.3784 149.359 45.2444 147.079Z" fill="url(#paint4_linear_1_2035)"/>
</g>
<mask id="mask0_1_2035" style="mask-type:alpha" maskUnits="userSpaceOnUse" x="44" y="59" width="158" height="110">
<path d="M45.2444 147.079C44.1085 144.794 44.4222 142.773 44.3911 140.944L44.4553 136.28C44.5079 132.575 44.5157 129.401 44.5684 128.185C44.621 126.969 43.3292 123.433 49.8661 117.006C55.737 111.234 68.5539 104.624 71.7354 103.819C74.917 103.015 88.6048 83.9231 93.6478 80.2217C108.71 69.1668 146.653 58.8716 156 59.0015C161.417 58.8472 183.9 70.4268 186.402 72.0206C199.344 80.2616 190.567 76.894 200.041 89.2826C200.642 89.921 201.022 93.0915 200.914 94.9037C200.904 95.0835 200.925 95.2634 200.988 95.4323C201.24 96.1156 201.641 97.1641 201.683 97.3694C201.979 98.8222 200.928 106.003 200.909 107.402C200.886 109.037 201.169 112.007 200.822 113.654C200.475 115.301 196.264 119.189 196.231 118.69C196.197 118.19 195.967 115.379 196.106 113.447C196.152 110.083 193.384 107.171 190.577 106.539C186.924 105.718 183.559 106.839 180.85 111.43C175.446 120.587 178.213 125.421 177.873 129.096C177.839 129.471 177.591 129.784 177.255 129.952L132.395 152.332C131.479 152.789 130.545 151.996 130.617 150.974C130.629 150.807 130.643 150.589 130.665 150.281C130.807 148.238 130.841 138.688 124.914 136.549C119.693 134.665 112.928 141.183 109.719 146.5C107.146 150.761 105.054 159.338 104.498 164.345C104.45 164.768 104.2 165.14 103.819 165.329C100.666 166.893 91.9087 170.924 79.0659 166.692C51.8878 157.738 46.3784 149.359 45.2444 147.079Z" fill="url(#paint5_linear_1_2035)"/>
</mask>
<g mask="url(#mask0_1_2035)">
<g filter="url(#filter11_ddd_1_2035)">
<path d="M117.924 119.435C122.393 116.08 122.092 111.786 129.034 99.6397C129.449 98.9143 129.151 97.9832 128.387 97.6463L93.7944 82.4084C93.2955 82.1886 92.6544 82.0999 92.2392 82.4532C91.1616 83.3697 88.5072 86.1053 81.9693 94.0265C77.8368 99.0336 77.0469 100.286 73.9828 103.307C73.6175 103.667 74.3357 104.644 75.88 105.953C80.8032 110.126 110.431 125.058 117.924 119.435Z" fill="url(#paint6_linear_1_2035)"/>
</g>
<g filter="url(#filter12_dd_1_2035)">
<path d="M160.087 84.2303C169.822 79.6097 172.485 79.0715 179.218 81.7446C182.621 83.096 186.835 84.5912 187.406 86.9369C187.978 89.2826 177.96 94.7194 175.03 96.2879C173.598 97.0544 122.508 123.187 123.603 120.078C124.946 116.268 132.24 101.026 134.923 97.181C136.65 94.7062 150.351 88.851 160.087 84.2303Z" fill="url(#paint7_linear_1_2035)"/>
</g>
<g filter="url(#filter13_f_1_2035)">
<path d="M105.008 138.986C117.483 133.397 124.549 126.261 132.109 119.754C109.779 126.038 63.0329 139.818 63.7491 140.767C64.6444 141.954 67.968 143.392 79.0658 144.296C89.9917 145.185 103.579 139.625 105.008 138.986Z" fill="url(#paint8_linear_1_2035)" fill-opacity="0.21"/>
</g>
<g filter="url(#filter14_f_1_2035)">
<path d="M57.5257 110.821C58.2381 110.252 67.2155 101.205 73.9056 96.7312C68.2798 107.342 55.4692 130.399 54.3093 130.266C52.8597 130.101 46.2341 128.765 44.3402 124.219C42.4776 119.743 56.6351 111.533 57.5257 110.821Z" fill="url(#paint9_linear_1_2035)" fill-opacity="0.13"/>
</g>
<g filter="url(#filter15_dd_1_2035)">
<path d="M148.249 116.465C148.251 116.281 148.358 116.115 148.525 116.036L152.707 114.074C153.027 113.924 153.393 114.16 153.389 114.514L153.38 115.116C153.378 115.3 153.27 115.467 153.103 115.545L148.921 117.499C148.601 117.648 148.235 117.412 148.24 117.058L148.249 116.465Z" fill="#323232"/>
</g>
<g filter="url(#filter16_dd_1_2035)">
<path d="M172.114 106.328C172.116 106.144 172.224 105.978 172.39 105.9L176.573 103.937C176.893 103.787 177.259 104.023 177.254 104.377L177.245 104.979C177.243 105.163 177.135 105.33 176.969 105.408L172.786 107.362C172.466 107.512 172.101 107.275 172.106 106.922L172.114 106.328Z" fill="#323232"/>
</g>
<path d="M89 113.177L115.73 92C118.954 92.921 126.246 96.4018 127.642 96.9484C129.45 97.6564 129.365 98.7016 129.365 98.7016C129.357 99.2502 129.428 98.8672 128.836 99.9462C127.853 101.737 127.065 103.337 124.936 107.953C121.28 115.883 120.497 117.881 117.44 119.658C115.137 120.996 110.339 121.196 104.551 119.197C99.3776 117.41 93.4439 115.254 89 113.177Z" fill="#C4C4C4" fill-opacity="0.2"/>
<g opacity="0.17" filter="url(#filter17_f_1_2035)">
<path d="M50.6782 122.77C58.2902 128.967 75.2938 137.911 82.9214 139.345" stroke="url(#paint10_linear_1_2035)" stroke-width="54.0145" stroke-linecap="round" stroke-linejoin="round"/>
</g>
<g filter="url(#filter18_dddd_1_2035)">
<path d="M47.9173 126.171C46.4502 124.13 46.8866 122.519 47.1419 119.985C47.1497 119.916 47.1672 119.842 47.1886 119.776C47.8647 117.783 44.9772 121.903 44.6401 124.778C44.5291 125.73 44.5836 126.213 44.6615 127.094C44.6966 127.497 46.0079 130.177 45.8774 130.706C45.7468 131.235 45.8325 135.232 45.8072 135.785C45.7799 136.337 47.6465 139.93 53.6533 143.98C58.6428 147.344 65.8421 149.607 66.5817 149.723C67.3214 149.841 68.0822 147.364 68.6221 147.234C70.0351 146.895 74.1729 148.48 75.7202 148.892C77.5256 149.373 81.7384 150.482 86.3667 149.953C92.0913 149.299 92.9747 148.661 98.2678 145.874C101.621 144.108 104.074 140.698 105.104 138.617C105.384 138.053 104.88 137.541 104.281 137.731C100.618 138.887 93.0649 141.474 84.5675 142.225C71.9383 143.342 62.0605 137.21 60.6453 136.329C54.6968 132.624 51.5646 131.241 47.9173 126.171Z" fill="#272727"/>
</g>
<mask id="mask1_1_2035" style="mask-type:alpha" maskUnits="userSpaceOnUse" x="43" y="120" width="63" height="31">
<path d="M47.912 126.147C46.743 124.518 46.7079 122.639 47.0294 120.997C47.2048 120.109 46.3377 119.62 45.8604 120.397C44.6835 122.315 44.173 123.953 44.021 124.857C43.908 125.809 43.9236 126.415 43.9996 127.295C44.0347 127.699 46.0532 130.011 45.9227 130.539C45.7922 131.068 45.8701 134.34 45.8545 135.503C45.837 136.666 47.6315 139.906 53.6361 143.959C58.6232 147.326 65.8212 149.593 66.5608 149.71C67.3003 149.828 68.0629 147.352 68.603 147.222C70.0162 146.883 74.153 148.472 75.6999 148.885C77.5051 149.366 81.7171 150.478 86.3458 149.952C92.071 149.301 92.955 148.664 98.2498 145.88C101.614 144.111 104.073 140.689 105.1 138.61C105.377 138.049 104.879 137.548 104.279 137.737C100.62 138.889 93.0584 141.476 84.5519 142.223C71.9217 143.332 62.0477 137.195 60.6334 136.312C54.6872 132.604 51.5558 131.219 47.912 126.147Z" fill="#272727"/>
</mask>
<g mask="url(#mask1_1_2035)">
<g filter="url(#filter19_d_1_2035)">
<path d="M96.1289 139.293L79.1577 139.313C79.1565 139.316 79.1553 139.319 79.1542 139.322C79.1052 139.458 79.0425 139.655 78.9899 139.895C78.8839 140.377 78.8214 141.02 78.9776 141.688C79.1321 142.349 79.5037 143.048 80.2909 143.655C81.0837 144.266 82.3147 144.795 84.2052 145.076C85.3285 145.242 86.8849 145.258 88.4882 144.977C90.0923 144.696 91.7195 144.121 93.0044 143.126C93.6992 142.587 94.5579 141.517 95.2584 140.551C95.6046 140.073 95.9054 139.63 96.1195 139.307C96.1227 139.303 96.1258 139.298 96.1289 139.293Z" stroke="white" stroke-opacity="0.9" stroke-width="2.27304"/>
</g>
<g filter="url(#filter20_d_1_2035)">
<path d="M47.0964 120.851C47.0944 120.853 47.0925 120.856 47.0925 120.858C46.9308 121.132 46.7301 121.527 46.5703 122.01C46.2488 122.975 46.0891 124.277 46.7145 125.672C46.8918 126.069 47.149 126.335 47.412 126.446C47.6575 126.549 47.9537 126.539 48.2927 126.29C48.5285 126.118 48.848 126.052 49.1403 126.028C49.4442 126.001 49.7774 126.014 50.0775 126.042C50.2041 126.053 50.3288 126.067 50.4457 126.082L47.0964 120.851Z" stroke="white" stroke-opacity="0.9" stroke-width="2.27304"/>
</g>
</g>
</g>
<g filter="url(#filter21_f_1_2035)">
<path d="M128.392 131.983L174.845 110.816C175.275 110.621 175.726 111.096 175.535 111.528C173.366 116.424 173.628 121.613 173.718 124.129C173.724 124.321 173.618 124.497 173.445 124.583L131.826 145.154C131.497 145.316 131.111 145.072 131.109 144.705C131.063 138.967 129.666 134.787 128.24 133.132C127.962 132.808 128.003 132.16 128.392 131.983Z" fill="url(#paint11_linear_1_2035)" fill-opacity="0.12"/>
</g>
<defs>
<filter id="filter0_f_1_2035" x="30.4484" y="91.1193" width="196.806" height="99.4323" filterUnits="userSpaceOnUse" color-interpolation-filters="sRGB">
<feFlood flood-opacity="0" result="BackgroundImageFix"/>
<feBlend mode="normal" in="SourceGraphic" in2="BackgroundImageFix" result="shape"/>
<feGaussianBlur stdDeviation="5.77581" result="effect1_foregroundBlur_1_2035"/>
</filter>
<filter id="filter1_d_1_2035" x="109.78" y="141.483" width="19.1112" height="25.8636" filterUnits="userSpaceOnUse" color-interpolation-filters="sRGB">
<feFlood flood-opacity="0" result="BackgroundImageFix"/>
<feColorMatrix in="SourceAlpha" type="matrix" values="0 0 0 0 0 0 0 0 0 0 0 0 0 0 0 0 0 0 127 0" result="hardAlpha"/>
<feOffset/>
<feGaussianBlur stdDeviation="0.409201"/>
<feComposite in2="hardAlpha" operator="out"/>
<feColorMatrix type="matrix" values="0 0 0 0 0 0 0 0 0 0 0 0 0 0 0 0 0 0 0.25 0"/>
<feBlend mode="normal" in2="BackgroundImageFix" result="effect1_dropShadow_1_2035"/>
<feBlend mode="normal" in="SourceGraphic" in2="effect1_dropShadow_1_2035" result="shape"/>
</filter>
<filter id="filter2_dd_1_2035" x="107.171" y="143.53" width="19.9212" height="25.0435" filterUnits="userSpaceOnUse" color-interpolation-filters="sRGB">
<feFlood flood-opacity="0" result="BackgroundImageFix"/>
<feColorMatrix in="SourceAlpha" type="matrix" values="0 0 0 0 0 0 0 0 0 0 0 0 0 0 0 0 0 0 127 0" result="hardAlpha"/>
<feOffset dy="0.32736"/>
<feGaussianBlur stdDeviation="0.24552"/>
<feColorMatrix type="matrix" values="0 0 0 0 1 0 0 0 0 1 0 0 0 0 1 0 0 0 0.41 0"/>
<feBlend mode="normal" in2="BackgroundImageFix" result="effect1_dropShadow_1_2035"/>
<feColorMatrix in="SourceAlpha" type="matrix" values="0 0 0 0 0 0 0 0 0 0 0 0 0 0 0 0 0 0 127 0" result="hardAlpha"/>
<feOffset dx="-2.4552" dy="1.63681"/>
<feGaussianBlur stdDeviation="1.2276"/>
<feComposite in2="hardAlpha" operator="out"/>
<feColorMatrix type="matrix" values="0 0 0 0 0 0 0 0 0 0 0 0 0 0 0 0 0 0 0.25 0"/>
<feBlend mode="normal" in2="effect1_dropShadow_1_2035" result="effect2_dropShadow_1_2035"/>
<feBlend mode="normal" in="SourceGraphic" in2="effect2_dropShadow_1_2035" result="shape"/>
</filter>
<filter id="filter3_d_1_2035" x="110.054" y="141.63" width="18.3934" height="25.5656" filterUnits="userSpaceOnUse" color-interpolation-filters="sRGB">
<feFlood flood-opacity="0" result="BackgroundImageFix"/>
<feColorMatrix in="SourceAlpha" type="matrix" values="0 0 0 0 0 0 0 0 0 0 0 0 0 0 0 0 0 0 127 0" result="hardAlpha"/>
<feOffset/>
<feGaussianBlur stdDeviation="0.520238"/>
<feComposite in2="hardAlpha" operator="out"/>
<feColorMatrix type="matrix" values="0 0 0 0 0 0 0 0 0 0 0 0 0 0 0 0 0 0 0.25 0"/>
<feBlend mode="normal" in2="BackgroundImageFix" result="effect1_dropShadow_1_2035"/>
<feBlend mode="normal" in="SourceGraphic" in2="effect1_dropShadow_1_2035" result="shape"/>
</filter>
<filter id="filter4_dd_1_2035" x="110.553" y="145.269" width="15.1805" height="20.0461" filterUnits="userSpaceOnUse" color-interpolation-filters="sRGB">
<feFlood flood-opacity="0" result="BackgroundImageFix"/>
<feColorMatrix in="SourceAlpha" type="matrix" values="0 0 0 0 0 0 0 0 0 0 0 0 0 0 0 0 0 0 127 0" result="hardAlpha"/>
<feOffset dy="0.354846"/>
<feGaussianBlur stdDeviation="0.221779"/>
<feColorMatrix type="matrix" values="0 0 0 0 1 0 0 0 0 1 0 0 0 0 1 0 0 0 0.59 0"/>
<feBlend mode="normal" in2="BackgroundImageFix" result="effect1_dropShadow_1_2035"/>
<feColorMatrix in="SourceAlpha" type="matrix" values="0 0 0 0 0 0 0 0 0 0 0 0 0 0 0 0 0 0 127 0" result="hardAlpha"/>
<feOffset dx="-1.33068" dy="0.887115"/>
<feGaussianBlur stdDeviation="0.665336"/>
<feComposite in2="hardAlpha" operator="out"/>
<feColorMatrix type="matrix" values="0 0 0 0 0 0 0 0 0 0 0 0 0 0 0 0 0 0 0.25 0"/>
<feBlend mode="normal" in2="effect1_dropShadow_1_2035" result="effect2_dropShadow_1_2035"/>
<feBlend mode="normal" in="SourceGraphic" in2="effect2_dropShadow_1_2035" result="shape"/>
</filter>
<filter id="filter5_d_1_2035" x="179.85" y="110.542" width="15.0901" height="22.974" filterUnits="userSpaceOnUse" color-interpolation-filters="sRGB">
<feFlood flood-opacity="0" result="BackgroundImageFix"/>
<feColorMatrix in="SourceAlpha" type="matrix" values="0 0 0 0 0 0 0 0 0 0 0 0 0 0 0 0 0 0 127 0" result="hardAlpha"/>
<feOffset/>
<feGaussianBlur stdDeviation="0.349999"/>
<feComposite in2="hardAlpha" operator="out"/>
<feColorMatrix type="matrix" values="0 0 0 0 0 0 0 0 0 0 0 0 0 0 0 0 0 0 0.25 0"/>
<feBlend mode="normal" in2="BackgroundImageFix" result="effect1_dropShadow_1_2035"/>
<feBlend mode="normal" in="SourceGraphic" in2="effect1_dropShadow_1_2035" result="shape"/>
</filter>
<filter id="filter6_dd_1_2035" x="177.513" y="112.365" width="15.9969" height="22.1285" filterUnits="userSpaceOnUse" color-interpolation-filters="sRGB">
<feFlood flood-opacity="0" result="BackgroundImageFix"/>
<feColorMatrix in="SourceAlpha" type="matrix" values="0 0 0 0 0 0 0 0 0 0 0 0 0 0 0 0 0 0 127 0" result="hardAlpha"/>
<feOffset dy="0.279999"/>
<feGaussianBlur stdDeviation="0.209999"/>
<feColorMatrix type="matrix" values="0 0 0 0 1 0 0 0 0 1 0 0 0 0 1 0 0 0 0.41 0"/>
<feBlend mode="normal" in2="BackgroundImageFix" result="effect1_dropShadow_1_2035"/>
<feColorMatrix in="SourceAlpha" type="matrix" values="0 0 0 0 0 0 0 0 0 0 0 0 0 0 0 0 0 0 127 0" result="hardAlpha"/>
<feOffset dx="-2.09999" dy="1.39999"/>
<feGaussianBlur stdDeviation="1.05"/>
<feComposite in2="hardAlpha" operator="out"/>
<feColorMatrix type="matrix" values="0 0 0 0 0 0 0 0 0 0 0 0 0 0 0 0 0 0 0.25 0"/>
<feBlend mode="normal" in2="effect1_dropShadow_1_2035" result="effect2_dropShadow_1_2035"/>
<feBlend mode="normal" in="SourceGraphic" in2="effect2_dropShadow_1_2035" result="shape"/>
</filter>
<filter id="filter7_d_1_2035" x="180.329" y="111.286" width="14.1566" height="22.0572" filterUnits="userSpaceOnUse" color-interpolation-filters="sRGB">
<feFlood flood-opacity="0" result="BackgroundImageFix"/>
<feColorMatrix in="SourceAlpha" type="matrix" values="0 0 0 0 0 0 0 0 0 0 0 0 0 0 0 0 0 0 127 0" result="hardAlpha"/>
<feOffset/>
<feGaussianBlur stdDeviation="0.311181"/>
<feComposite in2="hardAlpha" operator="out"/>
<feColorMatrix type="matrix" values="0 0 0 0 0 0 0 0 0 0 0 0 0 0 0 0 0 0 0.25 0"/>
<feBlend mode="normal" in2="BackgroundImageFix" result="effect1_dropShadow_1_2035"/>
<feBlend mode="normal" in="SourceGraphic" in2="effect1_dropShadow_1_2035" result="shape"/>
</filter>
<filter id="filter8_d_1_2035" x="179.874" y="110.83" width="15.0672" height="22.9678" filterUnits="userSpaceOnUse" color-interpolation-filters="sRGB">
<feFlood flood-opacity="0" result="BackgroundImageFix"/>
<feColorMatrix in="SourceAlpha" type="matrix" values="0 0 0 0 0 0 0 0 0 0 0 0 0 0 0 0 0 0 127 0" result="hardAlpha"/>
<feOffset/>
<feGaussianBlur stdDeviation="0.538829"/>
<feComposite in2="hardAlpha" operator="out"/>
<feColorMatrix type="matrix" values="0 0 0 0 0 0 0 0 0 0 0 0 0 0 0 0 0 0 0.25 0"/>
<feBlend mode="normal" in2="BackgroundImageFix" result="effect1_dropShadow_1_2035"/>
<feBlend mode="normal" in="SourceGraphic" in2="effect1_dropShadow_1_2035" result="shape"/>
</filter>
<filter id="filter9_dd_1_2035" x="180.058" y="114.127" width="12.7455" height="18.1651" filterUnits="userSpaceOnUse" color-interpolation-filters="sRGB">
<feFlood flood-opacity="0" result="BackgroundImageFix"/>
<feColorMatrix in="SourceAlpha" type="matrix" values="0 0 0 0 0 0 0 0 0 0 0 0 0 0 0 0 0 0 127 0" result="hardAlpha"/>
<feOffset dy="0.367526"/>
<feGaussianBlur stdDeviation="0.229704"/>
<feColorMatrix type="matrix" values="0 0 0 0 1 0 0 0 0 1 0 0 0 0 1 0 0 0 0.59 0"/>
<feBlend mode="normal" in2="BackgroundImageFix" result="effect1_dropShadow_1_2035"/>
<feColorMatrix in="SourceAlpha" type="matrix" values="0 0 0 0 0 0 0 0 0 0 0 0 0 0 0 0 0 0 127 0" result="hardAlpha"/>
<feOffset dx="-1.37822" dy="0.918815"/>
<feGaussianBlur stdDeviation="0.689111"/>
<feComposite in2="hardAlpha" operator="out"/>
<feColorMatrix type="matrix" values="0 0 0 0 0 0 0 0 0 0 0 0 0 0 0 0 0 0 0.25 0"/>
<feBlend mode="normal" in2="effect1_dropShadow_1_2035" result="effect2_dropShadow_1_2035"/>
<feBlend mode="normal" in="SourceGraphic" in2="effect2_dropShadow_1_2035" result="shape"/>
</filter>
<filter id="filter10_dd_1_2035" x="0.673701" y="0.733313" width="257.248" height="209.454" filterUnits="userSpaceOnUse" color-interpolation-filters="sRGB">
<feFlood flood-opacity="0" result="BackgroundImageFix"/>
<feColorMatrix in="SourceAlpha" type="matrix" values="0 0 0 0 0 0 0 0 0 0 0 0 0 0 0 0 0 0 127 0" result="hardAlpha"/>
<feOffset dx="6.24286" dy="-8.32379"/>
<feGaussianBlur stdDeviation="24.9714"/>
<feComposite in2="hardAlpha" operator="out"/>
<feColorMatrix type="matrix" values="0 0 0 0 0 0 0 0 0 0 0 0 0 0 0 0 0 0 0.07 0"/>
<feBlend mode="normal" in2="BackgroundImageFix" result="effect1_dropShadow_1_2035"/>
<feColorMatrix in="SourceAlpha" type="matrix" values="0 0 0 0 0 0 0 0 0 0 0 0 0 0 0 0 0 0 127 0" result="hardAlpha"/>
<feOffset dy="-1.04048"/>
<feGaussianBlur stdDeviation="2.08095"/>
<feComposite in2="hardAlpha" operator="out"/>
<feColorMatrix type="matrix" values="0 0 0 0 0 0 0 0 0 0 0 0 0 0 0 0 0 0 0.09 0"/>
<feBlend mode="normal" in2="effect1_dropShadow_1_2035" result="effect2_dropShadow_1_2035"/>
<feBlend mode="normal" in="SourceGraphic" in2="effect2_dropShadow_1_2035" result="shape"/>
</filter>
<filter id="filter11_ddd_1_2035" x="70.6155" y="79.7604" width="60.2429" height="45.8348" filterUnits="userSpaceOnUse" color-interpolation-filters="sRGB">
<feFlood flood-opacity="0" result="BackgroundImageFix"/>
<feColorMatrix in="SourceAlpha" type="matrix" values="0 0 0 0 0 0 0 0 0 0 0 0 0 0 0 0 0 0 127 0" result="hardAlpha"/>
<feOffset dx="-1.63681" dy="0.818403"/>
<feGaussianBlur stdDeviation="0.818403"/>
<feColorMatrix type="matrix" values="0 0 0 0 1 0 0 0 0 1 0 0 0 0 1 0 0 0 0.28 0"/>
<feBlend mode="normal" in2="BackgroundImageFix" result="effect1_dropShadow_1_2035"/>
<feColorMatrix in="SourceAlpha" type="matrix" values="0 0 0 0 0 0 0 0 0 0 0 0 0 0 0 0 0 0 127 0" result="hardAlpha"/>
<feOffset dy="-0.818403"/>
<feGaussianBlur stdDeviation="0.818403"/>
<feColorMatrix type="matrix" values="0 0 0 0 1 0 0 0 0 1 0 0 0 0 1 0 0 0 0.56 0"/>
<feBlend mode="normal" in2="effect1_dropShadow_1_2035" result="effect2_dropShadow_1_2035"/>
<feColorMatrix in="SourceAlpha" type="matrix" values="0 0 0 0 0 0 0 0 0 0 0 0 0 0 0 0 0 0 127 0" result="hardAlpha"/>
<feOffset dx="-0.818403" dy="2.4552"/>
<feGaussianBlur stdDeviation="1.2276"/>
<feComposite in2="hardAlpha" operator="out"/>
<feColorMatrix type="matrix" values="0 0 0 0 0 0 0 0 0 0 0 0 0 0 0 0 0 0 0.75 0"/>
<feBlend mode="normal" in2="effect2_dropShadow_1_2035" result="effect3_dropShadow_1_2035"/>
<feBlend mode="normal" in="SourceGraphic" in2="effect3_dropShadow_1_2035" result="shape"/>
</filter>
<filter id="filter12_dd_1_2035" x="115.552" y="79.0245" width="72.4808" height="48.2353" filterUnits="userSpaceOnUse" color-interpolation-filters="sRGB">
<feFlood flood-opacity="0" result="BackgroundImageFix"/>
<feColorMatrix in="SourceAlpha" type="matrix" values="0 0 0 0 0 0 0 0 0 0 0 0 0 0 0 0 0 0 127 0" result="hardAlpha"/>
<feOffset dy="0.602527"/>
<feGaussianBlur stdDeviation="0.301264"/>
<feColorMatrix type="matrix" values="0 0 0 0 0.925374 0 0 0 0 0.925374 0 0 0 0 0.925374 0 0 0 0.37 0"/>
<feBlend mode="normal" in2="BackgroundImageFix" result="effect1_dropShadow_1_2035"/>
<feColorMatrix in="SourceAlpha" type="matrix" values="0 0 0 0 0 0 0 0 0 0 0 0 0 0 0 0 0 0 127 0" result="hardAlpha"/>
<feOffset dx="-4.01706" dy="2.90775"/>
<feGaussianBlur stdDeviation="2.00853"/>
<feComposite in2="hardAlpha" operator="out"/>
<feColorMatrix type="matrix" values="0 0 0 0 0 0 0 0 0 0 0 0 0 0 0 0 0 0 0.63 0"/>
<feBlend mode="normal" in2="effect1_dropShadow_1_2035" result="effect2_dropShadow_1_2035"/>
<feBlend mode="normal" in="SourceGraphic" in2="effect2_dropShadow_1_2035" result="shape"/>
</filter>
<filter id="filter13_f_1_2035" x="52.2834" y="108.297" width="91.2828" height="47.5525" filterUnits="userSpaceOnUse" color-interpolation-filters="sRGB">
<feFlood flood-opacity="0" result="BackgroundImageFix"/>
<feBlend mode="normal" in="SourceGraphic" in2="BackgroundImageFix" result="shape"/>
<feGaussianBlur stdDeviation="5.72882" result="effect1_foregroundBlur_1_2035"/>
</filter>
<filter id="filter14_f_1_2035" x="36.8059" y="89.3656" width="44.4653" height="48.2668" filterUnits="userSpaceOnUse" color-interpolation-filters="sRGB">
<feFlood flood-opacity="0" result="BackgroundImageFix"/>
<feBlend mode="normal" in="SourceGraphic" in2="BackgroundImageFix" result="shape"/>
<feGaussianBlur stdDeviation="3.6828" result="effect1_foregroundBlur_1_2035"/>
</filter>
<filter id="filter15_dd_1_2035" x="146.211" y="113.216" width="9.20748" height="8.38727" filterUnits="userSpaceOnUse" color-interpolation-filters="sRGB">
<feFlood flood-opacity="0" result="BackgroundImageFix"/>
<feColorMatrix in="SourceAlpha" type="matrix" values="0 0 0 0 0 0 0 0 0 0 0 0 0 0 0 0 0 0 127 0" result="hardAlpha"/>
<feOffset dy="-0.405909"/>
<feGaussianBlur stdDeviation="0.202954"/>
<feColorMatrix type="matrix" values="0 0 0 0 0.78755 0 0 0 0 0.78755 0 0 0 0 0.78755 0 0 0 0.19 0"/>
<feBlend mode="normal" in2="BackgroundImageFix" result="effect1_dropShadow_1_2035"/>
<feColorMatrix in="SourceAlpha" type="matrix" values="0 0 0 0 0 0 0 0 0 0 0 0 0 0 0 0 0 0 127 0" result="hardAlpha"/>
<feOffset dy="2.02954"/>
<feGaussianBlur stdDeviation="1.01478"/>
<feComposite in2="hardAlpha" operator="out"/>
<feColorMatrix type="matrix" values="0 0 0 0 0 0 0 0 0 0 0 0 0 0 0 0 0 0 0.74 0"/>
<feBlend mode="normal" in2="effect1_dropShadow_1_2035" result="effect2_dropShadow_1_2035"/>
<feBlend mode="normal" in="SourceGraphic" in2="effect2_dropShadow_1_2035" result="shape"/>
</filter>
<filter id="filter16_dd_1_2035" x="170.076" y="103.079" width="9.20748" height="8.38751" filterUnits="userSpaceOnUse" color-interpolation-filters="sRGB">
<feFlood flood-opacity="0" result="BackgroundImageFix"/>
<feColorMatrix in="SourceAlpha" type="matrix" values="0 0 0 0 0 0 0 0 0 0 0 0 0 0 0 0 0 0 127 0" result="hardAlpha"/>
<feOffset dy="-0.405909"/>
<feGaussianBlur stdDeviation="0.202954"/>
<feColorMatrix type="matrix" values="0 0 0 0 0.78755 0 0 0 0 0.78755 0 0 0 0 0.78755 0 0 0 0.19 0"/>
<feBlend mode="normal" in2="BackgroundImageFix" result="effect1_dropShadow_1_2035"/>
<feColorMatrix in="SourceAlpha" type="matrix" values="0 0 0 0 0 0 0 0 0 0 0 0 0 0 0 0 0 0 127 0" result="hardAlpha"/>
<feOffset dy="2.02954"/>
<feGaussianBlur stdDeviation="1.01478"/>
<feComposite in2="hardAlpha" operator="out"/>
<feColorMatrix type="matrix" values="0 0 0 0 0 0 0 0 0 0 0 0 0 0 0 0 0 0 0.74 0"/>
<feBlend mode="normal" in2="effect1_dropShadow_1_2035" result="effect2_dropShadow_1_2035"/>
<feBlend mode="normal" in="SourceGraphic" in2="effect2_dropShadow_1_2035" result="shape"/>
</filter>
<filter id="filter17_f_1_2035" x="19.578" y="91.67" width="94.4475" height="78.7795" filterUnits="userSpaceOnUse" color-interpolation-filters="sRGB">
<feFlood flood-opacity="0" result="BackgroundImageFix"/>
<feBlend mode="normal" in="SourceGraphic" in2="BackgroundImageFix" result="shape"/>
<feGaussianBlur stdDeviation="2.046" result="effect1_foregroundBlur_1_2035"/>
</filter>
<filter id="filter18_dddd_1_2035" x="31.2204" y="112.447" width="87.3199" height="57.5557" filterUnits="userSpaceOnUse" color-interpolation-filters="sRGB">
<feFlood flood-opacity="0" result="BackgroundImageFix"/>
<feColorMatrix in="SourceAlpha" type="matrix" values="0 0 0 0 0 0 0 0 0 0 0 0 0 0 0 0 0 0 127 0" result="hardAlpha"/>
<feOffset dy="0.713018"/>
<feGaussianBlur stdDeviation="0.475344"/>
<feColorMatrix type="matrix" values="0 0 0 0 0 0 0 0 0 0 0 0 0 0 0 0 0 0 0.57 0"/>
<feBlend mode="normal" in2="BackgroundImageFix" result="effect1_dropShadow_1_2035"/>
<feColorMatrix in="SourceAlpha" type="matrix" values="0 0 0 0 0 0 0 0 0 0 0 0 0 0 0 0 0 0 127 0" result="hardAlpha"/>
<feOffset dy="-0.475344"/>
<feGaussianBlur stdDeviation="0.475344"/>
<feColorMatrix type="matrix" values="0 0 0 0 0 0 0 0 0 0 0 0 0 0 0 0 0 0 1 0"/>
<feBlend mode="normal" in2="effect1_dropShadow_1_2035" result="effect2_dropShadow_1_2035"/>
<feColorMatrix in="SourceAlpha" type="matrix" values="0 0 0 0 0 0 0 0 0 0 0 0 0 0 0 0 0 0 127 0" result="hardAlpha"/>
<feOffset dy="6.55317"/>
<feGaussianBlur stdDeviation="6.6784"/>
<feComposite in2="hardAlpha" operator="out"/>
<feColorMatrix type="matrix" values="0 0 0 0 0 0 0 0 0 0 0 0 0 0 0 0 0 0 1 0"/>
<feBlend mode="normal" in2="effect2_dropShadow_1_2035" result="effect3_dropShadow_1_2035"/>
<feColorMatrix in="SourceAlpha" type="matrix" values="0 0 0 0 0 0 0 0 0 0 0 0 0 0 0 0 0 0 127 0" result="hardAlpha"/>
<feOffset dy="-0.714103"/>
<feGaussianBlur stdDeviation="0.714103"/>
<feComposite in2="hardAlpha" operator="out"/>
<feColorMatrix type="matrix" values="0 0 0 0 0 0 0 0 0 0 0 0 0 0 0 0 0 0 0.5 0"/>
<feBlend mode="normal" in2="effect3_dropShadow_1_2035" result="effect4_dropShadow_1_2035"/>
<feBlend mode="normal" in="SourceGraphic" in2="effect4_dropShadow_1_2035" result="shape"/>
</filter>
<filter id="filter19_d_1_2035" x="77.5634" y="138.154" width="22.3896" height="10.0603" filterUnits="userSpaceOnUse" color-interpolation-filters="sRGB">
<feFlood flood-opacity="0" result="BackgroundImageFix"/>
<feColorMatrix in="SourceAlpha" type="matrix" values="0 0 0 0 0 0 0 0 0 0 0 0 0 0 0 0 0 0 127 0" result="hardAlpha"/>
<feOffset dx="0.757677" dy="0.941178"/>
<feGaussianBlur stdDeviation="0.47059"/>
<feColorMatrix type="matrix" values="0 0 0 0 1 0 0 0 0 1 0 0 0 0 1 0 0 0 0.24 0"/>
<feBlend mode="normal" in2="BackgroundImageFix" result="effect1_dropShadow_1_2035"/>
<feBlend mode="normal" in="SourceGraphic" in2="effect1_dropShadow_1_2035" result="shape"/>
</filter>
<filter id="filter20_d_1_2035" x="44.9673" y="118.876" width="9.44956" height="10.6514" filterUnits="userSpaceOnUse" color-interpolation-filters="sRGB">
<feFlood flood-opacity="0" result="BackgroundImageFix"/>
<feColorMatrix in="SourceAlpha" type="matrix" values="0 0 0 0 0 0 0 0 0 0 0 0 0 0 0 0 0 0 127 0" result="hardAlpha"/>
<feOffset dx="0.757677" dy="0.941178"/>
<feGaussianBlur stdDeviation="0.47059"/>
<feColorMatrix type="matrix" values="0 0 0 0 1 0 0 0 0 1 0 0 0 0 1 0 0 0 0.24 0"/>
<feBlend mode="normal" in2="BackgroundImageFix" result="effect1_dropShadow_1_2035"/>
<feBlend mode="normal" in="SourceGraphic" in2="effect1_dropShadow_1_2035" result="shape"/>
</filter>
<filter id="filter21_f_1_2035" x="126.802" y="109.512" width="50.0367" height="36.9515" filterUnits="userSpaceOnUse" color-interpolation-filters="sRGB">
<feFlood flood-opacity="0" result="BackgroundImageFix"/>
<feBlend mode="normal" in="SourceGraphic" in2="BackgroundImageFix" result="shape"/>
<feGaussianBlur stdDeviation="0.629348" result="effect1_foregroundBlur_1_2035"/>
</filter>
<linearGradient id="paint0_linear_1_2035" x1="127.276" y1="179.772" x2="133.671" y2="168.15" gradientUnits="userSpaceOnUse">
<stop stop-color="#3F3F3F"/>
<stop offset="1" stop-color="#5C5C5C"/>
</linearGradient>
<linearGradient id="paint1_linear_1_2035" x1="126.644" y1="178.933" x2="132.935" y2="167.834" gradientUnits="userSpaceOnUse">
<stop stop-color="#AAAAAA"/>
<stop offset="1" stop-color="#C2C2C2"/>
</linearGradient>
<linearGradient id="paint2_linear_1_2035" x1="197.976" y1="142.139" x2="201.565" y2="131.374" gradientUnits="userSpaceOnUse">
<stop stop-color="#3F3F3F"/>
<stop offset="1" stop-color="#5C5C5C"/>
</linearGradient>
<linearGradient id="paint3_linear_1_2035" x1="197.383" y1="141.358" x2="200.653" y2="130.892" gradientUnits="userSpaceOnUse">
<stop stop-color="#AAAAAA"/>
<stop offset="1" stop-color="#C2C2C2"/>
</linearGradient>
<linearGradient id="paint4_linear_1_2035" x1="175.027" y1="124.012" x2="50.5636" y2="104.617" gradientUnits="userSpaceOnUse">
<stop stop-color="#CECBCB"/>
<stop offset="1" stop-color="white"/>
</linearGradient>
<linearGradient id="paint5_linear_1_2035" x1="104.898" y1="144.744" x2="144.547" y2="57.3224" gradientUnits="userSpaceOnUse">
<stop stop-color="#CECBCB"/>
<stop offset="1" stop-color="white"/>
</linearGradient>
<linearGradient id="paint6_linear_1_2035" x1="99.416" y1="54.1664" x2="142.065" y2="95.6603" gradientUnits="userSpaceOnUse">
<stop stop-color="#E8EAE9"/>
<stop offset="0.498386" stop-color="#707072"/>
<stop offset="1" stop-color="#2F3032"/>
</linearGradient>
<linearGradient id="paint7_linear_1_2035" x1="71.8489" y1="207.677" x2="97.4884" y2="75.4787" gradientUnits="userSpaceOnUse">
<stop stop-color="#E8EAE9"/>
<stop offset="0.498386" stop-color="#707072"/>
<stop offset="1" stop-color="#2F3032"/>
</linearGradient>
<linearGradient id="paint8_linear_1_2035" x1="99.9537" y1="146.12" x2="94.8083" y2="130.366" gradientUnits="userSpaceOnUse">
<stop stop-color="#ECEAEA"/>
<stop offset="1" stop-color="white" stop-opacity="0"/>
</linearGradient>
<linearGradient id="paint9_linear_1_2035" x1="39.3874" y1="117.341" x2="59.5295" y2="124.686" gradientUnits="userSpaceOnUse">
<stop stop-color="#ECEAEA"/>
<stop offset="1" stop-color="white" stop-opacity="0"/>
</linearGradient>
<linearGradient id="paint10_linear_1_2035" x1="66.1914" y1="138.941" x2="69.9053" y2="131.959" gradientUnits="userSpaceOnUse">
<stop stop-color="#4B4B4B"/>
<stop offset="0.899322" stop-opacity="0"/>
</linearGradient>
<linearGradient id="paint11_linear_1_2035" x1="158.411" y1="141.884" x2="148.089" y2="122.748" gradientUnits="userSpaceOnUse">
<stop stop-color="#040404"/>
<stop offset="1" stop-color="#3C3C3C" stop-opacity="0"/>
</linearGradient>
</defs>
</svg>
