<svg width="18" height="18" viewBox="0 0 18 18" fill="none" xmlns="http://www.w3.org/2000/svg">
<path d="M17 9C17 13.4183 13.4183 17 9 17C4.58172 17 1 13.4183 1 9C1 4.58172 4.58172 1 9 1C13.4183 1 17 4.58172 17 9Z" fill="white"/>
<path d="M9 9H8.4C8.4 9.25826 8.56526 9.48754 8.81026 9.56921L9 9ZM9.6 5C9.6 4.66863 9.33137 4.4 9 4.4C8.66863 4.4 8.4 4.66863 8.4 5H9.6ZM11.2103 10.3692C11.5246 10.474 11.8644 10.3041 11.9692 9.98974C12.074 9.67537 11.9041 9.33558 11.5897 9.23079L11.2103 10.3692ZM9.6 9V5H8.4V9H9.6ZM8.81026 9.56921L11.2103 10.3692L11.5897 9.23079L9.18974 8.43079L8.81026 9.56921ZM16.4 9C16.4 13.0869 13.0869 16.4 9 16.4V17.6C13.7496 17.6 17.6 13.7496 17.6 9H16.4ZM9 16.4C4.91309 16.4 1.6 13.0869 1.6 9H0.4C0.4 13.7496 4.25035 17.6 9 17.6V16.4ZM1.6 9C1.6 4.91309 4.91309 1.6 9 1.6V0.4C4.25035 0.4 0.4 4.25035 0.4 9H1.6ZM9 1.6C13.0869 1.6 16.4 4.91309 16.4 9H17.6C17.6 4.25035 13.7496 0.4 9 0.4V1.6Z" fill="#4F4F4F"/>
</svg>
