<svg width="190" height="130" viewBox="0 0 190 130" fill="none" xmlns="http://www.w3.org/2000/svg">
<path d="M158.259 51.1832H153.259H147.332H142.332V46.1832V46.1595V46.136V46.1124V46.0889V46.0654V46.042V46.0186V45.9952V45.9719V45.9486V45.9253V45.902V45.8788V45.8557V45.8325V45.8094V45.7864V45.7634V45.7404V45.7174V45.6945V45.6716V45.6487V45.6259V45.6031V45.5804V45.5577V45.535V45.5124V45.4897V45.4672V45.4446V45.4221V45.3997V45.3772V45.3549V45.3325V45.3102V45.2879V45.2656V45.2434V45.2212V45.1991V45.177V45.1549V45.1329V45.1109V45.0889V45.067V45.0451V45.0232V45.0014V44.9796V44.9579V44.9362V44.9145V44.8928V44.8712V44.8497V44.8281V44.8067V44.7852V44.7638V44.7424V44.721V44.6997V44.6785V44.6572V44.636V44.6148V44.5937V44.5726V44.5516V44.5306V44.5096V44.4886V44.4677V44.4469V44.426V44.4052V44.3845V44.3638V44.3431V44.3224V44.3018V44.2812V44.2607V44.2402V44.2197V44.1993V44.1789V44.1586V44.1383V44.118V44.0978V44.0776V44.0574V44.0373V44.0172V43.9972V43.9772V43.9572V43.9372V43.9174V43.8975V43.8777V43.8579V43.8382V43.8185V43.7988V43.7792V43.7596V43.74V43.7205V43.701V43.6816V43.6622V43.6428V43.6235V43.6042V43.585V43.5658V43.5466V43.5275V43.5084V43.4893V43.4703V43.4514V43.4324V43.4135V43.3947V43.3758V43.3571V43.3383V43.3196V43.301V43.2823V43.2638V43.2452V43.2267V43.2082V43.1898V43.1714V43.1531V43.1348V43.1165V43.0983V43.0801V43.0619V43.0438V43.0257V43.0154H132.574H127.574V38.0154C127.574 28.4494 125.163 24.808 123.843 23.5104C123.157 22.8355 122.551 22.5717 122.219 22.4642C122.096 22.4245 122.003 22.4041 121.95 22.3943H98.7517H93.7517V17.3943V10.3646V5.36456H98.7517H117.123V5H49.6329V5.36456H70.1149H75.1149V10.3646V17.3943V22.3943H70.1149V17.3943C70.1149 22.3943 70.1148 22.3943 70.1147 22.3943H70.1143H70.1135H70.1125H70.1112H70.1095H70.1076H70.1054H70.1029H70.1001H70.097H70.0937H70.09H70.086H70.0818H70.0773H70.0725H70.0674H70.062H70.0563H70.0504H70.0442H70.0376H70.0309H70.0238H70.0164H70.0088H70.0009H69.9927H69.9842H69.9755H69.9665H69.9572H69.9476H69.9378H69.9276H69.9173H69.9066H69.8957H69.8845H69.873H69.8613H69.8493H69.837H69.8244H69.8116H69.7986H69.7852H69.7716H69.7578H69.7436H69.7292H69.7146H69.6997H69.6845H69.6691H69.6534H69.6375H69.6213H69.6048H69.5881H69.5711H69.5539H69.5364H69.5187H69.5007H69.4825H69.464H69.4453H69.4263H69.407H69.3876H69.3678H69.3479H69.3276H69.3072H69.2865H69.2655H69.2443H69.2229H69.2012H69.1793H69.1571H69.1347H69.1121H69.0892H69.0661H69.0427H69.0191H68.9953H68.9712H68.9469H68.9224H68.8977H68.8727H68.8474H68.822H68.7963H68.7704H68.7442H68.7179H68.6913H68.6644H68.6374H68.6101H68.5826H68.5549H68.5269H68.4988H68.4704H68.4418H68.4129H68.3839H68.3546H68.3251H68.2954H68.2655H68.2353H68.205H68.1744H68.1436H68.1126H68.0814H68.05H68.0184H67.9865H67.9545H67.9222H67.8897H67.857H67.8242H67.7911H67.7578H67.7243H67.6906H67.6566H67.6225H67.5882H67.5537H67.519H67.484H67.4489H67.4136H67.3781H67.3424H67.3065H67.2704H67.2341H67.1976H67.1609H67.124H67.0869H67.0496H67.0122H66.9745H66.9367H66.8987H66.8604H66.822H66.7834H66.7447H66.7057H66.6665H66.6272H66.5877H66.548H66.5081H66.468H66.4278H66.3874H66.3468H66.306H66.265H66.2239H66.1826H66.1411H66.0994H66.0576H66.0155H65.9734H65.931H65.8885H65.8458H65.8029H65.7598H65.7166H65.6732H65.6297H65.586H65.5421H65.498H65.4538H65.4095H65.3649H65.3202H65.2753H65.2303H65.1851H65.1398H65.0943H65.0486H65.0028H64.9568H64.9107H64.8644H64.8179H64.7713H64.7246H64.6777H64.6306H64.5834H64.536H64.4885H64.4408H64.393H64.3451H64.2969H64.2487H64.2003H64.1517H64.103H64.0542H64.0052H63.9561H63.9068H63.8574H63.8079H63.7582H63.7084H63.6584H63.6083H63.5581H63.5077H63.4572H63.4065H63.3557H63.3048H63.2538H63.2026H63.1513H63.0998H63.0483H62.9966H62.9447H62.8928H62.8407H62.7885H62.7361H62.6837H62.6311H62.5784H62.5255H62.4726H62.4195H62.3663H62.3129H62.2595H62.2059H62.1523H62.0985H62.0445H61.9905H61.9364H61.8821H61.8277H61.7732H61.7186H61.6639H61.6091H61.5541H61.4991H61.4439H61.3887H61.3333H61.2778H61.2222H61.1665H61.1107H61.0548H60.9988H60.9427H60.8865H60.8302H60.7737H60.7172H60.6606H60.6039H60.5471H60.4902H60.4331H60.376H60.3188H60.2615H60.2041H60.1467H60.0891H60.0314H59.9737H59.9158H59.8579H59.7998H59.7417H59.6835H59.6252H59.5668H59.5084H59.4498H59.3912H59.3324H59.2736H59.2147H59.1558H59.0967H59.0376H58.9784H58.9191H58.8597H58.8003H58.7408H58.6812H58.6215H58.5617H58.5019H58.442H58.3821H58.322H58.2619H58.2017H58.1415H58.0812H58.0208H57.9603H57.8998H57.8392H57.7785H57.7178H57.657H57.5962H57.5353H57.4743H57.4132H57.3521H57.291H57.2298H57.1685H57.1072H57.0458H56.9843H56.9228H56.8612H56.7996H56.738H56.6762H56.6145H56.5526H56.4908H56.4288H56.3668H56.3048H56.2427H56.1806H56.1184H56.0562H55.994H55.9316H55.8693H55.8069H55.7445H55.682H55.6194H55.5569H55.4943H55.4316H55.369H55.3062H55.2435H55.1807H55.1178H55.055H54.9921H54.9291H54.8662H54.8032H54.7401H54.6771H54.614H54.5509H54.4877H54.4245H54.3613H54.2981H54.2348H54.1715H54.1082H54.0449H53.9815H53.9181H53.8547H53.7913H53.7278H53.6644H53.6009H53.5374H53.4739H53.4103H53.3468H53.2832H53.2196H53.156H53.0924H53.0287H52.9651H52.9014H52.8378H52.7741H52.7104H52.6467H52.583H52.5193H52.4556H52.3919H52.3281H52.2644H52.2007H52.1369H52.0732H52.0094H51.9457H51.8819H51.8182H51.7544H51.6907H51.6269H51.5632H51.4995H51.4357H51.372H51.3083H51.2445H51.1808H51.1171H51.0534H50.9898H50.9261H50.8624H50.7988H50.7351H50.6715H50.6079H50.5443H50.4807H50.4171H50.3535H50.29H50.2265H50.163H50.0995H50.036H49.9726H49.9091H49.8457H49.7824H49.719H49.6557H49.5924H49.5291H49.4658H49.4026H49.3394H49.2762H49.213H49.1499H49.0868H49.0238H48.9607H48.8977H48.8348H48.7718H48.7089H48.6461H48.5832H48.5204H48.4577H48.395H48.3493L35.5915 32.1487L34.247 33.1766H32.5545H22.4007V59.4504V64.4504H17.4007H10.3784H5.37839V59.4504V35.5463H5V98.1198H5.37839V73.2434V68.2434H10.3784H17.4007H22.4007V73.2434V100.482H32.5545H34.1576L35.4618 101.414L68.4625 125H68.4633H68.5273H68.5925H68.6588H68.7263H68.795H68.8647H68.9356H69.0077H69.0809H69.1552H69.2306H69.3071H69.3848H69.4635H69.5433H69.6243H69.7063H69.7894H69.8736H69.9588H70.0451H70.1325H70.221H70.3104H70.401H70.4926H70.5852H70.6788H70.7735H70.8692H70.9659H71.0636H71.1623H71.2621H71.3628H71.4645H71.5672H71.6709H71.7755H71.8811H71.9877H72.0953H72.2038H72.3132H72.4236H72.5349H72.6472H72.7604H72.8745H72.9896H73.1055H73.2224H73.3401H73.4588H73.5784H73.6988H73.8201H73.9423H74.0654H74.1894H74.3142H74.4398H74.5664H74.6937H74.8219H74.951H75.0809H75.2116H75.3431H75.4754H75.6086H75.7426H75.8773H76.0129H76.1492H76.2864H76.4243H76.563H76.7024H76.8427H76.9837H77.1254H77.2679H77.4111H77.5551H77.6998H77.8453H77.9915H78.1384H78.286H78.4343H78.5833H78.733H78.8834H79.0345H79.1863H79.3388H79.4919H79.6457H79.8002H79.9553H80.1111H80.2675H80.4246H80.5823H80.7406H80.8996H81.0592H81.2194H81.3802H81.5417H81.7037H81.8663H82.0295H82.1934H82.3577H82.5227H82.6882H82.8543H83.021H83.1882H83.356H83.5243H83.6932H83.8626H84.0325H84.2029H84.3739H84.5454H84.7174H84.8899H85.0629H85.2364H85.4104H85.5849H85.7598H85.9352H86.1111H86.2875H86.4643H86.6416H86.8193H86.9975H87.1761H87.3551H87.5346H87.7144H87.8948H88.0755H88.2566H88.4381H88.6201H88.8024H88.9851H89.1682H89.3516H89.5355H89.7197H89.9043H90.0892H90.2745H90.4601H90.646H90.8324H91.019H91.2059H91.3932H91.5808H91.7687H91.9569H92.1455H92.3343H92.5234H92.7128H92.9024H93.0924H93.2826H93.4731H93.6638H93.8548H94.046H94.2375H94.4292H94.6212H94.8134H95.0058H95.1984H95.3913H95.5843H95.7776H95.971H96.1647H96.3585H96.5525H96.7467H96.9411H97.1357H97.3304H97.5252H97.7202H97.9154H98.1107H98.3061H98.5017H98.6974H98.8932H99.0892H99.2852H99.4814H99.6776H99.874H100.07H100.267H100.464H100.66H100.857H101.054H101.251H101.448H101.645H101.842H102.039H102.236H102.433H102.63H102.827H103.025H103.222H103.419H103.616H103.813H104.011H104.208H104.405H104.602H104.799H104.996H105.193H105.39H105.587H105.784H105.981H106.178H106.374H106.571H106.767H106.964H107.16H107.356H107.552H107.748H107.944H108.14H108.336H108.531H108.727H108.922H109.117H109.312H109.507H109.702H109.896H110.09H110.285H110.479H110.672H110.866H111.059H111.253H111.446H111.638H111.831H112.023H112.215H112.407H112.599H112.79H112.982H113.172H113.363H113.554H113.744H113.934H114.123H114.312H114.501H114.69H114.879H115.067H115.255H115.442H115.629H115.816H116.003H116.189H116.375H116.56H116.745H116.93H117.115H117.299H117.483H117.666H117.849H118.032H118.214H118.396H118.577H118.758H118.939H119.119H119.299H119.478H119.657H119.835H120.013H120.191H120.368H120.545H120.721H120.897H121.072H121.247H121.421H121.595H121.768H121.941H122.114H122.286H122.457H122.628H122.798H122.968H123.137H123.306H123.474H123.642H123.809H123.975H124.141H124.306H124.471H124.635H124.799H124.962H125.125H125.286H125.448H125.608H125.768H125.928H126.087H126.245H126.402H126.559H126.716H126.871H127.026H127.18H127.334H127.487H127.639H127.791H127.942H128.092H128.241H128.39H128.538H128.686H128.832H128.978H129.124H129.268H129.412H129.555H129.697H129.839H129.98H130.12H130.259H130.397H130.535H130.672H130.808H130.943H131.078H131.212H131.345H131.477H131.608H131.739H131.868H131.997H132.125H132.252H132.378H132.504H132.628H132.752H132.875H132.997H133.118H133.238H133.358H133.476H133.593H133.71H133.826H133.941H134.054H134.167H134.279H134.39H134.501H134.61H134.718H134.825H134.932H135.037H135.141H135.245H135.347H135.449H135.549H135.649H135.747H135.844H135.941H136.036H136.131H136.224H136.316H136.408H136.498H136.587H136.675H136.762H136.848H136.933H137.017H137.1H137.182H137.262H137.342H137.42H137.498H137.574H137.649H137.723H137.796H137.868H137.938H138.008H138.076H138.143H138.209H138.274H138.338H138.4H138.461H138.522H138.581H138.638C140.361 125 141.171 124.638 141.497 124.438C141.803 124.251 141.97 124.034 142.097 123.758C142.247 123.431 142.329 123.03 142.355 122.649C142.368 122.473 142.365 122.337 142.362 122.266C142.362 122.258 142.362 122.251 142.361 122.246L142.332 122.011V121.695H147.332L158.259 51.1832ZM158.259 51.1832V46.1832V42.8786H178.121C178.131 42.892 178.141 42.9058 178.151 42.92C178.366 43.217 178.56 43.5438 178.705 43.8131C178.775 43.942 178.826 44.0443 178.856 44.1058C178.871 44.1362 178.88 44.1557 178.883 44.1622L178.883 44.1619L178.879 44.1539L178.876 44.1478L178.875 44.1442L178.874 44.1423C178.873 44.1413 178.873 44.1403 183.437 42.0993M158.259 51.1832L183.437 42.0993M183.437 42.0993L189.502 59.7601L183.437 42.0993ZM142.332 104.084H147.332H142.332ZM142.332 104.084V109.084M142.332 104.084V109.084M142.332 109.084V109.128M142.332 109.084V109.128M153.259 109.084H158.259V104.084H153.259V109.084ZM153.259 109.084V118.397C153.259 120.73 155.146 122.617 157.473 122.617H179.216C181.55 122.617 183.437 118.397 183.437 118.397L153.259 109.084ZM142.332 109.128V109.172M142.332 109.128V109.172M142.332 109.172V109.217M142.332 109.172V109.217M142.332 109.217V109.261M142.332 109.217V109.261M142.332 109.261V109.305M142.332 109.261V109.305M142.332 109.305V109.349M142.332 109.305V109.349M142.332 109.349V109.393M142.332 109.349V109.393M142.332 109.393V109.437M142.332 109.393V109.437M142.332 109.437V109.481M142.332 109.437V109.481M142.332 109.481V109.525M142.332 109.481V109.525M142.332 109.525V109.569M142.332 109.525V109.569M142.332 109.569V109.613M142.332 109.569V109.613M142.332 109.613V109.656M142.332 109.613V109.656M142.332 109.656V109.7M142.332 109.656V109.7M142.332 109.7V109.744M142.332 109.7V109.744M142.332 109.744V109.787M142.332 109.744V109.787M142.332 109.787V109.831M142.332 109.787V109.831M142.332 109.831V109.874M142.332 109.831V109.874M142.332 109.874V109.917M142.332 109.874V109.917M142.332 109.917V109.961M142.332 109.917V109.961M142.332 109.961V110.004M142.332 109.961V110.004M142.332 110.004V110.047M142.332 110.004V110.047M142.332 110.047V110.09M142.332 110.047V110.09M142.332 110.09V110.133M142.332 110.09V110.133M142.332 110.133V110.176M142.332 110.133V110.176M142.332 110.176V110.219M142.332 110.176V110.219M142.332 110.219V110.262M142.332 110.219V110.262M142.332 110.262V110.305M142.332 110.262V110.305M142.332 110.305V110.347M142.332 110.305V110.347M142.332 110.347V110.39M142.332 110.347V110.39M142.332 110.39V110.433M142.332 110.39V110.433M142.332 110.433V110.475M142.332 110.433V110.475M142.332 110.475V110.518M142.332 110.475V110.518M142.332 110.518V110.56M142.332 110.518V110.56M142.332 110.56V110.602M142.332 110.56V110.602M142.332 110.602V110.645M142.332 110.602V110.645M142.332 110.645V110.687M142.332 110.645V110.687M142.332 110.687V110.729M142.332 110.687V110.729M142.332 110.729V110.771M142.332 110.729V110.771M142.332 110.771V110.813M142.332 110.771V110.813M142.332 110.813V110.855M142.332 110.813V110.855M142.332 110.855V110.897M142.332 110.855V110.897M142.332 110.897V110.939M142.332 110.897V110.939M142.332 110.939V110.981M142.332 110.939V110.981M142.332 110.981V111.022M142.332 110.981V111.022M142.332 111.022V111.064M142.332 111.022V111.064M142.332 111.064V111.106M142.332 111.064V111.106M142.332 111.106V111.147M142.332 111.106V111.147M142.332 111.147V111.189M142.332 111.147V111.189M142.332 111.189V111.23M142.332 111.189V111.23M142.332 111.23V111.271M142.332 111.23V111.271M142.332 111.271V111.313M142.332 111.271V111.313M142.332 111.313V111.354M142.332 111.313V111.354M142.332 111.354V111.395M142.332 111.354V111.395M142.332 111.395V111.436M142.332 111.395V111.436M142.332 111.436V111.477M142.332 111.436V111.477M142.332 111.477V111.518M142.332 111.477V111.518M142.332 111.518V111.559M142.332 111.518V111.559M142.332 111.559V111.6M142.332 111.559V111.6M142.332 111.6V111.641M142.332 111.6V111.641M142.332 111.641V111.681M142.332 111.641V111.681M142.332 111.681V111.722M142.332 111.681V111.722M142.332 111.722V111.763M142.332 111.722V111.763M142.332 111.763V111.803M142.332 111.763V111.803M142.332 111.803V111.843M142.332 111.803V111.843M142.332 111.843V111.884M142.332 111.843V111.884M142.332 111.884V111.924M142.332 111.884V111.924M142.332 111.924V111.964M142.332 111.924V111.964M142.332 111.964V112.005M142.332 111.964V112.005M142.332 112.005V112.045M142.332 112.005V112.045M142.332 112.045V112.085M142.332 112.045V112.085M142.332 112.085V112.125M142.332 112.085V112.125M142.332 112.125V112.165M142.332 112.125V112.165M142.332 112.165V112.204M142.332 112.165V112.204M142.332 112.204V112.244M142.332 112.204V112.244M142.332 112.244V112.284M142.332 112.244V112.284M142.332 112.284V112.324M142.332 112.284V112.324M142.332 112.324V112.363M142.332 112.324V112.363M142.332 112.363V112.403M142.332 112.363V112.403M142.332 112.403V112.442M142.332 112.403V112.442M142.332 112.442V112.481M142.332 112.442V112.481M142.332 112.481V112.521M142.332 112.481V112.521M142.332 112.521V112.56M142.332 112.521V112.56M142.332 112.56V112.599M142.332 112.56V112.599M142.332 112.599V112.638M142.332 112.599V112.638M142.332 112.638V112.677M142.332 112.638V112.677M142.332 112.677V112.716M142.332 112.677V112.716M142.332 112.716V112.755M142.332 112.716V112.755M142.332 112.755V112.794M142.332 112.755V112.794M142.332 112.794V112.833M142.332 112.794V112.833M142.332 112.833V112.871M142.332 112.833V112.871M142.332 112.871V112.91M142.332 112.871V112.91M142.332 112.91V112.949M142.332 112.91V112.949M142.332 112.949V112.987M142.332 112.949V112.987M142.332 112.987V113.025M142.332 112.987V113.025M142.332 113.025V113.064M142.332 113.025V113.064M142.332 113.064V113.102M142.332 113.064V113.102M142.332 113.102V113.14M142.332 113.102V113.14M142.332 113.14V113.178M142.332 113.14V113.178M142.332 113.178V113.217M142.332 113.178V113.217M142.332 113.217V113.255M142.332 113.217V113.255M142.332 113.255V113.292M142.332 113.255V113.292M142.332 113.292V113.33M142.332 113.292V113.33M142.332 113.33V113.368M142.332 113.33V113.368M142.332 113.368V113.406M142.332 113.368V113.406M142.332 113.406V113.443M142.332 113.406V113.443M142.332 113.443V113.481M142.332 113.443V113.481M142.332 113.481V113.519M142.332 113.481V113.519M142.332 113.519V113.556M142.332 113.519V113.556M142.332 113.556V113.593M142.332 113.556V113.593M142.332 113.593V113.631M142.332 113.593V113.631M142.332 113.631V113.668M142.332 113.631V113.668M142.332 113.668V113.705M142.332 113.668V113.705M142.332 113.705V113.742M142.332 113.705V113.742M142.332 113.742V113.779M142.332 113.742V113.779M142.332 113.779V113.816M142.332 113.779V113.816M142.332 113.816V113.853M142.332 113.816V113.853M142.332 113.853V113.89M142.332 113.853V113.89M142.332 113.89V113.927M142.332 113.89V113.927M142.332 113.927V113.963M142.332 113.927V113.963M142.332 113.963V114M142.332 113.963V114M142.332 114V114.036M142.332 114V114.036M142.332 114.036V114.073M142.332 114.036V114.073M142.332 114.073V114.109M142.332 114.073V114.109M142.332 114.109V114.145M142.332 114.109V114.145M142.332 114.145V114.182M142.332 114.145V114.182M142.332 114.182V114.218M142.332 114.182V114.218M142.332 114.218V114.254M142.332 114.218V114.254M142.332 114.254V114.29M142.332 114.254V114.29M142.332 114.29V114.326M142.332 114.29V114.326M142.332 114.326V114.362M142.332 114.326V114.362M142.332 114.362V114.397M142.332 114.362V114.397M142.332 114.397V114.433M142.332 114.397V114.433M142.332 114.433V114.469M142.332 114.433V114.469M142.332 114.469V114.504M142.332 114.469V114.504M142.332 114.504V114.54M142.332 114.504V114.54M142.332 114.54V114.575M142.332 114.54V114.575M142.332 114.575V114.611M142.332 114.575V114.611M142.332 114.611V114.646M142.332 114.611V114.646M142.332 114.646V114.681M142.332 114.646V114.681M142.332 114.681V114.716M142.332 114.681V114.716M142.332 114.716V114.751M142.332 114.716V114.751M142.332 114.751V114.786M142.332 114.751V114.786M142.332 114.786V114.821M142.332 114.786V114.821M142.332 114.821V114.856M142.332 114.821V114.856M142.332 114.856V114.891M142.332 114.856V114.891M142.332 114.891V114.925M142.332 114.891V114.925M142.332 114.925V114.96M142.332 114.925V114.96M142.332 114.96V114.995M142.332 114.96V114.995M142.332 114.995V115.029M142.332 114.995V115.029M142.332 115.029V115.063M142.332 115.029V115.063M142.332 115.063V115.098M142.332 115.063V115.098M142.332 115.098V115.132M142.332 115.098V115.132M142.332 115.132V115.166M142.332 115.132V115.166M142.332 115.166V115.2M142.332 115.166V115.2M142.332 115.2V115.234M142.332 115.2V115.234M142.332 115.234V115.268M142.332 115.234V115.268M142.332 115.268V115.302M142.332 115.268V115.302M142.332 115.302V115.336M142.332 115.302V115.336M142.332 115.336V115.369M142.332 115.336V115.369M142.332 115.369V115.403M142.332 115.369V115.403M142.332 115.403V115.437M142.332 115.403V115.437M142.332 115.437V115.47M142.332 115.437V115.47M142.332 115.47V115.503M142.332 115.47V115.503M142.332 115.503V115.537M142.332 115.503V115.537M142.332 115.537V115.57M142.332 115.537V115.57M142.332 115.57V115.603M142.332 115.57V115.603M142.332 115.603V115.636M142.332 115.603V115.636M142.332 115.636V115.669M142.332 115.636V115.669M142.332 115.669V115.702M142.332 115.669V115.702M142.332 115.702V115.735M142.332 115.702V115.735M142.332 115.735V115.768V115.735Z" fill="#FEFEFE" stroke="#4F4F4F" stroke-width="10"/>
</svg>
