<svg width="19" height="13" viewBox="0 0 19 13" fill="none" xmlns="http://www.w3.org/2000/svg">
<path d="M15.8259 5.11832H15.3259H14.7332H14.2332V4.61832V4.61595V4.6136V4.61124V4.60889V4.60654V4.6042V4.60186V4.59952V4.59719V4.59486V4.59253V4.5902V4.58788V4.58557V4.58325V4.58094V4.57864V4.57633V4.57404V4.57174V4.56945V4.56716V4.56487V4.56259V4.56031V4.55804V4.55577V4.5535V4.55124V4.54897V4.54672V4.54446V4.54221V4.53997V4.53772V4.53549V4.53325V4.53102V4.52879V4.52656V4.52434V4.52212V4.51991V4.5177V4.51549V4.51329V4.51109V4.50889V4.5067V4.50451V4.50232V4.50014V4.49796V4.49579V4.49362V4.49145V4.48928V4.48712V4.48497V4.48281V4.48067V4.47852V4.47638V4.47424V4.4721V4.46997V4.46785V4.46572V4.4636V4.46148V4.45937V4.45726V4.45516V4.45306V4.45096V4.44886V4.44677V4.44469V4.4426V4.44052V4.43845V4.43638V4.43431V4.43224V4.43018V4.42812V4.42607V4.42402V4.42197V4.41993V4.41789V4.41586V4.41383V4.4118V4.40978V4.40776V4.40574V4.40373V4.40172V4.39972V4.39772V4.39572V4.39372V4.39174V4.38975V4.38777V4.38579V4.38382V4.38184V4.37988V4.37792V4.37596V4.374V4.37205V4.3701V4.36816V4.36622V4.36428V4.36235V4.36042V4.3585V4.35658V4.35466V4.35275V4.35084V4.34893V4.34703V4.34514V4.34324V4.34135V4.33947V4.33758V4.33571V4.33383V4.33196V4.3301V4.32823V4.32638V4.32452V4.32267V4.32082V4.31898V4.31714V4.31531V4.31348V4.31165V4.30983V4.30801V4.30619V4.30438V4.30257V4.30154H13.2574H12.7574V3.80154C12.7574 2.84494 12.5163 2.4808 12.3843 2.35104C12.3157 2.28355 12.2551 2.25717 12.2219 2.24642C12.2096 2.24245 12.2003 2.24041 12.195 2.23943H9.87517H9.37517V1.73943V1.03646V0.536456H9.87517H11.7123V0.5H4.96329V0.536456H7.01149H7.51149V1.03646V1.73943V2.23943H7.01149V1.73943L7.01147 2.23943H7.01143H7.01135H7.01125H7.01112H7.01095H7.01076H7.01054H7.01029H7.01001H7.0097H7.00937H7.009H7.0086H7.00818H7.00773H7.00725H7.00674H7.0062H7.00563H7.00504H7.00442H7.00376H7.00309H7.00238H7.00164H7.00088H7.00009H6.99927H6.99842H6.99755H6.99665H6.99572H6.99476H6.99378H6.99276H6.99173H6.99066H6.98957H6.98845H6.9873H6.98613H6.98493H6.9837H6.98244H6.98116H6.97986H6.97852H6.97716H6.97578H6.97436H6.97293H6.97146H6.96997H6.96845H6.96691H6.96534H6.96375H6.96213H6.96048H6.95881H6.95711H6.95539H6.95364H6.95187H6.95007H6.94825H6.9464H6.94453H6.94263H6.9407H6.93876H6.93678H6.93479H6.93276H6.93072H6.92865H6.92655H6.92443H6.92229H6.92012H6.91793H6.91571H6.91347H6.91121H6.90892H6.90661H6.90427H6.90191H6.89953H6.89712H6.89469H6.89224H6.88976H6.88727H6.88474H6.8822H6.87963H6.87704H6.87442H6.87179H6.86913H6.86644H6.86374H6.86101H6.85826H6.85549H6.85269H6.84988H6.84704H6.84418H6.84129H6.83839H6.83546H6.83251H6.82954H6.82655H6.82353H6.8205H6.81744H6.81436H6.81126H6.80814H6.805H6.80184H6.79865H6.79545H6.79222H6.78897H6.7857H6.78242H6.77911H6.77578H6.77243H6.76906H6.76566H6.76225H6.75882H6.75537H6.7519H6.7484H6.74489H6.74136H6.73781H6.73424H6.73065H6.72704H6.72341H6.71976H6.71609H6.7124H6.70869H6.70496H6.70122H6.69745H6.69367H6.68987H6.68604H6.6822H6.67834H6.67447H6.67057H6.66665H6.66272H6.65877H6.6548H6.65081H6.6468H6.64278H6.63874H6.63468H6.6306H6.6265H6.62239H6.61826H6.61411H6.60994H6.60576H6.60155H6.59734H6.5931H6.58885H6.58458H6.58029H6.57598H6.57166H6.56732H6.56297H6.5586H6.55421H6.5498H6.54538H6.54095H6.53649H6.53202H6.52753H6.52303H6.51851H6.51398H6.50943H6.50486H6.50028H6.49568H6.49107H6.48644H6.48179H6.47713H6.47246H6.46777H6.46306H6.45834H6.4536H6.44885H6.44408H6.4393H6.43451H6.42969H6.42487H6.42003H6.41517H6.4103H6.40542H6.40052H6.39561H6.39068H6.38574H6.38079H6.37582H6.37084H6.36584H6.36083H6.35581H6.35077H6.34572H6.34065H6.33557H6.33048H6.32538H6.32026H6.31513H6.30998H6.30483H6.29966H6.29447H6.28928H6.28407H6.27885H6.27361H6.26837H6.26311H6.25784H6.25255H6.24726H6.24195H6.23663H6.23129H6.22595H6.22059H6.21523H6.20985H6.20445H6.19905H6.19364H6.18821H6.18277H6.17732H6.17186H6.16639H6.16091H6.15541H6.14991H6.14439H6.13887H6.13333H6.12778H6.12222H6.11665H6.11107H6.10548H6.09988H6.09427H6.08865H6.08302H6.07737H6.07172H6.06606H6.06039H6.05471H6.04902H6.04331H6.0376H6.03188H6.02615H6.02041H6.01467H6.00891H6.00314H5.99736H5.99158H5.98579H5.97998H5.97417H5.96835H5.96252H5.95668H5.95083H5.94498H5.93912H5.93324H5.92736H5.92147H5.91558H5.90967H5.90376H5.89784H5.89191H5.88597H5.88003H5.87408H5.86812H5.86215H5.85617H5.85019H5.8442H5.83821H5.8322H5.82619H5.82017H5.81415H5.80812H5.80208H5.79603H5.78998H5.78392H5.77785H5.77178H5.7657H5.75962H5.75353H5.74743H5.74132H5.73521H5.7291H5.72298H5.71685H5.71072H5.70458H5.69843H5.69228H5.68612H5.67996H5.6738H5.66762H5.66145H5.65526H5.64908H5.64288H5.63668H5.63048H5.62427H5.61806H5.61184H5.60562H5.5994H5.59316H5.58693H5.58069H5.57445H5.5682H5.56194H5.55569H5.54943H5.54316H5.5369H5.53062H5.52435H5.51807H5.51178H5.5055H5.49921H5.49291H5.48662H5.48032H5.47401H5.46771H5.4614H5.45509H5.44877H5.44245H5.43613H5.42981H5.42348H5.41715H5.41082H5.40449H5.39815H5.39181H5.38547H5.37913H5.37278H5.36644H5.36009H5.35374H5.34739H5.34103H5.33468H5.32832H5.32196H5.3156H5.30924H5.30287H5.29651H5.29014H5.28378H5.27741H5.27104H5.26467H5.2583H5.25193H5.24556H5.23919H5.23281H5.22644H5.22007H5.21369H5.20732H5.20094H5.19457H5.18819H5.18182H5.17544H5.16907H5.16269H5.15632H5.14995H5.14357H5.1372H5.13083H5.12445H5.11808H5.11171H5.10534H5.09898H5.09261H5.08624H5.07988H5.07351H5.06715H5.06079H5.05443H5.04807H5.04171H5.03535H5.029H5.02265H5.0163H5.00995H5.0036H4.99726H4.99091H4.98457H4.97824H4.9719H4.96557H4.95924H4.95291H4.94658H4.94026H4.93394H4.92762H4.9213H4.91499H4.90868H4.90238H4.89607H4.88977H4.88348H4.87718H4.87089H4.86461H4.85832H4.85204H4.84577H4.8395H4.83493L3.55915 3.21487L3.4247 3.31766H3.25545H2.24007V5.94504V6.44504H1.74007H1.03784H0.537839V5.94504V3.55463H0.5V9.81198H0.537839V7.32434V6.82434H1.03784H1.74007H2.24007V7.32434V10.0482H3.25545H3.41576L3.54618 10.1414L6.84624 12.5H6.84633H6.85273H6.85925H6.86588H6.87263H6.8795H6.88647H6.89356H6.90077H6.90809H6.91552H6.92306H6.93071H6.93848H6.94635H6.95433H6.96243H6.97063H6.97894H6.98736H6.99588H7.00451H7.01325H7.0221H7.03104H7.0401H7.04926H7.05852H7.06788H7.07735H7.08692H7.09659H7.10636H7.11623H7.12621H7.13628H7.14645H7.15672H7.16709H7.17755H7.18811H7.19877H7.20953H7.22038H7.23132H7.24236H7.25349H7.26472H7.27604H7.28745H7.29896H7.31055H7.32224H7.33401H7.34588H7.35784H7.36988H7.38201H7.39423H7.40654H7.41894H7.43142H7.44398H7.45664H7.46937H7.48219H7.4951H7.50809H7.52116H7.53431H7.54754H7.56086H7.57426H7.58773H7.60129H7.61492H7.62864H7.64243H7.6563H7.67024H7.68427H7.69837H7.71254H7.72679H7.74111H7.75551H7.76998H7.78453H7.79915H7.81384H7.8286H7.84343H7.85833H7.8733H7.88834H7.90345H7.91863H7.93388H7.94919H7.96457H7.98002H7.99553H8.01111H8.02675H8.04246H8.05823H8.07406H8.08996H8.10592H8.12194H8.13802H8.15417H8.17037H8.18663H8.20295H8.21934H8.23577H8.25227H8.26882H8.28543H8.3021H8.31882H8.3356H8.35243H8.36932H8.38626H8.40325H8.4203H8.43739H8.45454H8.47174H8.48899H8.50629H8.52364H8.54104H8.55849H8.57598H8.59352H8.61111H8.62875H8.64643H8.66416H8.68193H8.69975H8.71761H8.73551H8.75346H8.77145H8.78948H8.80755H8.82566H8.84381H8.86201H8.88024H8.89851H8.91682H8.93516H8.95355H8.97197H8.99043H9.00892H9.02745H9.04601H9.06461H9.08324H9.1019H9.12059H9.13932H9.15808H9.17687H9.19569H9.21455H9.23343H9.25234H9.27128H9.29024H9.30924H9.32826H9.34731H9.36638H9.38548H9.4046H9.42375H9.44292H9.46212H9.48134H9.50058H9.51984H9.53913H9.55843H9.57776H9.5971H9.61647H9.63585H9.65525H9.67467H9.69411H9.71356H9.73304H9.75252H9.77202H9.79154H9.81107H9.83061H9.85017H9.86974H9.88932H9.90892H9.92852H9.94814H9.96776H9.9874H10.007H10.0267H10.0464H10.066H10.0857H10.1054H10.1251H10.1448H10.1645H10.1842H10.2039H10.2236H10.2433H10.263H10.2827H10.3025H10.3222H10.3419H10.3616H10.3813H10.4011H10.4208H10.4405H10.4602H10.4799H10.4996H10.5193H10.539H10.5587H10.5784H10.5981H10.6178H10.6374H10.6571H10.6767H10.6964H10.716H10.7356H10.7552H10.7748H10.7944H10.814H10.8336H10.8531H10.8727H10.8922H10.9117H10.9312H10.9507H10.9702H10.9896H11.009H11.0285H11.0479H11.0672H11.0866H11.1059H11.1253H11.1446H11.1638H11.1831H11.2023H11.2215H11.2407H11.2599H11.279H11.2982H11.3172H11.3363H11.3554H11.3744H11.3934H11.4123H11.4312H11.4501H11.469H11.4879H11.5067H11.5255H11.5442H11.5629H11.5816H11.6003H11.6189H11.6375H11.656H11.6745H11.693H11.7115H11.7299H11.7483H11.7666H11.7849H11.8032H11.8214H11.8396H11.8577H11.8758H11.8939H11.9119H11.9299H11.9478H11.9657H11.9835H12.0013H12.0191H12.0368H12.0545H12.0721H12.0897H12.1072H12.1247H12.1421H12.1595H12.1768H12.1941H12.2114H12.2286H12.2457H12.2628H12.2798H12.2968H12.3137H12.3306H12.3474H12.3642H12.3809H12.3975H12.4141H12.4306H12.4471H12.4635H12.4799H12.4962H12.5125H12.5286H12.5448H12.5608H12.5768H12.5928H12.6087H12.6245H12.6402H12.6559H12.6716H12.6871H12.7026H12.718H12.7334H12.7487H12.7639H12.7791H12.7942H12.8092H12.8241H12.839H12.8538H12.8686H12.8832H12.8978H12.9124H12.9268H12.9412H12.9555H12.9697H12.9839H12.998H13.012H13.0259H13.0397H13.0535H13.0672H13.0808H13.0943H13.1078H13.1212H13.1345H13.1477H13.1608H13.1739H13.1868H13.1997H13.2125H13.2252H13.2378H13.2504H13.2628H13.2752H13.2875H13.2997H13.3118H13.3238H13.3358H13.3476H13.3593H13.371H13.3826H13.3941H13.4054H13.4167H13.4279H13.439H13.4501H13.461H13.4718H13.4825H13.4932H13.5037H13.5141H13.5245H13.5347H13.5449H13.5549H13.5649H13.5747H13.5844H13.5941H13.6036H13.6131H13.6224H13.6316H13.6408H13.6498H13.6587H13.6675H13.6762H13.6848H13.6933H13.7017H13.71H13.7182H13.7262H13.7342H13.742H13.7498H13.7574H13.7649H13.7723H13.7796H13.7868H13.7938H13.8008H13.8076H13.8143H13.8209H13.8274H13.8338H13.84H13.8461H13.8522H13.8581H13.8638C14.0361 12.5 14.1171 12.4638 14.1497 12.4438C14.1803 12.4251 14.197 12.4034 14.2097 12.3758C14.2247 12.3431 14.2329 12.303 14.2355 12.2649C14.2368 12.2473 14.2365 12.2337 14.2362 12.2266C14.2362 12.2258 14.2362 12.2251 14.2361 12.2246L14.2332 12.2011V12.1695H14.7332L15.8259 5.11832ZM15.8259 5.11832V4.61832V4.28786H17.8121C17.8131 4.2892 17.8141 4.29058 17.8151 4.292C17.8366 4.3217 17.856 4.35438 17.8705 4.38131C17.8775 4.3942 17.8826 4.40443 17.8856 4.41058L17.8879 4.41539L17.8876 4.41478L17.8875 4.41442L17.8874 4.41423C17.8873 4.41413 17.8873 4.41403 18.3437 4.20993M15.8259 5.11832L18.3437 4.20993M18.3437 4.20993L18.9502 5.97601L18.3437 4.20993ZM14.2332 10.4084H14.7332H14.2332ZM14.2332 10.4084V10.9084M14.2332 10.4084V10.9084M14.2332 10.9084V10.9128M14.2332 10.9084V10.9128M15.3259 10.9084H15.8259V10.4084H15.3259V10.9084ZM15.3259 10.9084V11.8397C15.3259 12.073 15.5146 12.2617 15.7473 12.2617H17.9216C18.155 12.2617 18.3437 11.8397 18.3437 11.8397L15.3259 10.9084ZM14.2332 10.9128V10.9172M14.2332 10.9128V10.9172M14.2332 10.9172V10.9217M14.2332 10.9172V10.9217M14.2332 10.9217V10.9261M14.2332 10.9217V10.9261M14.2332 10.9261V10.9305M14.2332 10.9261V10.9305M14.2332 10.9305V10.9349M14.2332 10.9305V10.9349M14.2332 10.9349V10.9393M14.2332 10.9349V10.9393M14.2332 10.9393V10.9437M14.2332 10.9393V10.9437M14.2332 10.9437V10.9481M14.2332 10.9437V10.9481M14.2332 10.9481V10.9525M14.2332 10.9481V10.9525M14.2332 10.9525V10.9569M14.2332 10.9525V10.9569M14.2332 10.9569V10.9613M14.2332 10.9569V10.9613M14.2332 10.9613V10.9656M14.2332 10.9613V10.9656M14.2332 10.9656V10.97M14.2332 10.9656V10.97M14.2332 10.97V10.9744M14.2332 10.97V10.9744M14.2332 10.9744V10.9787M14.2332 10.9744V10.9787M14.2332 10.9787V10.9831M14.2332 10.9787V10.9831M14.2332 10.9831V10.9874M14.2332 10.9831V10.9874M14.2332 10.9874V10.9917M14.2332 10.9874V10.9917M14.2332 10.9917V10.9961M14.2332 10.9917V10.9961M14.2332 10.9961V11.0004M14.2332 10.9961V11.0004M14.2332 11.0004V11.0047M14.2332 11.0004V11.0047M14.2332 11.0047V11.009M14.2332 11.0047V11.009M14.2332 11.009V11.0133M14.2332 11.009V11.0133M14.2332 11.0133V11.0176M14.2332 11.0133V11.0176M14.2332 11.0176V11.0219M14.2332 11.0176V11.0219M14.2332 11.0219V11.0262M14.2332 11.0219V11.0262M14.2332 11.0262V11.0305M14.2332 11.0262V11.0305M14.2332 11.0305V11.0347M14.2332 11.0305V11.0347M14.2332 11.0347V11.039M14.2332 11.0347V11.039M14.2332 11.039V11.0433M14.2332 11.039V11.0433M14.2332 11.0433V11.0475M14.2332 11.0433V11.0475M14.2332 11.0475V11.0518M14.2332 11.0475V11.0518M14.2332 11.0518V11.056M14.2332 11.0518V11.056M14.2332 11.056V11.0602M14.2332 11.056V11.0602M14.2332 11.0602V11.0645M14.2332 11.0602V11.0645M14.2332 11.0645V11.0687M14.2332 11.0645V11.0687M14.2332 11.0687V11.0729M14.2332 11.0687V11.0729M14.2332 11.0729V11.0771M14.2332 11.0729V11.0771M14.2332 11.0771V11.0813M14.2332 11.0771V11.0813M14.2332 11.0813V11.0855M14.2332 11.0813V11.0855M14.2332 11.0855V11.0897M14.2332 11.0855V11.0897M14.2332 11.0897V11.0939M14.2332 11.0897V11.0939M14.2332 11.0939V11.0981M14.2332 11.0939V11.0981M14.2332 11.0981V11.1022M14.2332 11.0981V11.1022M14.2332 11.1022V11.1064M14.2332 11.1022V11.1064M14.2332 11.1064V11.1106M14.2332 11.1064V11.1106M14.2332 11.1106V11.1147M14.2332 11.1106V11.1147M14.2332 11.1147V11.1189M14.2332 11.1147V11.1189M14.2332 11.1189V11.123M14.2332 11.1189V11.123M14.2332 11.123V11.1271M14.2332 11.123V11.1271M14.2332 11.1271V11.1313M14.2332 11.1271V11.1313M14.2332 11.1313V11.1354M14.2332 11.1313V11.1354M14.2332 11.1354V11.1395M14.2332 11.1354V11.1395M14.2332 11.1395V11.1436M14.2332 11.1395V11.1436M14.2332 11.1436V11.1477M14.2332 11.1436V11.1477M14.2332 11.1477V11.1518M14.2332 11.1477V11.1518M14.2332 11.1518V11.1559M14.2332 11.1518V11.1559M14.2332 11.1559V11.16M14.2332 11.1559V11.16M14.2332 11.16V11.1641M14.2332 11.16V11.1641M14.2332 11.1641V11.1681M14.2332 11.1641V11.1681M14.2332 11.1681V11.1722M14.2332 11.1681V11.1722M14.2332 11.1722V11.1763M14.2332 11.1722V11.1763M14.2332 11.1763V11.1803M14.2332 11.1763V11.1803M14.2332 11.1803V11.1843M14.2332 11.1803V11.1843M14.2332 11.1843V11.1884M14.2332 11.1843V11.1884M14.2332 11.1884V11.1924M14.2332 11.1884V11.1924M14.2332 11.1924V11.1964M14.2332 11.1924V11.1964M14.2332 11.1964V11.2005M14.2332 11.1964V11.2005M14.2332 11.2005V11.2045M14.2332 11.2005V11.2045M14.2332 11.2045V11.2085M14.2332 11.2045V11.2085M14.2332 11.2085V11.2125M14.2332 11.2085V11.2125M14.2332 11.2125V11.2165M14.2332 11.2125V11.2165M14.2332 11.2165V11.2204M14.2332 11.2165V11.2204M14.2332 11.2204V11.2244M14.2332 11.2204V11.2244M14.2332 11.2244V11.2284M14.2332 11.2244V11.2284M14.2332 11.2284V11.2324M14.2332 11.2284V11.2324M14.2332 11.2324V11.2363M14.2332 11.2324V11.2363M14.2332 11.2363V11.2403M14.2332 11.2363V11.2403M14.2332 11.2403V11.2442M14.2332 11.2403V11.2442M14.2332 11.2442V11.2481M14.2332 11.2442V11.2481M14.2332 11.2481V11.2521M14.2332 11.2481V11.2521M14.2332 11.2521V11.256M14.2332 11.2521V11.256M14.2332 11.256V11.2599M14.2332 11.256V11.2599M14.2332 11.2599V11.2638M14.2332 11.2599V11.2638M14.2332 11.2638V11.2677M14.2332 11.2638V11.2677M14.2332 11.2677V11.2716M14.2332 11.2677V11.2716M14.2332 11.2716V11.2755M14.2332 11.2716V11.2755M14.2332 11.2755V11.2794M14.2332 11.2755V11.2794M14.2332 11.2794V11.2833M14.2332 11.2794V11.2833M14.2332 11.2833V11.2871M14.2332 11.2833V11.2871M14.2332 11.2871V11.291M14.2332 11.2871V11.291M14.2332 11.291V11.2949M14.2332 11.291V11.2949M14.2332 11.2949V11.2987M14.2332 11.2949V11.2987M14.2332 11.2987V11.3025M14.2332 11.2987V11.3025M14.2332 11.3025V11.3064M14.2332 11.3025V11.3064M14.2332 11.3064V11.3102M14.2332 11.3064V11.3102M14.2332 11.3102V11.314M14.2332 11.3102V11.314M14.2332 11.314V11.3178M14.2332 11.314V11.3178M14.2332 11.3178V11.3217M14.2332 11.3178V11.3217M14.2332 11.3217V11.3255M14.2332 11.3217V11.3255M14.2332 11.3255V11.3292M14.2332 11.3255V11.3292M14.2332 11.3292V11.333M14.2332 11.3292V11.333M14.2332 11.333V11.3368M14.2332 11.333V11.3368M14.2332 11.3368V11.3406M14.2332 11.3368V11.3406M14.2332 11.3406V11.3443M14.2332 11.3406V11.3443M14.2332 11.3443V11.3481M14.2332 11.3443V11.3481M14.2332 11.3481V11.3519M14.2332 11.3481V11.3519M14.2332 11.3519V11.3556M14.2332 11.3519V11.3556M14.2332 11.3556V11.3593M14.2332 11.3556V11.3593M14.2332 11.3593V11.3631M14.2332 11.3593V11.3631M14.2332 11.3631V11.3668M14.2332 11.3631V11.3668M14.2332 11.3668V11.3705M14.2332 11.3668V11.3705M14.2332 11.3705V11.3742M14.2332 11.3705V11.3742M14.2332 11.3742V11.3779M14.2332 11.3742V11.3779M14.2332 11.3779V11.3816M14.2332 11.3779V11.3816M14.2332 11.3816V11.3853M14.2332 11.3816V11.3853M14.2332 11.3853V11.389M14.2332 11.3853V11.389M14.2332 11.389V11.3927M14.2332 11.389V11.3927M14.2332 11.3927V11.3963M14.2332 11.3927V11.3963M14.2332 11.3963V11.4M14.2332 11.3963V11.4M14.2332 11.4V11.4036M14.2332 11.4V11.4036M14.2332 11.4036V11.4073M14.2332 11.4036V11.4073M14.2332 11.4073V11.4109M14.2332 11.4073V11.4109M14.2332 11.4109V11.4145M14.2332 11.4109V11.4145M14.2332 11.4145V11.4182M14.2332 11.4145V11.4182M14.2332 11.4182V11.4218M14.2332 11.4182V11.4218M14.2332 11.4218V11.4254M14.2332 11.4218V11.4254M14.2332 11.4254V11.429M14.2332 11.4254V11.429M14.2332 11.429V11.4326M14.2332 11.429V11.4326M14.2332 11.4326V11.4362M14.2332 11.4326V11.4362M14.2332 11.4362V11.4397M14.2332 11.4362V11.4397M14.2332 11.4397V11.4433M14.2332 11.4397V11.4433M14.2332 11.4433V11.4469M14.2332 11.4433V11.4469M14.2332 11.4469V11.4504M14.2332 11.4469V11.4504M14.2332 11.4504V11.454M14.2332 11.4504V11.454M14.2332 11.454V11.4575M14.2332 11.454V11.4575M14.2332 11.4575V11.4611M14.2332 11.4575V11.4611M14.2332 11.4611V11.4646M14.2332 11.4611V11.4646M14.2332 11.4646V11.4681M14.2332 11.4646V11.4681M14.2332 11.4681V11.4716M14.2332 11.4681V11.4716M14.2332 11.4716V11.4751M14.2332 11.4716V11.4751M14.2332 11.4751V11.4786M14.2332 11.4751V11.4786M14.2332 11.4786V11.4821M14.2332 11.4786V11.4821M14.2332 11.4821V11.4856M14.2332 11.4821V11.4856M14.2332 11.4856V11.4891M14.2332 11.4856V11.4891M14.2332 11.4891V11.4925M14.2332 11.4891V11.4925M14.2332 11.4925V11.496M14.2332 11.4925V11.496M14.2332 11.496V11.4995M14.2332 11.496V11.4995M14.2332 11.4995V11.5029M14.2332 11.4995V11.5029M14.2332 11.5029V11.5063M14.2332 11.5029V11.5063M14.2332 11.5063V11.5098M14.2332 11.5063V11.5098M14.2332 11.5098V11.5132M14.2332 11.5098V11.5132M14.2332 11.5132V11.5166M14.2332 11.5132V11.5166M14.2332 11.5166V11.52M14.2332 11.5166V11.52M14.2332 11.52V11.5234M14.2332 11.52V11.5234M14.2332 11.5234V11.5268M14.2332 11.5234V11.5268M14.2332 11.5268V11.5302M14.2332 11.5268V11.5302M14.2332 11.5302V11.5336M14.2332 11.5302V11.5336M14.2332 11.5336V11.5369M14.2332 11.5336V11.5369M14.2332 11.5369V11.5403M14.2332 11.5369V11.5403M14.2332 11.5403V11.5437M14.2332 11.5403V11.5437M14.2332 11.5437V11.547M14.2332 11.5437V11.547M14.2332 11.547V11.5503M14.2332 11.547V11.5503M14.2332 11.5503V11.5537M14.2332 11.5503V11.5537M14.2332 11.5537V11.557M14.2332 11.5537V11.557M14.2332 11.557V11.5603M14.2332 11.557V11.5603M14.2332 11.5603V11.5636M14.2332 11.5603V11.5636M14.2332 11.5636V11.5669M14.2332 11.5636V11.5669M14.2332 11.5669V11.5702M14.2332 11.5669V11.5702M14.2332 11.5702V11.5735M14.2332 11.5702V11.5735M14.2332 11.5735V11.5768M14.2332 11.5735V11.5768M14.2332 11.5768V11.5801M14.2332 11.5768V11.5801M14.2332 11.5801V11.5833M14.2332 11.5801V11.5833M14.2332 11.5833V11.5866M14.2332 11.5833V11.5866M14.2332 11.5866V11.5898M14.2332 11.5866V11.5898M14.2332 11.5898V11.5931V11.5898Z" stroke="#4F4F4F"/>
</svg>
