<svg width="60" height="60" viewBox="0 0 60 60" fill="none" xmlns="http://www.w3.org/2000/svg">
<path d="M30 5C16.1925 5 5 16.1925 5 30C5 43.8075 16.1925 55 30 55C43.8075 55 55 43.8075 55 30C55 16.1925 43.8075 5 30 5Z" fill="url(#paint0_linear_1_302)"/>
<path d="M33.3839 36.6261H39.8539L40.8702 30.0536H33.3839V26.4611C33.3839 23.7311 34.2764 21.3099 36.8302 21.3099H40.9339V15.5749C40.2127 15.4774 38.6877 15.2649 35.8064 15.2649C29.7889 15.2649 26.2614 18.4424 26.2614 25.6824V30.0549H20.0752V36.6274H26.2602V54.6924C27.4852 54.8749 28.7264 54.9999 30.0002 54.9999C31.1514 54.9999 32.2752 54.8949 33.3839 54.7449V36.6261Z" fill="white"/>
<defs>
<linearGradient id="paint0_linear_1_302" x1="12.4912" y1="12.4912" x2="50.7687" y2="50.7687" gradientUnits="userSpaceOnUse">
<stop stop-color="#2AA4F4"/>
<stop offset="1" stop-color="#007AD9"/>
</linearGradient>
</defs>
</svg>
