<svg width="15" height="19" viewBox="0 0 15 19" fill="none" xmlns="http://www.w3.org/2000/svg">
<path d="M13.75 7.375C13.75 10.7133 9.60625 15.45 7.375 15.45C5.14375 15.45 1 10.3827 1 7.04444C1 3.55 4.08891 1 7.375 1C10.6611 1 13.75 3.55 13.75 7.375Z" fill="white"/>
<path d="M9.925 6.95C9.925 8.35833 8.78333 9.5 7.375 9.5C5.96667 9.5 4.825 8.35833 4.825 6.95C4.825 5.54167 5.96667 4.4 7.375 4.4C8.78333 4.4 9.925 5.54167 9.925 6.95Z" fill="white"/>
<path d="M2.275 17.4C1.94363 17.4 1.675 17.6686 1.675 18C1.675 18.3314 1.94363 18.6 2.275 18.6V17.4ZM12.475 18.6C12.8064 18.6 13.075 18.3314 13.075 18C13.075 17.6686 12.8064 17.4 12.475 17.4V18.6ZM13.15 7.375C13.15 8.83836 12.2169 10.7228 10.9355 12.2836C10.3049 13.0517 9.61602 13.7085 8.96615 14.1677C8.2976 14.6401 7.74596 14.85 7.375 14.85V16.05C8.11966 16.05 8.92271 15.6678 9.65866 15.1477C10.4133 14.6145 11.1787 13.8784 11.8629 13.0451C13.2112 11.4029 14.35 9.2499 14.35 7.375H13.15ZM7.375 14.85C7.01616 14.85 6.46992 14.6308 5.79783 14.1263C5.14693 13.6376 4.45641 12.9402 3.82371 12.1298C2.53834 10.4835 1.6 8.51372 1.6 7.04444H0.4C0.4 8.91342 1.53353 11.1464 2.87785 12.8683C3.55999 13.742 4.32378 14.5201 5.07736 15.0859C5.80976 15.6358 6.61821 16.05 7.375 16.05V14.85ZM1.6 7.04444C1.6 3.93447 4.36456 1.6 7.375 1.6V0.4C3.81325 0.4 0.4 3.16553 0.4 7.04444H1.6ZM7.375 1.6C10.3634 1.6 13.15 3.91403 13.15 7.375H14.35C14.35 3.18597 10.9588 0.4 7.375 0.4V1.6ZM9.325 6.95C9.325 8.02696 8.45196 8.9 7.375 8.9V10.1C9.1147 10.1 10.525 8.6897 10.525 6.95H9.325ZM7.375 8.9C6.29804 8.9 5.425 8.02696 5.425 6.95H4.225C4.225 8.6897 5.6353 10.1 7.375 10.1V8.9ZM5.425 6.95C5.425 5.87304 6.29804 5 7.375 5V3.8C5.6353 3.8 4.225 5.2103 4.225 6.95H5.425ZM7.375 5C8.45196 5 9.325 5.87304 9.325 6.95H10.525C10.525 5.2103 9.1147 3.8 7.375 3.8V5ZM2.275 18.6H12.475V17.4H2.275V18.6Z" fill="#4F4F4F"/>
</svg>
