<svg width="18" height="15" viewBox="0 0 18 15" fill="none" xmlns="http://www.w3.org/2000/svg">
<path d="M3.4375 8.3125H5.875H3.4375ZM1 5.0625L2.625 5.875L3.65739 2.77781C3.8705 2.13852 3.97704 1.81887 4.17467 1.58255C4.34919 1.37386 4.57331 1.21232 4.82648 1.11276C5.11317 1 5.4501 1 6.12397 1H12.126C12.7999 1 13.1368 1 13.4235 1.11276C13.6767 1.21232 13.9008 1.37386 14.0753 1.58255C14.2729 1.81887 14.3795 2.13852 14.5926 2.77781L15.625 5.875L17.25 5.0625M12.375 8.3125H14.8125H12.375ZM4.9 5.875H13.35C14.7152 5.875 15.3977 5.875 15.9191 6.14069C16.3778 6.37436 16.7506 6.74722 16.9843 7.20587C17.25 7.72734 17.25 8.40984 17.25 9.775V11.9688C17.25 12.3463 17.25 12.5351 17.2188 12.692C17.0906 13.3367 16.5867 13.8406 15.942 13.9688C15.7851 14 15.5963 14 15.2188 14H14.8125C13.915 14 13.1875 13.2725 13.1875 12.375C13.1875 12.1507 13.0056 11.9688 12.7812 11.9688H5.46875C5.24439 11.9688 5.0625 12.1507 5.0625 12.375C5.0625 13.2725 4.33496 14 3.4375 14H3.03125C2.65371 14 2.46495 14 2.30798 13.9688C1.66336 13.8406 1.15944 13.3367 1.03122 12.692C1 12.5351 1 12.3463 1 11.9688V9.775C1 8.40984 1 7.72734 1.26567 7.20587C1.49936 6.74722 1.87225 6.37436 2.3309 6.14069C2.8523 5.875 3.53487 5.875 4.9 5.875Z" fill="white"/>
<path d="M3.4375 8.3125H5.875M1 5.0625L2.625 5.875L3.65739 2.77781C3.8705 2.13852 3.97704 1.81887 4.17467 1.58255C4.34919 1.37386 4.57331 1.21232 4.82648 1.11276C5.11317 1 5.4501 1 6.12397 1H12.126C12.7999 1 13.1368 1 13.4235 1.11276C13.6767 1.21232 13.9008 1.37386 14.0753 1.58255C14.2729 1.81887 14.3795 2.13852 14.5926 2.77781L15.625 5.875L17.25 5.0625M12.375 8.3125H14.8125M4.9 5.875H13.35C14.7152 5.875 15.3977 5.875 15.9191 6.14069C16.3778 6.37436 16.7506 6.74722 16.9843 7.20587C17.25 7.72734 17.25 8.40984 17.25 9.775V11.9688C17.25 12.3463 17.25 12.5351 17.2188 12.692C17.0906 13.3367 16.5867 13.8406 15.942 13.9688C15.7851 14 15.5963 14 15.2188 14H14.8125C13.915 14 13.1875 13.2725 13.1875 12.375C13.1875 12.1507 13.0056 11.9688 12.7812 11.9688H5.46875C5.24439 11.9688 5.0625 12.1507 5.0625 12.375C5.0625 13.2725 4.33496 14 3.4375 14H3.03125C2.65371 14 2.46495 14 2.30798 13.9688C1.66336 13.8406 1.15944 13.3367 1.03122 12.692C1 12.5351 1 12.3463 1 11.9688V9.775C1 8.40984 1 7.72734 1.26567 7.20587C1.49936 6.74722 1.87225 6.37436 2.3309 6.14069C2.8523 5.875 3.53487 5.875 4.9 5.875Z" stroke="#4F4F4F" stroke-width="1.2" stroke-linecap="round" stroke-linejoin="round"/>
</svg>
