<svg width="90" height="90" viewBox="0 0 90 90" fill="none" xmlns="http://www.w3.org/2000/svg">
<circle cx="45" cy="45" r="45" fill="#4D5EA5"/>
<path d="M53.9616 35.5385C53.9616 40.1055 50.2593 43.8077 45.6923 43.8077C41.1254 43.8077 37.4231 40.1055 37.4231 35.5385C37.4231 30.9715 41.1254 27.2693 45.6923 27.2693C50.2593 27.2693 53.9616 30.9715 53.9616 35.5385Z" fill="white" stroke="white" stroke-linecap="round"/>
<path d="M31.6434 50.8786C32.7199 48.6998 35.0493 47.5962 37.4796 47.5962H53.905C56.3353 47.5962 58.6647 48.6998 59.7412 50.8786C60.8039 53.0295 61.9301 56.1126 62.1098 59.7489C62.1371 60.3005 61.6869 60.75 61.1346 60.75H30.25C29.6977 60.75 29.2475 60.3005 29.2748 59.7489C29.4545 56.1126 30.5808 53.0295 31.6434 50.8786Z" fill="white" stroke="white" stroke-linecap="round"/>
</svg>
