<svg width="20" height="11" viewBox="0 0 20 11" fill="none" xmlns="http://www.w3.org/2000/svg">
<path d="M18.233 1H1.76699C0.792655 1 0 1.68162 0 2.5194V8.4806C0 9.31841 0.792655 10 1.76699 10H18.233C19.2073 10 20 9.31841 20 8.4806V2.5194C20 1.68162 19.2073 1 18.233 1ZM18.6956 8.48063C18.6956 8.69997 18.4881 8.87846 18.233 8.87846H1.76699C1.51191 8.87846 1.30433 8.7 1.30433 8.48063V8.39743H18.6956V8.48063H18.6956ZM18.6956 7.27586H1.30433V3.72418H18.6956V7.27586H18.6956ZM18.6957 2.60257H1.30433V2.51937C1.30433 2.30003 1.51187 2.12154 1.76699 2.12154H18.233C18.4881 2.12154 18.6957 2.3 18.6957 2.51937V2.60257Z" fill="white" stroke="#4F4F4F" stroke-width="0.5"/>
<rect x="1" y="4" width="18" height="3" fill="white"/>
<path d="M18.233 1H1.76699C0.792655 1 0 1.68162 0 2.5194V8.4806C0 9.31841 0.792655 10 1.76699 10H18.233C19.2073 10 20 9.31841 20 8.4806V2.5194C20 1.68162 19.2073 1 18.233 1ZM18.6956 8.48063C18.6956 8.69997 18.4881 8.87846 18.233 8.87846H1.76699C1.51191 8.87846 1.30433 8.7 1.30433 8.48063V8.39743H18.6956V8.48063H18.6956ZM18.6956 7.27586H1.30433V3.72418H18.6956V7.27586H18.6956ZM18.6957 2.60257H1.30433V2.51937C1.30433 2.30003 1.51187 2.12154 1.76699 2.12154H18.233C18.4881 2.12154 18.6957 2.3 18.6957 2.51937V2.60257Z" stroke="#4F4F4F" stroke-width="0.5"/>
<path d="M4.38086 4.36279H3.86508L3 6.6806H3.67574L3.81289 6.22681H4.42988L4.57023 6.6806H5.24277L4.38086 4.36279ZM3.90746 5.80248L4.12293 5.02553L4.32859 5.80248H3.90746Z" fill="#4F4F4F"/>
<path d="M6.95638 5.49232C7.17838 5.39435 7.28939 5.17236 7.28939 4.95693C7.28939 4.66311 7.08701 4.36279 6.76052 4.36279H5.41553V6.6806H6.55486C7.01189 6.68056 7.38728 6.50431 7.38728 6.08642C7.38732 5.7633 7.22084 5.57064 6.95638 5.49232ZM6.05213 4.90467H6.50592C6.58752 4.90467 6.65935 4.95361 6.65935 5.08092C6.65935 5.22455 6.57119 5.26049 6.48631 5.26049H6.05213V4.90467ZM6.55486 6.14521H6.05213V5.75674H6.57775C6.6724 5.75674 6.74095 5.84162 6.74095 5.95588C6.74095 6.0767 6.65935 6.14521 6.55486 6.14521Z" fill="#4F4F4F"/>
<path d="M9.04555 5.85136C8.98024 6.06027 8.79747 6.13535 8.65055 6.13535C8.35673 6.13535 8.18372 5.84484 8.18372 5.5216C8.18372 5.23109 8.32411 4.91437 8.64403 4.91437C8.78766 4.91437 8.98028 4.97641 9.05536 5.20168L9.54176 4.85562C9.39485 4.55203 9.06841 4.34961 8.65708 4.34961C7.95192 4.34961 7.53735 4.93726 7.53735 5.50199C7.53731 6.09613 7.9911 6.70007 8.63747 6.70007C9.00637 6.70007 9.43403 6.50421 9.56462 6.16144L9.04555 5.85136Z" fill="#4F4F4F"/>
<path d="M10.7887 5.5022H9.76685V6.0572H10.7887V5.5022Z" fill="#4F4F4F"/>
<path d="M12.2606 6.12561V4.34644H11.6273C11.6207 4.35952 11.3237 4.65655 11.0886 4.65655V5.22456C11.265 5.22456 11.5555 5.04503 11.6273 4.94382V6.12561H11.1638V6.68061H12.6753V6.12561H12.2606Z" fill="#4F4F4F"/>
<path d="M13.7948 6.12561C13.7948 5.98526 14.0069 5.88077 14.193 5.77303C14.4835 5.60331 14.6533 5.44003 14.6533 5.08097C14.6533 4.60436 14.3498 4.33667 13.8209 4.33667C13.3965 4.33667 13.0439 4.50972 12.8709 4.70558L13.2528 5.12018C13.3769 4.9994 13.563 4.88515 13.7327 4.88515C13.8437 4.88515 13.9449 4.93409 13.9449 5.09081C13.9449 5.32913 13.7099 5.44339 13.4389 5.57069C12.9427 5.80573 12.8708 6.07995 12.8708 6.68065H14.6566V6.12565H13.7948V6.12561Z" fill="#4F4F4F"/>
<path d="M16.1352 5.43993C16.3801 5.39094 16.5563 5.21794 16.5563 4.96657C16.5563 4.60743 16.1972 4.33325 15.7141 4.33325C15.4203 4.33325 15.071 4.43446 14.8979 4.62708L15.2897 5.08739C15.3484 5.01227 15.4725 4.87513 15.7173 4.87513C15.7532 4.87513 15.8904 4.87837 15.8904 4.99919C15.8904 5.16239 15.6325 5.21794 15.3452 5.21794H15.2407V5.73048H15.3485C15.7337 5.73048 15.9491 5.7827 15.9491 5.95247C15.9491 6.08962 15.8055 6.1418 15.6586 6.1418C15.3615 6.1418 15.2701 5.92633 15.244 5.90024L14.9274 6.33114C15.0775 6.59231 15.3256 6.70985 15.6717 6.70985C16.1059 6.70985 16.5956 6.52376 16.5956 6.03739C16.5955 5.7468 16.4192 5.48563 16.1352 5.43993Z" fill="#4F4F4F"/>
</svg>
