<svg xmlns="http://www.w3.org/2000/svg" xmlns:xlink="http://www.w3.org/1999/xlink" xmlns:xodm="http://www.corel.com/coreldraw/odm/2003" xml:space="preserve" version="1.1" style="shape-rendering:geometricPrecision; text-rendering:geometricPrecision; image-rendering:optimizeQuality; fill-rule:evenodd; clip-rule:evenodd" viewBox="2542.04 6345.99 24614.88 8322.29">
 <defs>
  <style type="text/css">
   <![CDATA[
    .fil0 {fill:#26357A;fill-rule:nonzero}
    .fil1 {fill:url(#id0)}
   ]]>
  </style>
  <linearGradient id="id0" gradientUnits="userSpaceOnUse" x1="-1025.46" y1="6101.71" x2="31233.58" y2="14461.14">
   <stop offset="0" style="stop-opacity:1; stop-color:#24347F"/>
   <stop offset="0.258824" style="stop-opacity:1; stop-color:#283480"/>
   <stop offset="0.501961" style="stop-opacity:1; stop-color:#EBE33A"/>
   <stop offset="0.74902" style="stop-opacity:1; stop-color:#3A3E85"/>
   <stop offset="1" style="stop-opacity:1; stop-color:#000636"/>
  </linearGradient>
 </defs>
 <g id="Слой_x0020_1">
  <metadata id="CorelCorpID_0Corel-Layer"/>
  <path class="fil0" d="M5993.75 11354.55c-174.16,8.97 -318.67,10.78 -461.77,25.75 -94.69,9.83 -189.49,31.96 -280.5,60.48 -134.07,41.99 -220.93,138.28 -243.79,276.49 -19.16,115.82 -27.59,234.77 -26.65,352.27 0.99,120.81 64.45,210.57 179.63,255.72 47.73,18.75 97.83,34.84 148.31,42.57 305.28,46.75 611.95,33.17 918.01,11.91 83.83,-5.78 167.47,-27.48 249.06,-49.78 162.34,-44.28 262.03,-152.79 282.61,-319.46 14.38,-116.6 15.71,-235.72 12.57,-353.38 -2.71,-100.88 -62.09,-173.31 -152.69,-214.2 -49.93,-22.55 -104.24,-41.78 -158.25,-47.74 -165.04,-18.21 -330.81,-29.26 -466.54,-40.63zm20862.65 2892.81l-327.54 0 -51.42 272.03 368.14 0 -25.72 133.99 -526.5 0 173.24 -912.24 506.23 0 -25.74 133.99 -347.83 0 -46.04 239.55 328.89 0 -25.71 132.68zm-675.29 378.95c-48.73,21.66 -131.3,40.62 -238.19,40.62 -236.93,0 -388.48,-146.17 -388.48,-383.05 0,-189.48 81.2,-350.49 213.87,-449.34 94.75,-71.73 208.4,-108.24 339.7,-108.24 100.13,0 173.22,24.34 198.97,41.91l-46 127.26c-29.82,-16.26 -92.06,-32.51 -171.92,-32.51 -86.64,0 -170.56,29.8 -232.82,83.93 -79.82,70.37 -131.26,185.42 -131.26,318.07 0,152.91 78.48,267.98 258.52,267.98 66.31,0 133.99,-12.18 182.7,-35.22l14.91 128.59zm-678.08 -885.17l-173.26 912.24 -158.33 0 173.21 -912.24 158.38 0zm-921.64 912.24l-112.32 -912.24 161.04 0 52.82 502.15c10.8,94.74 16.24,167.83 20.31,246.32l2.68 0c29.77,-74.43 64.97,-158.34 112.33,-253.07l243.66 -495.4 174.56 0 -475.05 912.24 -180.03 0zm-691.55 -496.72l89.32 0c123.16,0 205.75,-75.78 205.75,-174.61 0,-83.9 -66.32,-121.79 -155.67,-121.79 -39.24,0 -64.97,2.7 -83.9,8.11l-55.5 288.29zm-79.84 -400.63c58.21,-13.52 143.46,-21.65 224.66,-21.65 87.98,0 171.87,17.6 228.75,59.53 51.42,35.22 86.61,90.72 86.61,165.15 0,134.01 -94.72,226.02 -211.12,261.24l-1.36 4.02c59.54,23.04 85.28,86.62 93.37,173.24 10.82,113.71 17.63,219.27 32.5,255.82l-162.41 0c-6.79,-21.67 -16.25,-108.26 -24.39,-217.92 -6.73,-116.39 -48.71,-158.33 -132.62,-158.33l-77.14 0 -71.76 376.25 -155.62 0 170.53 -897.35zm-280.11 491.33l-327.51 0 -51.42 272.03 368.11 0 -25.68 133.99 -526.51 0 173.24 -912.24 506.18 0 -25.69 133.99 -347.88 0 -46 239.55 328.88 0 -25.72 132.68zm-1197.7 226.03c51.39,33.8 125.85,58.19 205.66,58.19 88,0 169.2,-47.41 169.2,-135.37 0,-59.52 -39.25,-100.16 -128.58,-147.51 -105.53,-56.85 -185.41,-129.91 -185.41,-238.21 0,-174.58 151.58,-284.23 335.66,-284.23 101.53,0 167.82,25.72 203.01,46.03l-51.4 131.27c-29.8,-16.24 -90.7,-41.92 -165.13,-40.6 -100.18,0 -156.98,58.18 -156.98,119.08 0,62.27 51.39,98.84 136.67,147.58 110.97,58.18 177.31,131.26 177.31,242.26 0,182.7 -147.54,295.05 -351.91,295.05 -110.99,0 -201.68,-31.14 -242.26,-63.65l54.16 -129.89zm-634.73 -536c-79.85,79.87 -125.84,228.77 -125.84,346.5 0,138.07 62.26,251.73 215.2,251.73 66.33,0 129.94,-28.4 177.31,-77.15 78.5,-78.51 123.16,-234.15 123.16,-349.16 0,-120.5 -41.95,-250.41 -209.83,-250.41 -70.37,0 -131.25,29.81 -180,78.49zm557.67 166.51c0,162.39 -58.18,330.21 -165.13,435.77 -82.55,81.23 -193.52,128.58 -326.19,128.58 -235.5,0 -358.66,-171.88 -358.66,-376.28 0,-162.39 60.9,-332.91 170.55,-438.47 82.52,-79.88 197.57,-127.24 320.78,-127.24 243.59,0 358.65,169.18 358.65,377.64zm-1231.6 -224.69l-253.09 0 27.07 -138.07 664.51 0 -27.04 138.07 -254.46 0 -146.18 774.17 -158.33 0 147.52 -774.17zm-845.86 -138.07l-101.48 531.91c-6.76,33.83 -10.84,71.74 -10.84,111 1.34,93.39 56.84,151.6 150.26,151.6 112.31,0 189.46,-75.79 224.65,-261.25l101.48 -533.26 158.4 0 -101.51 530.58c-52.79,274.74 -180.04,396.56 -403.36,396.56 -171.85,0 -286.93,-89.33 -286.93,-281.51 0,-39.24 5.43,-83.91 12.19,-125.89l98.8 -519.74 158.34 0zm-595.45 530.58l-25.7 -227.41c-4.05,-48.71 -9.47,-119.08 -13.52,-173.25l-2.71 0c-24.37,54.17 -48.71,119.13 -74.43,173.25l-111.01 227.41 227.37 0zm-277.45 121.81l-124.5 259.85 -167.82 0 457.46 -912.24 197.59 0 115.05 912.24 -165.13 0 -25.69 -259.85 -286.96 0zm-9333.14 -3635.95c-71.11,394.57 -142.94,792.95 -217.57,1207.23 -26.47,-19.06 -36.6,-24.19 -43.82,-31.94 -335.91,-358.59 -681.95,-708.5 -1003.65,-1079.49 -211.99,-244.53 -604.45,-162.17 -723.68,76.57 -35.78,71.63 -64.57,150.05 -78.91,228.58 -97.97,537.66 -191.61,1076.07 -285.78,1614.43 -13.63,78 -22.61,156.81 -34.5,240.45l698.93 0c72.36,-404.78 143.95,-805.45 215.54,-1206.05 10.13,-3.78 20.25,-7.52 30.38,-11.25 24.9,31.56 47.58,65.17 74.93,94.4 323.12,345.35 653.25,684.43 968.21,1037.02 187.66,209.97 524.54,141.04 659.63,-45.11 62.22,-85.67 97.9,-181.06 116.4,-284.45 94.51,-526.99 189.86,-1053.81 284.18,-1580.82 15.85,-88.45 27.96,-177.6 41.59,-265.12l-679.93 0c-8.79,1.78 -16.21,3.6 -21.95,5.55zm6514.5 1658.57c-194.42,205.19 -388.82,410.38 -583.46,615.73 -24.39,2.57 -46.2,6.82 -67.97,6.79 -384.29,-0.1 -768.59,3.23 -1152.75,-2.58 -273.28,-4.08 -525.57,-85.64 -740.03,-258.25 -364.13,-293.05 -464.46,-792.8 -253.52,-1224.38 172.79,-353.36 463.93,-566.2 825.24,-694.75 196.62,-69.95 401.4,-102.63 608.9,-104.23 520.96,-4.07 1041.94,-1.85 1562.87,-1.75 25.5,0.03 51.01,3.69 77.44,5.73 -25.39,71.4 -436.17,522.18 -599.59,657.45l-111.83 0c-336.18,0 -672.41,-1.35 -1008.65,0.52 -216.25,1.11 -405.91,71.14 -555.69,232.48 -64.02,68.98 -110.01,148.72 -124.33,243.07 -35.41,233.1 82.87,412.66 317.41,471.24 74.23,18.58 153.29,24.26 230.23,24.63 480.26,2.07 960.56,1.05 1440.91,0.99l120.43 0c4.78,9.12 9.58,18.22 14.39,27.31zm3503.81 615.76l-2710.03 0c203.28,-224.08 390.58,-430.56 583.02,-642.65l875.34 0c-127.4,-264.12 -252.16,-507.08 -386.11,-771.25 -425.71,481.47 -838.07,947.79 -1251.48,1415.26l-913.99 0c28.78,-36.61 47.11,-62.57 68.09,-86.25 553.37,-625.53 1106.06,-1251.68 1661.74,-1875.24 80.62,-90.46 167.33,-179.76 265.6,-249.37 287.51,-203.55 612.77,-119.56 773.83,192.32 327.15,633.77 653,1268.19 979.22,1902.45 16.62,32.38 31.46,65.72 54.77,114.73zm2814.63 -723.77c189.76,241.43 371.65,472.8 556.18,707.54 -88.02,28 -808.89,36.37 -1011.93,13.96 -122.53,-182.71 -249.65,-372.23 -377.65,-563.08l-987 0c-34.55,187.98 -68.3,372.14 -103.54,563.93l-766.78 0c70.3,-400.75 139.39,-794.45 210.16,-1197.89l143.17 0c583.81,0 1167.61,1.68 1751.44,-1.76 87.18,-0.49 176.56,-16.87 260.39,-41.42 49.67,-14.57 99.88,-51.81 133.33,-92.47 80.01,-97.31 43.04,-217.2 -77.49,-254.91 -58.67,-18.35 -123.25,-24.73 -185.19,-24.88 -613.36,-1.87 -1226.77,-1.28 -1840.11,-1.32 -40.07,-0.03 -80.14,0 -123.44,0 25.92,-78.97 420.39,-508.81 605.1,-662.92l98.67 0c439.72,0.06 879.45,-2.38 1319.17,1.32 199.63,1.64 397.82,21.01 587.58,93.5 457.8,174.82 548.88,566.63 394.51,944.98 -91.01,223.04 -256,375.73 -476.17,470.28 -33.52,14.36 -67.52,27.62 -110.4,45.14zm-9958.11 -143.7l-1329.41 0c-13.38,68.81 -24.91,128.1 -39.68,204.08l952.75 0 957.82 0c-198.84,241.06 -411.6,436.19 -598.69,643.18l-2197.76 0c135.6,-761.55 269.23,-1512.28 404.14,-2270.05l2665.88 0c-194.33,237.99 -408.45,428.9 -600.55,652.39l-1404.25 0c-12.6,58.72 -23.58,109.67 -37.62,174.95l1750.11 0c4.32,7.92 8.64,15.83 12.96,23.76 -170.34,190.88 -351.92,371.52 -535.7,571.69zm-6775.16 -1459.15c259.68,-6.49 517.31,11.56 768.12,83.95 81.3,23.46 161.6,53.55 238.11,89.62 307.99,145.25 460.9,396.66 471.5,731.03 4.42,139.08 -6.48,281.7 -33.28,418.2 -86.89,443.28 -368.82,718.88 -781.42,875.06 -244.63,92.59 -500.31,130.89 -758.83,147.82 -325.35,21.28 -650.6,17.09 -970.25,-58.81 -85.91,-20.41 -171.02,-47.62 -253.03,-80.35 -373.87,-149.23 -548.13,-436.12 -547.01,-829.68 0.4,-138.99 18.73,-281.23 52.26,-416.22 89.53,-360.78 317.16,-610.42 654.12,-762.68 294.59,-133.12 607.98,-179.09 926.86,-197.28 77.33,-4.45 155.23,-0.66 232.85,-0.66z"/>
  <path class="fil1" d="M2691.78 14105.51c0,0 143.84,-1385.48 429.34,-1999.43 285.51,-613.95 742.74,-1554.19 2275.48,-1807.5 1532.73,-253.3 3391.74,-107.32 4190.31,-133.09 798.56,-25.76 6160.94,21.46 7062.55,0 901.6,-21.47 3275.82,-171.73 4465.08,-437.93 1189.25,-266.19 1610,-601.06 2958.11,-601.06 1348.13,0 1640.07,201.79 1640.07,201.79 0,0 -14.33,710.53 306.78,1039.41 321.11,328.89 653.47,621.32 598.39,1087.55 -55.08,466.22 -213.85,656.81 -213.85,656.81l-1066.28 0c0,0 81.39,-1295.59 -781.57,-1836.56 -862.96,-540.95 -1871.9,-394.99 -2082.27,-364.93 -210.38,30.06 -862.97,154.56 -862.97,154.56 0,0 575.31,42.93 1232.18,77.29 1429.04,74.71 1945.44,1230.89 2043.64,2481.55l1944.89 -8.6c0,0 540.98,-1129.14 227.57,-1932 -313.42,-802.85 -573.16,-942.38 -427.2,-1427.52 145.97,-485.15 268.33,-457.25 199.65,-704.12 -68.69,-246.87 -358.5,-216.82 -467.98,-212.52 -109.48,4.3 -1614.29,57.96 -2335.58,-66.54 -721.29,-124.5 -1176.37,-296.25 -1597.12,-515.21 -420.75,-218.96 -1554.2,-974.58 -3168.49,-1249.35 -1614.3,-274.78 -2953.83,-188.91 -4233.25,171.72 -1279.4,360.65 -2726.27,1086.23 -3310.16,1498.39 -583.9,412.16 -704.11,626.82 -704.11,626.82 0,0 3438.98,-1618.58 6701.92,-1455.45 3262.95,163.16 4301.93,1116.29 4301.93,1116.29 0,0 -1004.63,1073.32 -7831.05,918.77 -2667.25,-60.4 -4454.9,-148.32 -5744.53,-196.65 -3380.47,-126.75 -6646.08,269.18 -5751.48,4917.51l0 0z"/>
 </g>
</svg>