<svg width="19" height="17" viewBox="0 0 19 17" fill="none" xmlns="http://www.w3.org/2000/svg">
<path d="M1 12.6667C1 14.5076 2.49238 16 4.33333 16H14.3333C16.1743 16 17.6667 14.5076 17.6667 12.6667V11.8333C17.6667 11.3731 17.2833 11.0136 16.8484 10.863C15.8696 10.5241 15.1667 9.59415 15.1667 8.5C15.1667 7.40585 15.8696 6.47588 16.8484 6.13698C17.2833 5.9864 17.6667 5.6269 17.6667 5.16667V4.33333C17.6667 2.49238 16.1743 1 14.3333 1H4.33333C2.49238 1 1 2.49238 1 4.33333V5.16667C1 5.6269 1.38334 5.9864 1.81825 6.13698C2.79711 6.47588 3.5 7.40585 3.5 8.5C3.5 9.59415 2.79711 10.5241 1.81825 10.863C1.38334 11.0136 1 11.3731 1 11.8333V12.6667Z" fill="white"/>
<path d="M7.66667 5.16667V3.5M7.66667 13.5V11.8333M7.66667 9.33333V7.66667M4.33333 16C2.49238 16 1 14.5076 1 12.6667V11.8333C1 11.3731 1.38334 11.0136 1.81825 10.863C2.79711 10.5241 3.5 9.59415 3.5 8.5C3.5 7.40585 2.79711 6.47588 1.81825 6.13698C1.38334 5.9864 1 5.6269 1 5.16667V4.33333C1 2.49238 2.49238 1 4.33333 1H14.3333C16.1743 1 17.6667 2.49238 17.6667 4.33333V5.16667C17.6667 5.6269 17.2833 5.9864 16.8484 6.13698C15.8696 6.47588 15.1667 7.40585 15.1667 8.5C15.1667 9.59415 15.8696 10.5241 16.8484 10.863C17.2833 11.0136 17.6667 11.3731 17.6667 11.8333V12.6667C17.6667 14.5076 16.1743 16 14.3333 16H4.33333Z" stroke="#4F4F4F" stroke-width="1.2" stroke-linecap="round" stroke-linejoin="round"/>
</svg>
