<svg width="16" height="16" viewBox="0 0 16 16" fill="none" xmlns="http://www.w3.org/2000/svg">
<path d="M10.5828 1.74322C10.2868 1.74322 9.84083 1.67619 9.57374 1.88392C9.20779 2.16855 9.02795 2.4925 8.89004 2.92156C8.7394 3.39024 8.53106 3.8395 8.36683 4.30875C8.18098 4.83972 8.20854 5.35435 8.20854 5.91577C8.20854 6.30392 8.47633 6.65765 8.76254 6.90065C9.36146 7.40917 10.0363 7.58829 10.7982 7.68768C11.3677 7.76195 12.1721 7.9059 12.6999 7.62173C12.9402 7.49233 13.187 7.42914 13.3682 7.20623C13.5677 6.96067 13.5556 6.6429 13.7287 6.39282C13.7475 6.36569 13.895 5.99492 13.9463 5.99492C13.9618 5.99492 13.9263 6.24413 13.9222 6.25433C13.8123 6.52291 13.6208 6.77317 13.4011 6.95781C12.9434 7.34249 12.3001 7.58598 11.7348 7.75803C11.2485 7.90601 10.738 7.91631 10.2333 7.91631C9.93794 7.91631 9.64263 7.91631 9.34731 7.91631C9.23261 7.91631 8.95678 7.96986 8.87246 7.88553C8.77798 7.79106 8.76303 7.58595 8.70538 7.46344C8.63217 7.30787 8.56685 7.15615 8.44597 7.02816C8.36881 6.94647 8.25293 6.73154 8.15358 6.69181C7.98731 6.6253 8.45259 6.8894 8.59546 6.99738C9.19878 7.45338 9.90153 7.67453 10.64 7.80639C11.2304 7.91182 11.7395 7.84206 12.269 7.61513C12.5441 7.49723 12.8809 7.39757 13.056 7.14467C13.2576 6.85351 13.4624 6.53649 13.8364 6.4214C13.9039 6.40064 14.1782 6.38879 14.1838 6.2939C14.1904 6.18039 14.2233 6.09897 14.2233 5.97733" stroke="white" stroke-width="3" stroke-linecap="round"/>
<path d="M8.05026 8.86597C7.73651 9.02284 7.40762 9.19689 7.12034 9.39578C7.0233 9.46297 6.89222 9.47696 6.79278 9.53867C6.63012 9.63964 6.45475 9.76933 6.31133 9.89481C5.7847 10.3556 5.09014 10.6378 4.65595 11.2007C4.1754 11.8236 3.48976 12.2322 2.88844 12.7241C2.76134 12.8281 2.6403 12.9415 2.54109 13.0517C2.46917 13.1316 2.3916 13.445 2.3916 13.3375" stroke="white" stroke-width="3" stroke-linecap="round"/>
<path d="M6.38792 7.67896C6.21564 7.68909 6.06547 7.95519 5.95264 8.07467C5.89325 8.13755 5.82215 8.1985 5.77457 8.27252C5.71586 8.36384 5.61167 8.37606 5.53714 8.45059C5.32106 8.66667 5.19443 8.99115 5.00293 9.18266" stroke="white" stroke-linecap="round"/>
<path d="M4.64689 8.78461C4.67908 8.7818 4.70623 8.74543 4.7267 8.72226C4.75567 8.68949 4.79161 8.66672 4.82109 8.63496C4.88473 8.56641 4.95656 8.50535 5.0189 8.43442C5.10634 8.33492 5.20691 8.24871 5.29859 8.15349C5.45939 7.9865 5.62462 7.82147 5.7923 7.66151C5.82125 7.63389 5.85021 7.60695 5.87872 7.57891C5.91169 7.54647 5.93767 7.50693 5.97175 7.47605C6.00969 7.44168 6.04455 7.40688 6.07742 7.36772" stroke="white" stroke-linecap="round"/>
<path d="M-0.000152588 13.5479C0.00178719 14.1976 0.260754 14.8202 0.720193 15.2796C1.17963 15.7391 1.80221 15.9981 2.45195 16C3.01021 15.9702 3.53621 15.7291 3.92321 15.3257C4.02826 15.1867 4.15204 15.0629 4.29103 14.9579L9.07265 10.1762C9.62404 10.3722 10.204 10.4757 10.7891 10.4828C11.4736 10.4833 12.1514 10.3489 12.7838 10.0873C13.4163 9.8256 13.9909 9.4418 14.4749 8.95783C14.9589 8.47386 15.3427 7.89921 15.6044 7.26676C15.866 6.63431 16.0004 5.95647 15.9999 5.27203C16.0082 4.22832 15.6624 3.21262 15.019 2.39081L11.8313 5.57854L10.4826 4.22989L13.609 1.10345C12.8182 0.431899 11.8257 0.043565 10.7891 0C9.66914 0.00130221 8.5793 0.362963 7.68075 1.03151C6.78219 1.70005 6.12261 2.64 5.79952 3.71236C5.47644 4.78473 5.507 5.9326 5.88669 6.98626C6.26637 8.03992 6.97503 8.94343 7.90789 9.56322L3.4328 14.0383C3.3102 14.1609 2.75847 14.7126 2.51326 14.7126C2.18839 14.7117 1.8771 14.5822 1.64738 14.3525C1.41766 14.1227 1.28818 13.8115 1.28721 13.4866C1.2836 13.2207 1.37002 12.9615 1.53241 12.751L1.83893 12.4444L4.78146 9.50192C4.83875 9.44577 4.88434 9.37883 4.9156 9.30495C4.94685 9.23108 4.96316 9.15174 4.96356 9.07153C4.96397 8.99131 4.94846 8.91182 4.91795 8.83763C4.88744 8.76344 4.84254 8.69604 4.78582 8.63932C4.7291 8.5826 4.66169 8.53769 4.5875 8.50718C4.51332 8.47667 4.43382 8.46117 4.3536 8.46157C4.27339 8.46198 4.19406 8.47828 4.12018 8.50954C4.04631 8.54079 3.97936 8.58639 3.92321 8.64368L0.980694 11.5862L0.67418 11.8927C0.251677 12.3416 0.0113001 12.9316 -0.000152588 13.5479ZM6.74314 5.27203C6.74209 4.74846 6.84444 4.22983 7.04431 3.74592C7.24419 3.262 7.53766 2.82232 7.90788 2.4521C8.2781 2.08188 8.71779 1.78841 9.2017 1.58853C9.68562 1.38866 10.2042 1.28631 10.7278 1.28736C10.8937 1.27741 11.0599 1.29819 11.2182 1.34866L9.19525 3.37165C8.90044 3.67556 8.73556 4.08233 8.73556 4.50575C8.73556 4.92916 8.90044 5.33593 9.19525 5.63985L10.36 6.8046C10.6639 7.09941 11.0707 7.26429 11.4941 7.26429C11.9175 7.26429 12.3243 7.09941 12.6282 6.8046L14.6512 4.78161C14.6512 4.96551 14.7125 5.08812 14.7125 5.27203C14.7125 6.32883 14.2927 7.34235 13.5454 8.08962C12.7981 8.83689 11.7846 9.2567 10.7278 9.2567C9.67102 9.2567 8.6575 8.83689 7.91023 8.08962C7.16296 7.34235 6.74314 6.32883 6.74314 5.27203Z" fill="#4F4F4F"/>
<path d="M-0.000152588 13.5479C0.00178719 14.1976 0.260754 14.8202 0.720193 15.2796C1.17963 15.7391 1.80221 15.9981 2.45195 16C3.01021 15.9702 3.53621 15.7291 3.92321 15.3257C4.02826 15.1867 4.15204 15.0629 4.29103 14.9579L9.07265 10.1762C9.62404 10.3722 10.204 10.4757 10.7891 10.4828C11.4736 10.4833 12.1514 10.3489 12.7838 10.0873C13.4163 9.8256 13.9909 9.4418 14.4749 8.95783C14.9589 8.47386 15.3427 7.89921 15.6044 7.26676C15.866 6.63431 16.0004 5.95647 15.9999 5.27203C16.0082 4.22832 15.6624 3.21262 15.019 2.39081L11.8313 5.57854L10.4826 4.22989L13.609 1.10345C12.8182 0.431899 11.8257 0.043565 10.7891 0C9.66914 0.00130221 8.5793 0.362963 7.68075 1.03151C6.78219 1.70005 6.12261 2.64 5.79952 3.71236C5.47644 4.78473 5.507 5.9326 5.88669 6.98626C6.26637 8.03992 6.97503 8.94343 7.90789 9.56322L3.4328 14.0383C3.3102 14.1609 2.75847 14.7126 2.51326 14.7126C2.18839 14.7117 1.8771 14.5822 1.64738 14.3525C1.41766 14.1227 1.28818 13.8115 1.28721 13.4866C1.2836 13.2207 1.37002 12.9615 1.53241 12.751L1.83893 12.4444L4.78146 9.50192C4.83875 9.44577 4.88434 9.37883 4.9156 9.30495C4.94685 9.23108 4.96316 9.15174 4.96356 9.07153C4.96397 8.99131 4.94846 8.91182 4.91795 8.83763C4.88744 8.76344 4.84254 8.69604 4.78582 8.63932C4.7291 8.5826 4.66169 8.53769 4.5875 8.50718C4.51332 8.47667 4.43382 8.46117 4.3536 8.46157C4.27339 8.46198 4.19406 8.47828 4.12018 8.50954C4.04631 8.54079 3.97936 8.58639 3.92321 8.64368L0.980694 11.5862L0.67418 11.8927C0.251677 12.3416 0.0113001 12.9316 -0.000152588 13.5479ZM6.74314 5.27203C6.74209 4.74846 6.84444 4.22983 7.04431 3.74592C7.24419 3.262 7.53766 2.82232 7.90788 2.4521C8.2781 2.08188 8.71779 1.78841 9.2017 1.58853C9.68562 1.38866 10.2042 1.28631 10.7278 1.28736C10.8937 1.27741 11.0599 1.29819 11.2182 1.34866L9.19525 3.37165C8.90044 3.67556 8.73556 4.08233 8.73556 4.50575C8.73556 4.92916 8.90044 5.33593 9.19525 5.63985L10.36 6.8046C10.6639 7.09941 11.0707 7.26429 11.4941 7.26429C11.9175 7.26429 12.3243 7.09941 12.6282 6.8046L14.6512 4.78161C14.6512 4.96551 14.7125 5.08812 14.7125 5.27203C14.7125 6.32883 14.2927 7.34235 13.5454 8.08962C12.7981 8.83689 11.7846 9.2567 10.7278 9.2567C9.67102 9.2567 8.6575 8.83689 7.91023 8.08962C7.16296 7.34235 6.74314 6.32883 6.74314 5.27203Z" fill="#4F4F4F"/>
</svg>
