<svg width="14" height="14" viewBox="0 0 14 14" fill="none" xmlns="http://www.w3.org/2000/svg">
<path d="M6.99897 0C3.1394 0 -0.00012207 3.1403 -0.00012207 7C-0.00012207 10.8597 3.1394 14 6.99897 14C10.8585 14 13.9987 10.8597 13.9987 7C13.9987 3.1403 10.8585 0 6.99897 0Z" fill="white"/>
<path d="M6.99897 0C3.1394 0 -0.00012207 3.1403 -0.00012207 7C-0.00012207 10.8597 3.1394 14 6.99897 14C10.8585 14 13.9987 10.8597 13.9987 7C13.9987 3.1403 10.8585 0 6.99897 0ZM6.99897 12.9414C3.72324 12.9414 1.05775 10.2765 1.05775 7C1.05775 3.72416 3.72324 1.05859 6.99897 1.05859C10.2747 1.05859 12.9402 3.72416 12.9402 7C12.9402 10.2765 10.2747 12.9414 6.99897 12.9414Z" fill="#4F4F4F"/>
<path d="M6.06142 7.00005C6.06142 7.51857 6.48124 7.93839 6.99905 7.93839C7.51755 7.93839 7.93664 7.51857 7.93664 7.00005C7.93664 6.48223 7.51755 6.06171 6.99905 6.06171C6.99279 6.06171 6.98584 6.0631 6.97889 6.0631L3.52106 3.48511L6.06631 6.89926C6.06353 6.93332 6.06142 6.96599 6.06142 7.00005Z" fill="#4F4F4F"/>
<path d="M8.27366 9.16382H4.2334V11.3873H9.76521V9.16382H8.27366ZM5.24328 10.9057H4.71436V9.64411H5.24328V10.9057ZM6.25319 10.9057H5.72424V9.64411H6.25319V10.9057ZM7.26378 10.9057H6.73483V9.64411H7.26378V10.9057ZM8.27366 10.9057H7.74474V9.64411H8.27366V10.9057ZM9.28357 9.64411V10.9057H8.75462V9.64411H9.28357Z" fill="#4F4F4F"/>
</svg>
