<svg width="23" height="22" viewBox="0 0 23 22" fill="none" xmlns="http://www.w3.org/2000/svg">
<path d="M8.91523 3.87395C9.95119 1.29132 10.4692 0 11.3599 0C12.2506 0 12.7686 1.29132 13.8045 3.87395L13.8528 3.99422C14.4381 5.45328 14.7307 6.18281 15.3271 6.62623C15.9235 7.06964 16.7064 7.13976 18.2722 7.27999L18.5553 7.30534C21.1179 7.53485 22.3992 7.6496 22.6734 8.4648C22.9476 9.28 21.996 10.1457 20.0929 11.8772L19.4577 12.455C18.4943 13.3315 18.0126 13.7698 17.7881 14.3441C17.7462 14.4513 17.7114 14.5611 17.6839 14.6728C17.5363 15.2715 17.6774 15.9073 17.9595 17.1788L18.0473 17.5746C18.5658 19.9114 18.825 21.0798 18.3724 21.5838C18.2032 21.7721 17.9834 21.9077 17.7392 21.9743C17.0857 22.1526 16.1579 21.3966 14.3023 19.8846C13.0839 18.8917 12.4747 18.3953 11.7752 18.2836C11.5001 18.2397 11.2197 18.2397 10.9446 18.2836C10.2451 18.3953 9.63589 18.8917 8.41744 19.8846C6.56185 21.3966 5.63406 22.1526 4.98056 21.9743C4.73636 21.9077 4.51654 21.7721 4.34741 21.5838C3.89478 21.0798 4.15402 19.9114 4.67249 17.5746L4.7603 17.1788C5.04241 15.9073 5.18347 15.2715 5.03589 14.6728C5.00836 14.5611 4.97355 14.4513 4.93167 14.3441C4.70715 13.7698 4.22546 13.3315 3.26206 12.455L2.6269 11.8772C0.723776 10.1457 -0.227785 9.28 0.0463857 8.4648C0.320557 7.6496 1.60187 7.53485 4.16451 7.30534L4.44758 7.27999C6.01339 7.13976 6.79629 7.06964 7.39269 6.62623C7.98909 6.18281 8.28173 5.45328 8.86699 3.99421L8.91523 3.87395Z" fill="#FEE40B"/>
</svg>
