<svg width="24" height="22" viewBox="0 0 24 22" fill="none" xmlns="http://www.w3.org/2000/svg">
<path d="M13.7278 4.21759L14.2847 3.99422L13.7278 4.21759L13.7395 4.2468C14.0222 4.95152 14.2513 5.52266 14.4865 5.97025C14.7315 6.43624 15.0053 6.81352 15.401 7.10773C15.7967 7.40193 16.2368 7.55546 16.7536 7.6558C17.25 7.75219 17.8629 7.80707 18.6192 7.87479L18.6506 7.8776L18.9336 7.90295C20.2351 8.01951 21.1437 8.1024 21.7666 8.24939C22.4059 8.40026 22.5061 8.56533 22.5366 8.65607C22.5671 8.7468 22.587 8.93888 22.1688 9.44539C21.7614 9.93891 21.0875 10.554 20.121 11.4334L19.4858 12.0112L19.4664 12.0289C19.0012 12.4521 18.6238 12.7955 18.3371 13.1056C18.039 13.4281 17.8103 13.7442 17.6612 14.1257C17.6097 14.2573 17.567 14.392 17.5332 14.5292C17.4352 14.9269 17.4399 15.3171 17.4976 15.7524C17.5532 16.171 17.6637 16.6691 17.7999 17.2832L17.8056 17.3088L17.8934 17.7046C18.1559 18.8875 18.3411 19.7261 18.4097 20.3338C18.4828 20.9821 18.3905 21.1465 18.3579 21.1829C18.2658 21.2854 18.1461 21.3592 18.0132 21.3955C17.966 21.4084 17.7777 21.4171 17.2311 21.0607C16.7188 20.7267 16.0525 20.1848 15.1132 19.4194L15.0903 19.4008C14.5006 18.9202 14.0253 18.5329 13.6096 18.2549C13.1796 17.9673 12.7697 17.7658 12.3017 17.6911C11.9639 17.6372 11.6197 17.6372 11.2819 17.6911C10.8138 17.7658 10.404 17.9673 9.97398 18.2549C9.55827 18.5329 9.08299 18.9202 8.4932 19.4008L8.47031 19.4194C7.53101 20.1848 6.86472 20.7267 6.3524 21.0607C5.80587 21.4171 5.61756 21.4084 5.57039 21.3955C5.43744 21.3592 5.31777 21.2854 5.22569 21.1829C5.19301 21.1465 5.10072 20.9821 5.17389 20.3338C5.24247 19.7261 5.42768 18.8875 5.69013 17.7046L5.77794 17.3088L5.78363 17.2832C5.91987 16.6691 6.03039 16.171 6.08591 15.7524C6.14364 15.3171 6.14838 14.9269 6.05035 14.5292L5.46778 14.6728L6.05034 14.5292C6.01655 14.392 5.9738 14.2573 5.92238 14.1257C5.77324 13.7442 5.54452 13.4281 5.24643 13.1056C4.95979 12.7955 4.58237 12.4521 4.11713 12.0289L4.09772 12.0112L3.46256 11.4334C2.496 10.554 1.82218 9.93891 1.41472 9.44539C0.996541 8.93888 1.01645 8.7468 1.04697 8.65607C1.07748 8.56533 1.17769 8.40026 1.81697 8.24939C2.43984 8.1024 3.34841 8.01951 4.64992 7.90295L4.93299 7.8776L4.96436 7.87479C5.72063 7.80707 6.33353 7.75219 6.82991 7.6558C7.34671 7.55546 7.78685 7.40193 8.18256 7.10773C8.57827 6.81352 8.85206 6.43624 9.097 5.97025C9.33227 5.52267 9.56135 4.95154 9.84402 4.24683L9.85575 4.21759L9.90398 4.09733C10.4294 2.78743 10.8001 1.86727 11.1444 1.26701C11.5025 0.642709 11.7006 0.6 11.7918 0.6C11.8829 0.6 12.0811 0.642709 12.4392 1.26701C12.7835 1.86727 13.1541 2.78743 13.6796 4.09733L13.7278 4.21759Z" fill="white" stroke="#D3D3D3" stroke-width="1.2"/>
</svg>
