<svg width="20" height="20" viewBox="0 0 20 20" fill="none" xmlns="http://www.w3.org/2000/svg">
<path d="M17.5178 7.22966L17.1881 7.04623C17.137 7.01774 17.1118 7.00345 17.087 6.98864C16.8411 6.84135 16.6339 6.63787 16.4827 6.3944C16.4675 6.3699 16.4531 6.34422 16.4238 6.29345C16.3945 6.24273 16.3797 6.21703 16.366 6.1916C16.2304 5.93831 16.157 5.65604 16.1526 5.36875C16.1522 5.33987 16.1522 5.31036 16.1532 5.25169L16.1597 4.8688C16.17 4.25609 16.1752 3.94879 16.089 3.673C16.0126 3.42802 15.8847 3.20239 15.7138 3.01091C15.5207 2.79446 15.2533 2.64004 14.718 2.3316L14.2734 2.0754C13.7397 1.76782 13.4727 1.61398 13.1893 1.55533C12.9386 1.50344 12.6799 1.50585 12.4301 1.56192C12.1481 1.62521 11.8845 1.78306 11.3576 2.09859L11.3546 2.10002L11.036 2.29077C10.9857 2.32093 10.9602 2.33613 10.9349 2.35017C10.6843 2.48947 10.4047 2.56649 10.1181 2.57569C10.0893 2.57662 10.0599 2.57662 10.0011 2.57662C9.94281 2.57662 9.91211 2.57662 9.88329 2.57569C9.59617 2.56646 9.31589 2.48901 9.06497 2.34914C9.03967 2.33504 9.01464 2.31972 8.96422 2.28941L8.6436 2.09694C8.11304 1.77843 7.84738 1.61893 7.56388 1.55533C7.31306 1.49906 7.05347 1.4975 6.80186 1.55005C6.51775 1.60939 6.25072 1.76438 5.71664 2.07434L5.71426 2.0754L5.2752 2.33023L5.27033 2.3332C4.74107 2.64039 4.4758 2.79434 4.28429 3.00991C4.11434 3.20119 3.98731 3.42647 3.91127 3.6708C3.82533 3.94696 3.82991 4.25493 3.84026 4.87053L3.8467 5.25288C3.84767 5.31077 3.84937 5.33954 3.84894 5.36802C3.84467 5.6559 3.77033 5.93874 3.63427 6.19248C3.62082 6.21757 3.60632 6.24267 3.57737 6.29279C3.5484 6.34296 3.53436 6.3679 3.51934 6.39211C3.36743 6.63686 3.15925 6.84154 2.91182 6.98907C2.88735 7.00367 2.86156 7.01771 2.81088 7.04579L2.48534 7.22619C1.94372 7.52634 1.67298 7.67655 1.47597 7.8903C1.30168 8.0794 1.17002 8.30366 1.08966 8.54801C0.998813 8.82415 0.998885 9.13378 1.0003 9.75295L1.00144 10.2591C1.00284 10.8742 1.00476 11.1815 1.09581 11.4558C1.17636 11.6984 1.30706 11.9214 1.48037 12.1093C1.67626 12.3218 1.94432 12.4711 2.48182 12.7701L2.80446 12.9496C2.85937 12.9802 2.887 12.9952 2.91348 13.0112C3.15865 13.1588 3.3652 13.3629 3.51582 13.6063C3.53209 13.6326 3.54771 13.6598 3.57895 13.7145C3.6098 13.7683 3.62558 13.7952 3.63985 13.8223C3.77191 14.0723 3.84261 14.3501 3.84743 14.6328C3.84795 14.6634 3.84751 14.6942 3.84646 14.7564L3.84026 15.1233C3.82984 15.741 3.82529 16.0502 3.91174 16.3271C3.98823 16.5721 4.11605 16.7977 4.28693 16.9892C4.48007 17.2057 4.74783 17.36 5.28311 17.6685L5.72762 17.9245C6.26139 18.2322 6.52819 18.3858 6.81156 18.4445C7.06226 18.4963 7.32111 18.4944 7.57092 18.4383C7.85325 18.3749 8.11778 18.2165 8.64621 17.9L8.96476 17.7093C9.01518 17.6791 9.04075 17.664 9.06596 17.6499C9.31652 17.5106 9.5959 17.4332 9.88248 17.424C9.91129 17.4231 9.94074 17.4231 9.99944 17.4231C10.0583 17.4231 10.0877 17.4231 10.1166 17.424C10.4037 17.4333 10.6849 17.511 10.9358 17.6508C10.9579 17.6632 10.98 17.6765 11.0188 17.6998L11.3575 17.9031C11.8881 18.2216 12.1533 18.3806 12.4368 18.4443C12.6875 18.5006 12.9474 18.5028 13.199 18.4503C13.483 18.391 13.7506 18.2357 14.2844 17.9259L14.7301 17.6672C15.2596 17.3598 15.5252 17.2057 15.7168 16.9901C15.8867 16.7988 16.014 16.5736 16.0899 16.3293C16.1753 16.0551 16.1702 15.7496 16.1599 15.1428L16.1532 14.7471C16.1522 14.6892 16.1522 14.6604 16.1526 14.6319C16.1568 14.344 16.23 14.061 16.366 13.8073C16.3795 13.7822 16.3941 13.7569 16.4229 13.7069C16.4519 13.6569 16.4669 13.6318 16.482 13.6076C16.6338 13.3628 16.8422 13.158 17.0897 13.0104C17.1138 12.996 17.1388 12.9822 17.1882 12.9549L17.1899 12.9541L17.5154 12.7736C18.057 12.4735 18.3283 12.3231 18.5253 12.1093C18.6996 11.9203 18.8311 11.6963 18.9115 11.452C19.0018 11.1775 19.001 10.8697 18.9997 10.2577L18.9985 9.74071C18.9971 9.12559 18.9964 8.8183 18.9053 8.54405C18.8248 8.30141 18.6933 8.0784 18.52 7.89044C18.3243 7.67819 18.0559 7.52887 17.5194 7.23042L17.5178 7.22966Z" stroke="#4F4F4F" stroke-width="1.5" stroke-linecap="round" stroke-linejoin="round"/>
<path d="M6.39893 10.0001C6.39893 11.9891 8.01133 13.6015 10.0003 13.6015C11.9894 13.6015 13.6017 11.9891 13.6017 10.0001C13.6017 8.01108 11.9894 6.39868 10.0003 6.39868C8.01133 6.39868 6.39893 8.01108 6.39893 10.0001Z" stroke="#4F4F4F" stroke-width="1.5" stroke-linecap="round" stroke-linejoin="round"/>
</svg>
