<svg width="20" height="20" viewBox="0 0 20 20" fill="none" xmlns="http://www.w3.org/2000/svg">
<path d="M17.5178 7.22978L17.1881 7.04635C17.137 7.01786 17.1118 7.00358 17.087 6.98876C16.8411 6.84148 16.6339 6.63799 16.4827 6.39452C16.4675 6.37003 16.4531 6.34434 16.4238 6.29357C16.3945 6.24285 16.3797 6.21716 16.366 6.19172C16.2304 5.93843 16.157 5.65617 16.1526 5.36887C16.1522 5.33999 16.1522 5.31049 16.1532 5.25181L16.1597 4.86893C16.17 4.25621 16.1752 3.94891 16.089 3.67312C16.0126 3.42814 15.8847 3.20251 15.7138 3.01103C15.5207 2.79458 15.2533 2.64016 14.718 2.33172L14.2734 2.07552C13.7397 1.76794 13.4727 1.6141 13.1893 1.55545C12.9386 1.50356 12.6799 1.50597 12.4301 1.56204C12.1481 1.62534 11.8845 1.78319 11.3576 2.09871L11.3546 2.10014L11.036 2.29089C10.9857 2.32105 10.9602 2.33625 10.9349 2.35029C10.6843 2.48959 10.4047 2.56662 10.1181 2.57582C10.0893 2.57674 10.0599 2.57674 10.0011 2.57674C9.94281 2.57674 9.91211 2.57674 9.88329 2.57582C9.59617 2.56658 9.31589 2.48913 9.06497 2.34926C9.03967 2.33516 9.01464 2.31984 8.96422 2.28953L8.6436 2.09707C8.11304 1.77855 7.84738 1.61905 7.56388 1.55545C7.31306 1.49918 7.05347 1.49762 6.80186 1.55017C6.51775 1.60952 6.25072 1.7645 5.71664 2.07447L5.71426 2.07552L5.2752 2.33035L5.27033 2.33333C4.74107 2.64051 4.4758 2.79447 4.28429 3.01003C4.11434 3.20132 3.98731 3.42659 3.91127 3.67092C3.82533 3.94709 3.82991 4.25505 3.84026 4.87066L3.8467 5.253C3.84767 5.31089 3.84937 5.33967 3.84894 5.36814C3.84467 5.65602 3.77033 5.93887 3.63427 6.1926C3.62082 6.2177 3.60632 6.24279 3.57737 6.29291C3.5484 6.34308 3.53436 6.36802 3.51934 6.39223C3.36743 6.63698 3.15925 6.84167 2.91182 6.9892C2.88735 7.00379 2.86156 7.01783 2.81088 7.04591L2.48534 7.22631C1.94372 7.52646 1.67298 7.67667 1.47597 7.89042C1.30168 8.07952 1.17002 8.30378 1.08966 8.54813C0.998813 8.82427 0.998885 9.1339 1.0003 9.75307L1.00144 10.2592C1.00284 10.8743 1.00476 11.1817 1.09581 11.4559C1.17636 11.6985 1.30706 11.9216 1.48037 12.1095C1.67626 12.322 1.94432 12.4712 2.48182 12.7702L2.80446 12.9498C2.85937 12.9803 2.887 12.9953 2.91348 13.0113C3.15865 13.1589 3.3652 13.363 3.51582 13.6064C3.53209 13.6327 3.54771 13.66 3.57895 13.7146C3.6098 13.7685 3.62558 13.7954 3.63985 13.8224C3.77191 14.0724 3.84261 14.3503 3.84743 14.633C3.84795 14.6635 3.84751 14.6944 3.84646 14.7565L3.84026 15.1234C3.82984 15.7411 3.82529 16.0503 3.91174 16.3272C3.98823 16.5722 4.11605 16.7979 4.28693 16.9894C4.48007 17.2058 4.74783 17.3601 5.28311 17.6686L5.72762 17.9246C6.26139 18.2323 6.52819 18.3859 6.81156 18.4446C7.06226 18.4965 7.32111 18.4945 7.57092 18.4384C7.85325 18.375 8.11778 18.2166 8.64621 17.9002L8.96476 17.7095C9.01518 17.6792 9.04075 17.6641 9.06596 17.65C9.31652 17.5108 9.5959 17.4333 9.88248 17.4241C9.91129 17.4232 9.94074 17.4232 9.99944 17.4232C10.0583 17.4232 10.0877 17.4232 10.1166 17.4241C10.4037 17.4334 10.6849 17.5111 10.9358 17.6509C10.9579 17.6633 10.98 17.6766 11.0188 17.6999L11.3575 17.9032C11.8881 18.2218 12.1533 18.3808 12.4368 18.4444C12.6875 18.5007 12.9474 18.5029 13.199 18.4505C13.483 18.3911 13.7506 18.2358 14.2844 17.926L14.7301 17.6673C15.2596 17.3599 15.5252 17.2058 15.7168 16.9902C15.8867 16.7989 16.014 16.5738 16.0899 16.3294C16.1753 16.0553 16.1702 15.7497 16.1599 15.1429L16.1532 14.7472C16.1522 14.6893 16.1522 14.6605 16.1526 14.6321C16.1568 14.3441 16.23 14.0612 16.366 13.8074C16.3795 13.7823 16.3941 13.757 16.4229 13.707C16.4519 13.657 16.4669 13.632 16.482 13.6077C16.6338 13.3629 16.8422 13.1581 17.0897 13.0105C17.1138 12.9961 17.1388 12.9824 17.1882 12.955L17.1899 12.9542L17.5154 12.7737C18.057 12.4737 18.3283 12.3232 18.5253 12.1095C18.6996 11.9204 18.8311 11.6964 18.9115 11.4521C19.0018 11.1776 19.001 10.8698 18.9997 10.2578L18.9985 9.74083C18.9971 9.12571 18.9964 8.81842 18.9053 8.54417C18.8248 8.30153 18.6933 8.07852 18.52 7.89056C18.3243 7.67832 18.0559 7.52899 17.5194 7.23054L17.5178 7.22978Z" stroke="#4D5EA5" stroke-width="1.5" stroke-linecap="round" stroke-linejoin="round"/>
<path d="M6.39893 10.0001C6.39893 11.9891 8.01133 13.6015 10.0003 13.6015C11.9894 13.6015 13.6017 11.9891 13.6017 10.0001C13.6017 8.01108 11.9894 6.39868 10.0003 6.39868C8.01133 6.39868 6.39893 8.01108 6.39893 10.0001Z" stroke="#4D5EA5" stroke-width="1.5" stroke-linecap="round" stroke-linejoin="round"/>
</svg>
