<svg width="19" height="18" viewBox="0 0 19 18" fill="none" xmlns="http://www.w3.org/2000/svg">
<path d="M0.499828 15.2414C0.502011 15.9723 0.793348 16.6727 1.31022 17.1896C1.82709 17.7065 2.52749 17.9978 3.25845 18C3.88649 17.9665 4.47824 17.6952 4.91362 17.2414C5.03179 17.085 5.17105 16.9458 5.32741 16.8276L10.7067 11.4483C11.3271 11.6687 11.9795 11.7852 12.6378 11.7931C13.4078 11.7937 14.1703 11.6425 14.8818 11.3482C15.5933 11.0538 16.2398 10.622 16.7843 10.0776C17.3288 9.53309 17.7605 8.88661 18.0549 8.1751C18.3493 7.4636 18.5005 6.70103 18.4998 5.93103C18.5093 4.75686 18.1203 3.61419 17.3964 2.68966L13.8102 6.27586L12.2929 4.75862L15.8102 1.24138C14.9204 0.485887 13.804 0.0490106 12.6378 0C11.3778 0.00146499 10.1517 0.408333 9.14084 1.16045C8.12996 1.91256 7.38794 2.97 7.02447 4.17641C6.66099 5.38282 6.69537 6.67417 7.12252 7.85954C7.54967 9.0449 8.34691 10.0614 9.39638 10.7586L4.3619 15.7931C4.22397 15.931 3.60328 16.5517 3.32742 16.5517C2.96194 16.5506 2.61173 16.405 2.3533 16.1465C2.09486 15.8881 1.9492 15.5379 1.94811 15.1724C1.94405 14.8733 2.04127 14.5817 2.22397 14.3448L2.56879 14L5.87914 10.6897C5.94359 10.6265 5.99488 10.5512 6.03005 10.4681C6.06521 10.385 6.08355 10.2957 6.08401 10.2055C6.08446 10.1152 6.06702 10.0258 6.0327 9.94233C5.99837 9.85887 5.94786 9.78304 5.88404 9.71923C5.82023 9.65542 5.7444 9.6049 5.66094 9.57058C5.57748 9.53625 5.48805 9.51881 5.39781 9.51927C5.30756 9.51973 5.21831 9.53806 5.13521 9.57323C5.0521 9.60839 4.97678 9.65969 4.91362 9.72414L1.60328 13.0345L1.25845 13.3793C0.783137 13.8843 0.512714 14.548 0.499828 15.2414ZM8.08604 5.93103C8.08485 5.34202 8.19999 4.75856 8.42485 4.21416C8.64972 3.66975 8.97987 3.17511 9.39637 2.75861C9.81286 2.34211 10.3075 2.01196 10.8519 1.7871C11.3963 1.56224 11.9798 1.44709 12.5688 1.44827C12.7554 1.43708 12.9424 1.46046 13.1205 1.51724L10.8447 3.7931C10.513 4.13501 10.3275 4.59263 10.3275 5.06896C10.3275 5.5453 10.513 6.00292 10.8447 6.34483L12.155 7.65517C12.4969 7.98683 12.9545 8.17232 13.4309 8.17232C13.9072 8.17232 14.3648 7.98683 14.7067 7.65517L16.9826 5.37931C16.9826 5.5862 17.0516 5.72414 17.0516 5.93103C17.0516 7.11994 16.5793 8.26014 15.7386 9.10082C14.8979 9.9415 13.7577 10.4138 12.5688 10.4138C11.3799 10.4138 10.2397 9.9415 9.39901 9.10082C8.55833 8.26014 8.08604 7.11994 8.08604 5.93103Z" fill="#4F4F4F"/>
</svg>
