<svg width="19" height="18" viewBox="0 0 19 18" fill="none" xmlns="http://www.w3.org/2000/svg">
<path d="M0.49995 15.2414C0.502134 15.9723 0.79347 16.6727 1.31034 17.1896C1.82721 17.7065 2.52761 17.9978 3.25857 18C3.88661 17.9665 4.47836 17.6952 4.91374 17.2414C5.03191 17.085 5.17117 16.9458 5.32754 16.8276L10.7068 11.4483C11.3272 11.6687 11.9796 11.7852 12.6379 11.7931C13.4079 11.7937 14.1704 11.6425 14.8819 11.3482C15.5935 11.0538 16.2399 10.622 16.7844 10.0776C17.3289 9.53309 17.7606 8.88661 18.055 8.1751C18.3494 7.4636 18.5006 6.70103 18.5 5.93103C18.5094 4.75686 18.1204 3.61419 17.3965 2.68966L13.8103 6.27586L12.2931 4.75862L15.8103 1.24138C14.9205 0.485887 13.8041 0.0490106 12.6379 0C11.3779 0.00146499 10.1518 0.408333 9.14096 1.16045C8.13008 1.91256 7.38806 2.97 7.02459 4.17641C6.66112 5.38282 6.69549 6.67417 7.12264 7.85954C7.54979 9.0449 8.34703 10.0614 9.3965 10.7586L4.36202 15.7931C4.22409 15.931 3.6034 16.5517 3.32754 16.5517C2.96206 16.5506 2.61185 16.405 2.35342 16.1465C2.09499 15.8881 1.94932 15.5379 1.94823 15.1724C1.94418 14.8733 2.04139 14.5817 2.22409 14.3448L2.56892 14L5.87926 10.6897C5.94372 10.6265 5.995 10.5512 6.03017 10.4681C6.06533 10.385 6.08368 10.2957 6.08413 10.2055C6.08459 10.1152 6.06714 10.0258 6.03282 9.94233C5.9985 9.85887 5.94798 9.78304 5.88417 9.71923C5.82036 9.65542 5.74452 9.6049 5.66106 9.57058C5.5776 9.53625 5.48817 9.51881 5.39793 9.51927C5.30769 9.51972 5.21844 9.53806 5.13533 9.57323C5.05222 9.60839 4.9769 9.65969 4.91374 9.72414L1.6034 13.0345L1.25858 13.3793C0.783258 13.8843 0.512836 14.548 0.49995 15.2414ZM8.08616 5.93103C8.08498 5.34202 8.20012 4.75856 8.42498 4.21416C8.64984 3.66975 8.97999 3.17511 9.39649 2.75861C9.81299 2.34211 10.3076 2.01196 10.852 1.7871C11.3964 1.56224 11.9799 1.44709 12.5689 1.44827C12.7555 1.43708 12.9426 1.46046 13.1206 1.51724L10.8448 3.7931C10.5131 4.13501 10.3276 4.59263 10.3276 5.06896C10.3276 5.5453 10.5131 6.00292 10.8448 6.34483L12.1551 7.65517C12.497 7.98683 12.9546 8.17232 13.431 8.17232C13.9073 8.17232 14.3649 7.98683 14.7069 7.65517L16.9827 5.37931C16.9827 5.5862 17.0517 5.72414 17.0517 5.93103C17.0517 7.11994 16.5794 8.26014 15.7387 9.10082C14.898 9.9415 13.7578 10.4138 12.5689 10.4138C11.38 10.4138 10.2398 9.9415 9.39913 9.10082C8.55845 8.26014 8.08616 7.11994 8.08616 5.93103Z" fill="#4D5EA5"/>
</svg>
